%TF.GenerationSoftware,KiCad,Pcbnew,10.0.0*%
%TF.CreationDate,2026-07-06T08:29:43+05:30*%
%TF.ProjectId,Twin key,5477696e-206b-4657-992e-6b696361645f,rev?*%
%TF.SameCoordinates,Original*%
%TF.FileFunction,Drillmap*%
%TF.FilePolarity,Positive*%
%FSLAX45Y45*%
G04 Gerber Fmt 4.5, Leading zero omitted, Abs format (unit mm)*
G04 Created by KiCad (PCBNEW 10.0.0) date 2026-07-06 08:29:43*
%MOMM*%
%LPD*%
G01*
G04 APERTURE LIST*
%ADD10C,0.050000*%
%ADD11C,0.200000*%
%ADD12C,0.120000*%
%ADD13C,0.170000*%
%ADD14C,0.220000*%
%ADD15C,0.340000*%
G04 APERTURE END LIST*
D10*
X8490000Y-6377500D02*
G75*
G02*
X8690000Y-6177500I200000J0D01*
G01*
X8490000Y-11517500D02*
X8490000Y-6377500D01*
X8690000Y-6177500D02*
X17540000Y-6177500D01*
X8690000Y-11717500D02*
G75*
G02*
X8490000Y-11517500I0J200000D01*
G01*
X13710000Y-11717500D02*
X8690000Y-11717500D01*
X13710000Y-11717500D02*
G75*
G02*
X13910000Y-11917500I0J-200000D01*
G01*
X13910000Y-13237500D02*
X13910000Y-11917500D01*
X14110000Y-13437500D02*
G75*
G02*
X13910000Y-13237500I0J200000D01*
G01*
X17540000Y-6177500D02*
G75*
G02*
X17740000Y-6377500I0J-200000D01*
G01*
X17740000Y-7927500D02*
X17740000Y-6377500D01*
X17840000Y-8027500D02*
G75*
G02*
X17740000Y-7927500I0J100000D01*
G01*
X18000000Y-8027500D02*
X17840000Y-8027500D01*
X18000000Y-8027500D02*
X18000000Y-10007500D01*
X18100000Y-10107500D02*
G75*
G02*
X18000000Y-10007500I0J100000D01*
G01*
X19170000Y-10107500D02*
X18100000Y-10107500D01*
X19270000Y-8027500D02*
X19270000Y-10007500D01*
X19270000Y-8027500D02*
X19590000Y-8027500D01*
X19270000Y-10007500D02*
G75*
G02*
X19170000Y-10107500I-100000J0D01*
G01*
X19590000Y-8027500D02*
G75*
G02*
X19790000Y-8227500I0J-200000D01*
G01*
X19590000Y-13437500D02*
X14110000Y-13437500D01*
X19790000Y-8227500D02*
X19790000Y-13237500D01*
X19790000Y-13237500D02*
G75*
G02*
X19590000Y-13437500I-200000J0D01*
G01*
D11*
D12*
X18717000Y-10766220D02*
X18837000Y-10886220D01*
X18837000Y-10766220D02*
X18717000Y-10886220D01*
X18717000Y-10948780D02*
X18837000Y-11068780D01*
X18837000Y-10948780D02*
X18717000Y-11068780D01*
X19417000Y-10766220D02*
X19537000Y-10886220D01*
X19537000Y-10766220D02*
X19417000Y-10886220D01*
X19417000Y-10948780D02*
X19537000Y-11068780D01*
X19537000Y-10948780D02*
X19417000Y-11068780D01*
D13*
X9055000Y-7247500D02*
G75*
G02*
X8885000Y-7247500I-85000J0D01*
G01*
X8885000Y-7247500D02*
G75*
G02*
X9055000Y-7247500I85000J0D01*
G01*
X9055000Y-8947500D02*
G75*
G02*
X8885000Y-8947500I-85000J0D01*
G01*
X8885000Y-8947500D02*
G75*
G02*
X9055000Y-8947500I85000J0D01*
G01*
X9055000Y-10647500D02*
G75*
G02*
X8885000Y-10647500I-85000J0D01*
G01*
X8885000Y-10647500D02*
G75*
G02*
X9055000Y-10647500I85000J0D01*
G01*
X10155000Y-7247500D02*
G75*
G02*
X9985000Y-7247500I-85000J0D01*
G01*
X9985000Y-7247500D02*
G75*
G02*
X10155000Y-7247500I85000J0D01*
G01*
X10155000Y-8947500D02*
G75*
G02*
X9985000Y-8947500I-85000J0D01*
G01*
X9985000Y-8947500D02*
G75*
G02*
X10155000Y-8947500I85000J0D01*
G01*
X10155000Y-10647500D02*
G75*
G02*
X9985000Y-10647500I-85000J0D01*
G01*
X9985000Y-10647500D02*
G75*
G02*
X10155000Y-10647500I85000J0D01*
G01*
X10855000Y-7247500D02*
G75*
G02*
X10685000Y-7247500I-85000J0D01*
G01*
X10685000Y-7247500D02*
G75*
G02*
X10855000Y-7247500I85000J0D01*
G01*
X10855000Y-8947500D02*
G75*
G02*
X10685000Y-8947500I-85000J0D01*
G01*
X10685000Y-8947500D02*
G75*
G02*
X10855000Y-8947500I85000J0D01*
G01*
X10855000Y-10647500D02*
G75*
G02*
X10685000Y-10647500I-85000J0D01*
G01*
X10685000Y-10647500D02*
G75*
G02*
X10855000Y-10647500I85000J0D01*
G01*
X11955000Y-7247500D02*
G75*
G02*
X11785000Y-7247500I-85000J0D01*
G01*
X11785000Y-7247500D02*
G75*
G02*
X11955000Y-7247500I85000J0D01*
G01*
X11955000Y-8947500D02*
G75*
G02*
X11785000Y-8947500I-85000J0D01*
G01*
X11785000Y-8947500D02*
G75*
G02*
X11955000Y-8947500I85000J0D01*
G01*
X11955000Y-10647500D02*
G75*
G02*
X11785000Y-10647500I-85000J0D01*
G01*
X11785000Y-10647500D02*
G75*
G02*
X11955000Y-10647500I85000J0D01*
G01*
X12655000Y-7247500D02*
G75*
G02*
X12485000Y-7247500I-85000J0D01*
G01*
X12485000Y-7247500D02*
G75*
G02*
X12655000Y-7247500I85000J0D01*
G01*
X12655000Y-8947500D02*
G75*
G02*
X12485000Y-8947500I-85000J0D01*
G01*
X12485000Y-8947500D02*
G75*
G02*
X12655000Y-8947500I85000J0D01*
G01*
X12655000Y-10647500D02*
G75*
G02*
X12485000Y-10647500I-85000J0D01*
G01*
X12485000Y-10647500D02*
G75*
G02*
X12655000Y-10647500I85000J0D01*
G01*
X13755000Y-7247500D02*
G75*
G02*
X13585000Y-7247500I-85000J0D01*
G01*
X13585000Y-7247500D02*
G75*
G02*
X13755000Y-7247500I85000J0D01*
G01*
X13755000Y-8947500D02*
G75*
G02*
X13585000Y-8947500I-85000J0D01*
G01*
X13585000Y-8947500D02*
G75*
G02*
X13755000Y-8947500I85000J0D01*
G01*
X13755000Y-10647500D02*
G75*
G02*
X13585000Y-10647500I-85000J0D01*
G01*
X13585000Y-10647500D02*
G75*
G02*
X13755000Y-10647500I85000J0D01*
G01*
X14455000Y-7247500D02*
G75*
G02*
X14285000Y-7247500I-85000J0D01*
G01*
X14285000Y-7247500D02*
G75*
G02*
X14455000Y-7247500I85000J0D01*
G01*
X14455000Y-8947500D02*
G75*
G02*
X14285000Y-8947500I-85000J0D01*
G01*
X14285000Y-8947500D02*
G75*
G02*
X14455000Y-8947500I85000J0D01*
G01*
X14455000Y-10647500D02*
G75*
G02*
X14285000Y-10647500I-85000J0D01*
G01*
X14285000Y-10647500D02*
G75*
G02*
X14455000Y-10647500I85000J0D01*
G01*
X14455000Y-12347500D02*
G75*
G02*
X14285000Y-12347500I-85000J0D01*
G01*
X14285000Y-12347500D02*
G75*
G02*
X14455000Y-12347500I85000J0D01*
G01*
X15555000Y-7247500D02*
G75*
G02*
X15385000Y-7247500I-85000J0D01*
G01*
X15385000Y-7247500D02*
G75*
G02*
X15555000Y-7247500I85000J0D01*
G01*
X15555000Y-8947500D02*
G75*
G02*
X15385000Y-8947500I-85000J0D01*
G01*
X15385000Y-8947500D02*
G75*
G02*
X15555000Y-8947500I85000J0D01*
G01*
X15555000Y-10647500D02*
G75*
G02*
X15385000Y-10647500I-85000J0D01*
G01*
X15385000Y-10647500D02*
G75*
G02*
X15555000Y-10647500I85000J0D01*
G01*
X15555000Y-12347500D02*
G75*
G02*
X15385000Y-12347500I-85000J0D01*
G01*
X15385000Y-12347500D02*
G75*
G02*
X15555000Y-12347500I85000J0D01*
G01*
X16255000Y-7247500D02*
G75*
G02*
X16085000Y-7247500I-85000J0D01*
G01*
X16085000Y-7247500D02*
G75*
G02*
X16255000Y-7247500I85000J0D01*
G01*
X16255000Y-8947500D02*
G75*
G02*
X16085000Y-8947500I-85000J0D01*
G01*
X16085000Y-8947500D02*
G75*
G02*
X16255000Y-8947500I85000J0D01*
G01*
X16255000Y-10647500D02*
G75*
G02*
X16085000Y-10647500I-85000J0D01*
G01*
X16085000Y-10647500D02*
G75*
G02*
X16255000Y-10647500I85000J0D01*
G01*
X16255000Y-12347500D02*
G75*
G02*
X16085000Y-12347500I-85000J0D01*
G01*
X16085000Y-12347500D02*
G75*
G02*
X16255000Y-12347500I85000J0D01*
G01*
X17355000Y-7247500D02*
G75*
G02*
X17185000Y-7247500I-85000J0D01*
G01*
X17185000Y-7247500D02*
G75*
G02*
X17355000Y-7247500I85000J0D01*
G01*
X17355000Y-8947500D02*
G75*
G02*
X17185000Y-8947500I-85000J0D01*
G01*
X17185000Y-8947500D02*
G75*
G02*
X17355000Y-8947500I85000J0D01*
G01*
X17355000Y-10647500D02*
G75*
G02*
X17185000Y-10647500I-85000J0D01*
G01*
X17185000Y-10647500D02*
G75*
G02*
X17355000Y-10647500I85000J0D01*
G01*
X17355000Y-12347500D02*
G75*
G02*
X17185000Y-12347500I-85000J0D01*
G01*
X17185000Y-12347500D02*
G75*
G02*
X17355000Y-12347500I85000J0D01*
G01*
X18055000Y-12347500D02*
G75*
G02*
X17885000Y-12347500I-85000J0D01*
G01*
X17885000Y-12347500D02*
G75*
G02*
X18055000Y-12347500I85000J0D01*
G01*
X19155000Y-12347500D02*
G75*
G02*
X18985000Y-12347500I-85000J0D01*
G01*
X18985000Y-12347500D02*
G75*
G02*
X19155000Y-12347500I85000J0D01*
G01*
D14*
X10420000Y-7987500D02*
X10420000Y-8207500D01*
X10310000Y-8097500D02*
X10530000Y-8097500D01*
X10420000Y-9687500D02*
X10420000Y-9907500D01*
X10310000Y-9797500D02*
X10530000Y-9797500D01*
X14020000Y-9687500D02*
X14020000Y-9907500D01*
X13910000Y-9797500D02*
X14130000Y-9797500D01*
X15820000Y-7987500D02*
X15820000Y-8207500D01*
X15710000Y-8097500D02*
X15930000Y-8097500D01*
X15820000Y-11387500D02*
X15820000Y-11607500D01*
X15710000Y-11497500D02*
X15930000Y-11497500D01*
X17950000Y-10797500D02*
X17950000Y-11017500D01*
X17840000Y-10907500D02*
X18060000Y-10907500D01*
D15*
X9640209Y-7367709D02*
X9640209Y-7127291D01*
X9399791Y-7127291D01*
X9399791Y-7367709D01*
X9640209Y-7367709D01*
X9640209Y-9067709D02*
X9640209Y-8827291D01*
X9399791Y-8827291D01*
X9399791Y-9067709D01*
X9640209Y-9067709D01*
X9640209Y-10767709D02*
X9640209Y-10527291D01*
X9399791Y-10527291D01*
X9399791Y-10767709D01*
X9640209Y-10767709D01*
X11440209Y-7367709D02*
X11440209Y-7127291D01*
X11199791Y-7127291D01*
X11199791Y-7367709D01*
X11440209Y-7367709D01*
X11440209Y-9067709D02*
X11440209Y-8827291D01*
X11199791Y-8827291D01*
X11199791Y-9067709D01*
X11440209Y-9067709D01*
X11440209Y-10767709D02*
X11440209Y-10527291D01*
X11199791Y-10527291D01*
X11199791Y-10767709D01*
X11440209Y-10767709D01*
X13240209Y-7367709D02*
X13240209Y-7127291D01*
X12999791Y-7127291D01*
X12999791Y-7367709D01*
X13240209Y-7367709D01*
X13240209Y-9067709D02*
X13240209Y-8827291D01*
X12999791Y-8827291D01*
X12999791Y-9067709D01*
X13240209Y-9067709D01*
X13240209Y-10767709D02*
X13240209Y-10527291D01*
X12999791Y-10527291D01*
X12999791Y-10767709D01*
X13240209Y-10767709D01*
X15040209Y-7367709D02*
X15040209Y-7127291D01*
X14799791Y-7127291D01*
X14799791Y-7367709D01*
X15040209Y-7367709D01*
X15040209Y-9067709D02*
X15040209Y-8827291D01*
X14799791Y-8827291D01*
X14799791Y-9067709D01*
X15040209Y-9067709D01*
X15040209Y-10767709D02*
X15040209Y-10527291D01*
X14799791Y-10527291D01*
X14799791Y-10767709D01*
X15040209Y-10767709D01*
X15040209Y-12467709D02*
X15040209Y-12227291D01*
X14799791Y-12227291D01*
X14799791Y-12467709D01*
X15040209Y-12467709D01*
X16840209Y-7367709D02*
X16840209Y-7127291D01*
X16599791Y-7127291D01*
X16599791Y-7367709D01*
X16840209Y-7367709D01*
X16840209Y-9067709D02*
X16840209Y-8827291D01*
X16599791Y-8827291D01*
X16599791Y-9067709D01*
X16840209Y-9067709D01*
X16840209Y-10767709D02*
X16840209Y-10527291D01*
X16599791Y-10527291D01*
X16599791Y-10767709D01*
X16840209Y-10767709D01*
X16840209Y-12467709D02*
X16840209Y-12227291D01*
X16599791Y-12227291D01*
X16599791Y-12467709D01*
X16840209Y-12467709D01*
X18640209Y-12467709D02*
X18640209Y-12227291D01*
X18399791Y-12227291D01*
X18399791Y-12467709D01*
X18640209Y-12467709D01*
D11*
X8748277Y-13751484D02*
X8748277Y-13551484D01*
X8748277Y-13551484D02*
X8795896Y-13551484D01*
X8795896Y-13551484D02*
X8824467Y-13561008D01*
X8824467Y-13561008D02*
X8843515Y-13580055D01*
X8843515Y-13580055D02*
X8853039Y-13599103D01*
X8853039Y-13599103D02*
X8862563Y-13637198D01*
X8862563Y-13637198D02*
X8862563Y-13665769D01*
X8862563Y-13665769D02*
X8853039Y-13703865D01*
X8853039Y-13703865D02*
X8843515Y-13722912D01*
X8843515Y-13722912D02*
X8824467Y-13741960D01*
X8824467Y-13741960D02*
X8795896Y-13751484D01*
X8795896Y-13751484D02*
X8748277Y-13751484D01*
X8948277Y-13751484D02*
X8948277Y-13618150D01*
X8948277Y-13656246D02*
X8957801Y-13637198D01*
X8957801Y-13637198D02*
X8967324Y-13627674D01*
X8967324Y-13627674D02*
X8986372Y-13618150D01*
X8986372Y-13618150D02*
X9005420Y-13618150D01*
X9072086Y-13751484D02*
X9072086Y-13618150D01*
X9072086Y-13551484D02*
X9062563Y-13561008D01*
X9062563Y-13561008D02*
X9072086Y-13570531D01*
X9072086Y-13570531D02*
X9081610Y-13561008D01*
X9081610Y-13561008D02*
X9072086Y-13551484D01*
X9072086Y-13551484D02*
X9072086Y-13570531D01*
X9195896Y-13751484D02*
X9176848Y-13741960D01*
X9176848Y-13741960D02*
X9167324Y-13722912D01*
X9167324Y-13722912D02*
X9167324Y-13551484D01*
X9300658Y-13751484D02*
X9281610Y-13741960D01*
X9281610Y-13741960D02*
X9272086Y-13722912D01*
X9272086Y-13722912D02*
X9272086Y-13551484D01*
X9529229Y-13751484D02*
X9529229Y-13551484D01*
X9529229Y-13551484D02*
X9595896Y-13694341D01*
X9595896Y-13694341D02*
X9662563Y-13551484D01*
X9662563Y-13551484D02*
X9662563Y-13751484D01*
X9843515Y-13751484D02*
X9843515Y-13646722D01*
X9843515Y-13646722D02*
X9833991Y-13627674D01*
X9833991Y-13627674D02*
X9814944Y-13618150D01*
X9814944Y-13618150D02*
X9776848Y-13618150D01*
X9776848Y-13618150D02*
X9757801Y-13627674D01*
X9843515Y-13741960D02*
X9824467Y-13751484D01*
X9824467Y-13751484D02*
X9776848Y-13751484D01*
X9776848Y-13751484D02*
X9757801Y-13741960D01*
X9757801Y-13741960D02*
X9748277Y-13722912D01*
X9748277Y-13722912D02*
X9748277Y-13703865D01*
X9748277Y-13703865D02*
X9757801Y-13684817D01*
X9757801Y-13684817D02*
X9776848Y-13675293D01*
X9776848Y-13675293D02*
X9824467Y-13675293D01*
X9824467Y-13675293D02*
X9843515Y-13665769D01*
X9938753Y-13618150D02*
X9938753Y-13818150D01*
X9938753Y-13627674D02*
X9957801Y-13618150D01*
X9957801Y-13618150D02*
X9995896Y-13618150D01*
X9995896Y-13618150D02*
X10014944Y-13627674D01*
X10014944Y-13627674D02*
X10024467Y-13637198D01*
X10024467Y-13637198D02*
X10033991Y-13656246D01*
X10033991Y-13656246D02*
X10033991Y-13713388D01*
X10033991Y-13713388D02*
X10024467Y-13732436D01*
X10024467Y-13732436D02*
X10014944Y-13741960D01*
X10014944Y-13741960D02*
X9995896Y-13751484D01*
X9995896Y-13751484D02*
X9957801Y-13751484D01*
X9957801Y-13751484D02*
X9938753Y-13741960D01*
X10119705Y-13732436D02*
X10129229Y-13741960D01*
X10129229Y-13741960D02*
X10119705Y-13751484D01*
X10119705Y-13751484D02*
X10110182Y-13741960D01*
X10110182Y-13741960D02*
X10119705Y-13732436D01*
X10119705Y-13732436D02*
X10119705Y-13751484D01*
X10119705Y-13627674D02*
X10129229Y-13637198D01*
X10129229Y-13637198D02*
X10119705Y-13646722D01*
X10119705Y-13646722D02*
X10110182Y-13637198D01*
X10110182Y-13637198D02*
X10119705Y-13627674D01*
X10119705Y-13627674D02*
X10119705Y-13646722D01*
D12*
X8367500Y-14020000D02*
X8487500Y-14140000D01*
X8487500Y-14020000D02*
X8367500Y-14140000D01*
D11*
X8853039Y-14171484D02*
X8738753Y-14171484D01*
X8795896Y-14171484D02*
X8795896Y-13971484D01*
X8795896Y-13971484D02*
X8776848Y-14000055D01*
X8776848Y-14000055D02*
X8757801Y-14019103D01*
X8757801Y-14019103D02*
X8738753Y-14028627D01*
X8938753Y-14152436D02*
X8948277Y-14161960D01*
X8948277Y-14161960D02*
X8938753Y-14171484D01*
X8938753Y-14171484D02*
X8929229Y-14161960D01*
X8929229Y-14161960D02*
X8938753Y-14152436D01*
X8938753Y-14152436D02*
X8938753Y-14171484D01*
X9024467Y-13990531D02*
X9033991Y-13981008D01*
X9033991Y-13981008D02*
X9053039Y-13971484D01*
X9053039Y-13971484D02*
X9100658Y-13971484D01*
X9100658Y-13971484D02*
X9119705Y-13981008D01*
X9119705Y-13981008D02*
X9129229Y-13990531D01*
X9129229Y-13990531D02*
X9138753Y-14009579D01*
X9138753Y-14009579D02*
X9138753Y-14028627D01*
X9138753Y-14028627D02*
X9129229Y-14057198D01*
X9129229Y-14057198D02*
X9014944Y-14171484D01*
X9014944Y-14171484D02*
X9138753Y-14171484D01*
X9262563Y-13971484D02*
X9281610Y-13971484D01*
X9281610Y-13971484D02*
X9300658Y-13981008D01*
X9300658Y-13981008D02*
X9310182Y-13990531D01*
X9310182Y-13990531D02*
X9319705Y-14009579D01*
X9319705Y-14009579D02*
X9329229Y-14047674D01*
X9329229Y-14047674D02*
X9329229Y-14095293D01*
X9329229Y-14095293D02*
X9319705Y-14133388D01*
X9319705Y-14133388D02*
X9310182Y-14152436D01*
X9310182Y-14152436D02*
X9300658Y-14161960D01*
X9300658Y-14161960D02*
X9281610Y-14171484D01*
X9281610Y-14171484D02*
X9262563Y-14171484D01*
X9262563Y-14171484D02*
X9243515Y-14161960D01*
X9243515Y-14161960D02*
X9233991Y-14152436D01*
X9233991Y-14152436D02*
X9224467Y-14133388D01*
X9224467Y-14133388D02*
X9214944Y-14095293D01*
X9214944Y-14095293D02*
X9214944Y-14047674D01*
X9214944Y-14047674D02*
X9224467Y-14009579D01*
X9224467Y-14009579D02*
X9233991Y-13990531D01*
X9233991Y-13990531D02*
X9243515Y-13981008D01*
X9243515Y-13981008D02*
X9262563Y-13971484D01*
X9453039Y-13971484D02*
X9472086Y-13971484D01*
X9472086Y-13971484D02*
X9491134Y-13981008D01*
X9491134Y-13981008D02*
X9500658Y-13990531D01*
X9500658Y-13990531D02*
X9510182Y-14009579D01*
X9510182Y-14009579D02*
X9519705Y-14047674D01*
X9519705Y-14047674D02*
X9519705Y-14095293D01*
X9519705Y-14095293D02*
X9510182Y-14133388D01*
X9510182Y-14133388D02*
X9500658Y-14152436D01*
X9500658Y-14152436D02*
X9491134Y-14161960D01*
X9491134Y-14161960D02*
X9472086Y-14171484D01*
X9472086Y-14171484D02*
X9453039Y-14171484D01*
X9453039Y-14171484D02*
X9433991Y-14161960D01*
X9433991Y-14161960D02*
X9424467Y-14152436D01*
X9424467Y-14152436D02*
X9414944Y-14133388D01*
X9414944Y-14133388D02*
X9405420Y-14095293D01*
X9405420Y-14095293D02*
X9405420Y-14047674D01*
X9405420Y-14047674D02*
X9414944Y-14009579D01*
X9414944Y-14009579D02*
X9424467Y-13990531D01*
X9424467Y-13990531D02*
X9433991Y-13981008D01*
X9433991Y-13981008D02*
X9453039Y-13971484D01*
X9605420Y-14171484D02*
X9605420Y-14038150D01*
X9605420Y-14057198D02*
X9614944Y-14047674D01*
X9614944Y-14047674D02*
X9633991Y-14038150D01*
X9633991Y-14038150D02*
X9662563Y-14038150D01*
X9662563Y-14038150D02*
X9681610Y-14047674D01*
X9681610Y-14047674D02*
X9691134Y-14066722D01*
X9691134Y-14066722D02*
X9691134Y-14171484D01*
X9691134Y-14066722D02*
X9700658Y-14047674D01*
X9700658Y-14047674D02*
X9719705Y-14038150D01*
X9719705Y-14038150D02*
X9748277Y-14038150D01*
X9748277Y-14038150D02*
X9767325Y-14047674D01*
X9767325Y-14047674D02*
X9776848Y-14066722D01*
X9776848Y-14066722D02*
X9776848Y-14171484D01*
X9872086Y-14171484D02*
X9872086Y-14038150D01*
X9872086Y-14057198D02*
X9881610Y-14047674D01*
X9881610Y-14047674D02*
X9900658Y-14038150D01*
X9900658Y-14038150D02*
X9929229Y-14038150D01*
X9929229Y-14038150D02*
X9948277Y-14047674D01*
X9948277Y-14047674D02*
X9957801Y-14066722D01*
X9957801Y-14066722D02*
X9957801Y-14171484D01*
X9957801Y-14066722D02*
X9967325Y-14047674D01*
X9967325Y-14047674D02*
X9986372Y-14038150D01*
X9986372Y-14038150D02*
X10014944Y-14038150D01*
X10014944Y-14038150D02*
X10033991Y-14047674D01*
X10033991Y-14047674D02*
X10043515Y-14066722D01*
X10043515Y-14066722D02*
X10043515Y-14171484D01*
X10433991Y-13961960D02*
X10262563Y-14219103D01*
X10691134Y-13971484D02*
X10710182Y-13971484D01*
X10710182Y-13971484D02*
X10729229Y-13981008D01*
X10729229Y-13981008D02*
X10738753Y-13990531D01*
X10738753Y-13990531D02*
X10748277Y-14009579D01*
X10748277Y-14009579D02*
X10757801Y-14047674D01*
X10757801Y-14047674D02*
X10757801Y-14095293D01*
X10757801Y-14095293D02*
X10748277Y-14133388D01*
X10748277Y-14133388D02*
X10738753Y-14152436D01*
X10738753Y-14152436D02*
X10729229Y-14161960D01*
X10729229Y-14161960D02*
X10710182Y-14171484D01*
X10710182Y-14171484D02*
X10691134Y-14171484D01*
X10691134Y-14171484D02*
X10672087Y-14161960D01*
X10672087Y-14161960D02*
X10662563Y-14152436D01*
X10662563Y-14152436D02*
X10653039Y-14133388D01*
X10653039Y-14133388D02*
X10643515Y-14095293D01*
X10643515Y-14095293D02*
X10643515Y-14047674D01*
X10643515Y-14047674D02*
X10653039Y-14009579D01*
X10653039Y-14009579D02*
X10662563Y-13990531D01*
X10662563Y-13990531D02*
X10672087Y-13981008D01*
X10672087Y-13981008D02*
X10691134Y-13971484D01*
X10843515Y-14152436D02*
X10853039Y-14161960D01*
X10853039Y-14161960D02*
X10843515Y-14171484D01*
X10843515Y-14171484D02*
X10833991Y-14161960D01*
X10833991Y-14161960D02*
X10843515Y-14152436D01*
X10843515Y-14152436D02*
X10843515Y-14171484D01*
X10976848Y-13971484D02*
X10995896Y-13971484D01*
X10995896Y-13971484D02*
X11014944Y-13981008D01*
X11014944Y-13981008D02*
X11024468Y-13990531D01*
X11024468Y-13990531D02*
X11033991Y-14009579D01*
X11033991Y-14009579D02*
X11043515Y-14047674D01*
X11043515Y-14047674D02*
X11043515Y-14095293D01*
X11043515Y-14095293D02*
X11033991Y-14133388D01*
X11033991Y-14133388D02*
X11024468Y-14152436D01*
X11024468Y-14152436D02*
X11014944Y-14161960D01*
X11014944Y-14161960D02*
X10995896Y-14171484D01*
X10995896Y-14171484D02*
X10976848Y-14171484D01*
X10976848Y-14171484D02*
X10957801Y-14161960D01*
X10957801Y-14161960D02*
X10948277Y-14152436D01*
X10948277Y-14152436D02*
X10938753Y-14133388D01*
X10938753Y-14133388D02*
X10929229Y-14095293D01*
X10929229Y-14095293D02*
X10929229Y-14047674D01*
X10929229Y-14047674D02*
X10938753Y-14009579D01*
X10938753Y-14009579D02*
X10948277Y-13990531D01*
X10948277Y-13990531D02*
X10957801Y-13981008D01*
X10957801Y-13981008D02*
X10976848Y-13971484D01*
X11214944Y-14038150D02*
X11214944Y-14171484D01*
X11167325Y-13961960D02*
X11119706Y-14104817D01*
X11119706Y-14104817D02*
X11243515Y-14104817D01*
X11300658Y-13971484D02*
X11433991Y-13971484D01*
X11433991Y-13971484D02*
X11348277Y-14171484D01*
X11500658Y-13990531D02*
X11510182Y-13981008D01*
X11510182Y-13981008D02*
X11529229Y-13971484D01*
X11529229Y-13971484D02*
X11576848Y-13971484D01*
X11576848Y-13971484D02*
X11595896Y-13981008D01*
X11595896Y-13981008D02*
X11605420Y-13990531D01*
X11605420Y-13990531D02*
X11614944Y-14009579D01*
X11614944Y-14009579D02*
X11614944Y-14028627D01*
X11614944Y-14028627D02*
X11605420Y-14057198D01*
X11605420Y-14057198D02*
X11491134Y-14171484D01*
X11491134Y-14171484D02*
X11614944Y-14171484D01*
X11691134Y-13971484D02*
X11691134Y-14009579D01*
X11767325Y-13971484D02*
X11767325Y-14009579D01*
X12062563Y-14247674D02*
X12053039Y-14238150D01*
X12053039Y-14238150D02*
X12033991Y-14209579D01*
X12033991Y-14209579D02*
X12024468Y-14190531D01*
X12024468Y-14190531D02*
X12014944Y-14161960D01*
X12014944Y-14161960D02*
X12005420Y-14114341D01*
X12005420Y-14114341D02*
X12005420Y-14076246D01*
X12005420Y-14076246D02*
X12014944Y-14028627D01*
X12014944Y-14028627D02*
X12024468Y-14000055D01*
X12024468Y-14000055D02*
X12033991Y-13981008D01*
X12033991Y-13981008D02*
X12053039Y-13952436D01*
X12053039Y-13952436D02*
X12062563Y-13942912D01*
X12224468Y-14038150D02*
X12224468Y-14171484D01*
X12176848Y-13961960D02*
X12129229Y-14104817D01*
X12129229Y-14104817D02*
X12253039Y-14104817D01*
X12481610Y-14171484D02*
X12481610Y-13971484D01*
X12567325Y-14171484D02*
X12567325Y-14066722D01*
X12567325Y-14066722D02*
X12557801Y-14047674D01*
X12557801Y-14047674D02*
X12538753Y-14038150D01*
X12538753Y-14038150D02*
X12510182Y-14038150D01*
X12510182Y-14038150D02*
X12491134Y-14047674D01*
X12491134Y-14047674D02*
X12481610Y-14057198D01*
X12691134Y-14171484D02*
X12672087Y-14161960D01*
X12672087Y-14161960D02*
X12662563Y-14152436D01*
X12662563Y-14152436D02*
X12653039Y-14133388D01*
X12653039Y-14133388D02*
X12653039Y-14076246D01*
X12653039Y-14076246D02*
X12662563Y-14057198D01*
X12662563Y-14057198D02*
X12672087Y-14047674D01*
X12672087Y-14047674D02*
X12691134Y-14038150D01*
X12691134Y-14038150D02*
X12719706Y-14038150D01*
X12719706Y-14038150D02*
X12738753Y-14047674D01*
X12738753Y-14047674D02*
X12748277Y-14057198D01*
X12748277Y-14057198D02*
X12757801Y-14076246D01*
X12757801Y-14076246D02*
X12757801Y-14133388D01*
X12757801Y-14133388D02*
X12748277Y-14152436D01*
X12748277Y-14152436D02*
X12738753Y-14161960D01*
X12738753Y-14161960D02*
X12719706Y-14171484D01*
X12719706Y-14171484D02*
X12691134Y-14171484D01*
X12872087Y-14171484D02*
X12853039Y-14161960D01*
X12853039Y-14161960D02*
X12843515Y-14142912D01*
X12843515Y-14142912D02*
X12843515Y-13971484D01*
X13024468Y-14161960D02*
X13005420Y-14171484D01*
X13005420Y-14171484D02*
X12967325Y-14171484D01*
X12967325Y-14171484D02*
X12948277Y-14161960D01*
X12948277Y-14161960D02*
X12938753Y-14142912D01*
X12938753Y-14142912D02*
X12938753Y-14066722D01*
X12938753Y-14066722D02*
X12948277Y-14047674D01*
X12948277Y-14047674D02*
X12967325Y-14038150D01*
X12967325Y-14038150D02*
X13005420Y-14038150D01*
X13005420Y-14038150D02*
X13024468Y-14047674D01*
X13024468Y-14047674D02*
X13033991Y-14066722D01*
X13033991Y-14066722D02*
X13033991Y-14085769D01*
X13033991Y-14085769D02*
X12938753Y-14104817D01*
X13110182Y-14161960D02*
X13129230Y-14171484D01*
X13129230Y-14171484D02*
X13167325Y-14171484D01*
X13167325Y-14171484D02*
X13186372Y-14161960D01*
X13186372Y-14161960D02*
X13195896Y-14142912D01*
X13195896Y-14142912D02*
X13195896Y-14133388D01*
X13195896Y-14133388D02*
X13186372Y-14114341D01*
X13186372Y-14114341D02*
X13167325Y-14104817D01*
X13167325Y-14104817D02*
X13138753Y-14104817D01*
X13138753Y-14104817D02*
X13119706Y-14095293D01*
X13119706Y-14095293D02*
X13110182Y-14076246D01*
X13110182Y-14076246D02*
X13110182Y-14066722D01*
X13110182Y-14066722D02*
X13119706Y-14047674D01*
X13119706Y-14047674D02*
X13138753Y-14038150D01*
X13138753Y-14038150D02*
X13167325Y-14038150D01*
X13167325Y-14038150D02*
X13186372Y-14047674D01*
X13262563Y-14247674D02*
X13272087Y-14238150D01*
X13272087Y-14238150D02*
X13291134Y-14209579D01*
X13291134Y-14209579D02*
X13300658Y-14190531D01*
X13300658Y-14190531D02*
X13310182Y-14161960D01*
X13310182Y-14161960D02*
X13319706Y-14114341D01*
X13319706Y-14114341D02*
X13319706Y-14076246D01*
X13319706Y-14076246D02*
X13310182Y-14028627D01*
X13310182Y-14028627D02*
X13300658Y-14000055D01*
X13300658Y-14000055D02*
X13291134Y-13981008D01*
X13291134Y-13981008D02*
X13272087Y-13952436D01*
X13272087Y-13952436D02*
X13262563Y-13942912D01*
X13624468Y-14247674D02*
X13614944Y-14238150D01*
X13614944Y-14238150D02*
X13595896Y-14209579D01*
X13595896Y-14209579D02*
X13586372Y-14190531D01*
X13586372Y-14190531D02*
X13576849Y-14161960D01*
X13576849Y-14161960D02*
X13567325Y-14114341D01*
X13567325Y-14114341D02*
X13567325Y-14076246D01*
X13567325Y-14076246D02*
X13576849Y-14028627D01*
X13576849Y-14028627D02*
X13586372Y-14000055D01*
X13586372Y-14000055D02*
X13595896Y-13981008D01*
X13595896Y-13981008D02*
X13614944Y-13952436D01*
X13614944Y-13952436D02*
X13624468Y-13942912D01*
X13700658Y-14038150D02*
X13700658Y-14171484D01*
X13700658Y-14057198D02*
X13710182Y-14047674D01*
X13710182Y-14047674D02*
X13729230Y-14038150D01*
X13729230Y-14038150D02*
X13757801Y-14038150D01*
X13757801Y-14038150D02*
X13776849Y-14047674D01*
X13776849Y-14047674D02*
X13786372Y-14066722D01*
X13786372Y-14066722D02*
X13786372Y-14171484D01*
X13910182Y-14171484D02*
X13891134Y-14161960D01*
X13891134Y-14161960D02*
X13881611Y-14152436D01*
X13881611Y-14152436D02*
X13872087Y-14133388D01*
X13872087Y-14133388D02*
X13872087Y-14076246D01*
X13872087Y-14076246D02*
X13881611Y-14057198D01*
X13881611Y-14057198D02*
X13891134Y-14047674D01*
X13891134Y-14047674D02*
X13910182Y-14038150D01*
X13910182Y-14038150D02*
X13938753Y-14038150D01*
X13938753Y-14038150D02*
X13957801Y-14047674D01*
X13957801Y-14047674D02*
X13967325Y-14057198D01*
X13967325Y-14057198D02*
X13976849Y-14076246D01*
X13976849Y-14076246D02*
X13976849Y-14133388D01*
X13976849Y-14133388D02*
X13967325Y-14152436D01*
X13967325Y-14152436D02*
X13957801Y-14161960D01*
X13957801Y-14161960D02*
X13938753Y-14171484D01*
X13938753Y-14171484D02*
X13910182Y-14171484D01*
X14033992Y-14038150D02*
X14110182Y-14038150D01*
X14062563Y-13971484D02*
X14062563Y-14142912D01*
X14062563Y-14142912D02*
X14072087Y-14161960D01*
X14072087Y-14161960D02*
X14091134Y-14171484D01*
X14091134Y-14171484D02*
X14110182Y-14171484D01*
X14329230Y-14038150D02*
X14329230Y-14238150D01*
X14329230Y-14047674D02*
X14348277Y-14038150D01*
X14348277Y-14038150D02*
X14386373Y-14038150D01*
X14386373Y-14038150D02*
X14405420Y-14047674D01*
X14405420Y-14047674D02*
X14414944Y-14057198D01*
X14414944Y-14057198D02*
X14424468Y-14076246D01*
X14424468Y-14076246D02*
X14424468Y-14133388D01*
X14424468Y-14133388D02*
X14414944Y-14152436D01*
X14414944Y-14152436D02*
X14405420Y-14161960D01*
X14405420Y-14161960D02*
X14386373Y-14171484D01*
X14386373Y-14171484D02*
X14348277Y-14171484D01*
X14348277Y-14171484D02*
X14329230Y-14161960D01*
X14538753Y-14171484D02*
X14519706Y-14161960D01*
X14519706Y-14161960D02*
X14510182Y-14142912D01*
X14510182Y-14142912D02*
X14510182Y-13971484D01*
X14700658Y-14171484D02*
X14700658Y-14066722D01*
X14700658Y-14066722D02*
X14691134Y-14047674D01*
X14691134Y-14047674D02*
X14672087Y-14038150D01*
X14672087Y-14038150D02*
X14633992Y-14038150D01*
X14633992Y-14038150D02*
X14614944Y-14047674D01*
X14700658Y-14161960D02*
X14681611Y-14171484D01*
X14681611Y-14171484D02*
X14633992Y-14171484D01*
X14633992Y-14171484D02*
X14614944Y-14161960D01*
X14614944Y-14161960D02*
X14605420Y-14142912D01*
X14605420Y-14142912D02*
X14605420Y-14123865D01*
X14605420Y-14123865D02*
X14614944Y-14104817D01*
X14614944Y-14104817D02*
X14633992Y-14095293D01*
X14633992Y-14095293D02*
X14681611Y-14095293D01*
X14681611Y-14095293D02*
X14700658Y-14085769D01*
X14767325Y-14038150D02*
X14843515Y-14038150D01*
X14795896Y-13971484D02*
X14795896Y-14142912D01*
X14795896Y-14142912D02*
X14805420Y-14161960D01*
X14805420Y-14161960D02*
X14824468Y-14171484D01*
X14824468Y-14171484D02*
X14843515Y-14171484D01*
X14986373Y-14161960D02*
X14967325Y-14171484D01*
X14967325Y-14171484D02*
X14929230Y-14171484D01*
X14929230Y-14171484D02*
X14910182Y-14161960D01*
X14910182Y-14161960D02*
X14900658Y-14142912D01*
X14900658Y-14142912D02*
X14900658Y-14066722D01*
X14900658Y-14066722D02*
X14910182Y-14047674D01*
X14910182Y-14047674D02*
X14929230Y-14038150D01*
X14929230Y-14038150D02*
X14967325Y-14038150D01*
X14967325Y-14038150D02*
X14986373Y-14047674D01*
X14986373Y-14047674D02*
X14995896Y-14066722D01*
X14995896Y-14066722D02*
X14995896Y-14085769D01*
X14995896Y-14085769D02*
X14900658Y-14104817D01*
X15167325Y-14171484D02*
X15167325Y-13971484D01*
X15167325Y-14161960D02*
X15148277Y-14171484D01*
X15148277Y-14171484D02*
X15110182Y-14171484D01*
X15110182Y-14171484D02*
X15091134Y-14161960D01*
X15091134Y-14161960D02*
X15081611Y-14152436D01*
X15081611Y-14152436D02*
X15072087Y-14133388D01*
X15072087Y-14133388D02*
X15072087Y-14076246D01*
X15072087Y-14076246D02*
X15081611Y-14057198D01*
X15081611Y-14057198D02*
X15091134Y-14047674D01*
X15091134Y-14047674D02*
X15110182Y-14038150D01*
X15110182Y-14038150D02*
X15148277Y-14038150D01*
X15148277Y-14038150D02*
X15167325Y-14047674D01*
X15243515Y-14247674D02*
X15253039Y-14238150D01*
X15253039Y-14238150D02*
X15272087Y-14209579D01*
X15272087Y-14209579D02*
X15281611Y-14190531D01*
X15281611Y-14190531D02*
X15291134Y-14161960D01*
X15291134Y-14161960D02*
X15300658Y-14114341D01*
X15300658Y-14114341D02*
X15300658Y-14076246D01*
X15300658Y-14076246D02*
X15291134Y-14028627D01*
X15291134Y-14028627D02*
X15281611Y-14000055D01*
X15281611Y-14000055D02*
X15272087Y-13981008D01*
X15272087Y-13981008D02*
X15253039Y-13952436D01*
X15253039Y-13952436D02*
X15243515Y-13942912D01*
D13*
X8487500Y-14344000D02*
G75*
G02*
X8317500Y-14344000I-85000J0D01*
G01*
X8317500Y-14344000D02*
G75*
G02*
X8487500Y-14344000I85000J0D01*
G01*
D11*
X8853039Y-14435484D02*
X8738753Y-14435484D01*
X8795896Y-14435484D02*
X8795896Y-14235484D01*
X8795896Y-14235484D02*
X8776848Y-14264055D01*
X8776848Y-14264055D02*
X8757801Y-14283103D01*
X8757801Y-14283103D02*
X8738753Y-14292627D01*
X8938753Y-14416436D02*
X8948277Y-14425960D01*
X8948277Y-14425960D02*
X8938753Y-14435484D01*
X8938753Y-14435484D02*
X8929229Y-14425960D01*
X8929229Y-14425960D02*
X8938753Y-14416436D01*
X8938753Y-14416436D02*
X8938753Y-14435484D01*
X9014944Y-14235484D02*
X9148277Y-14235484D01*
X9148277Y-14235484D02*
X9062563Y-14435484D01*
X9262563Y-14235484D02*
X9281610Y-14235484D01*
X9281610Y-14235484D02*
X9300658Y-14245008D01*
X9300658Y-14245008D02*
X9310182Y-14254531D01*
X9310182Y-14254531D02*
X9319705Y-14273579D01*
X9319705Y-14273579D02*
X9329229Y-14311674D01*
X9329229Y-14311674D02*
X9329229Y-14359293D01*
X9329229Y-14359293D02*
X9319705Y-14397388D01*
X9319705Y-14397388D02*
X9310182Y-14416436D01*
X9310182Y-14416436D02*
X9300658Y-14425960D01*
X9300658Y-14425960D02*
X9281610Y-14435484D01*
X9281610Y-14435484D02*
X9262563Y-14435484D01*
X9262563Y-14435484D02*
X9243515Y-14425960D01*
X9243515Y-14425960D02*
X9233991Y-14416436D01*
X9233991Y-14416436D02*
X9224467Y-14397388D01*
X9224467Y-14397388D02*
X9214944Y-14359293D01*
X9214944Y-14359293D02*
X9214944Y-14311674D01*
X9214944Y-14311674D02*
X9224467Y-14273579D01*
X9224467Y-14273579D02*
X9233991Y-14254531D01*
X9233991Y-14254531D02*
X9243515Y-14245008D01*
X9243515Y-14245008D02*
X9262563Y-14235484D01*
X9453039Y-14235484D02*
X9472086Y-14235484D01*
X9472086Y-14235484D02*
X9491134Y-14245008D01*
X9491134Y-14245008D02*
X9500658Y-14254531D01*
X9500658Y-14254531D02*
X9510182Y-14273579D01*
X9510182Y-14273579D02*
X9519705Y-14311674D01*
X9519705Y-14311674D02*
X9519705Y-14359293D01*
X9519705Y-14359293D02*
X9510182Y-14397388D01*
X9510182Y-14397388D02*
X9500658Y-14416436D01*
X9500658Y-14416436D02*
X9491134Y-14425960D01*
X9491134Y-14425960D02*
X9472086Y-14435484D01*
X9472086Y-14435484D02*
X9453039Y-14435484D01*
X9453039Y-14435484D02*
X9433991Y-14425960D01*
X9433991Y-14425960D02*
X9424467Y-14416436D01*
X9424467Y-14416436D02*
X9414944Y-14397388D01*
X9414944Y-14397388D02*
X9405420Y-14359293D01*
X9405420Y-14359293D02*
X9405420Y-14311674D01*
X9405420Y-14311674D02*
X9414944Y-14273579D01*
X9414944Y-14273579D02*
X9424467Y-14254531D01*
X9424467Y-14254531D02*
X9433991Y-14245008D01*
X9433991Y-14245008D02*
X9453039Y-14235484D01*
X9605420Y-14435484D02*
X9605420Y-14302150D01*
X9605420Y-14321198D02*
X9614944Y-14311674D01*
X9614944Y-14311674D02*
X9633991Y-14302150D01*
X9633991Y-14302150D02*
X9662563Y-14302150D01*
X9662563Y-14302150D02*
X9681610Y-14311674D01*
X9681610Y-14311674D02*
X9691134Y-14330722D01*
X9691134Y-14330722D02*
X9691134Y-14435484D01*
X9691134Y-14330722D02*
X9700658Y-14311674D01*
X9700658Y-14311674D02*
X9719705Y-14302150D01*
X9719705Y-14302150D02*
X9748277Y-14302150D01*
X9748277Y-14302150D02*
X9767325Y-14311674D01*
X9767325Y-14311674D02*
X9776848Y-14330722D01*
X9776848Y-14330722D02*
X9776848Y-14435484D01*
X9872086Y-14435484D02*
X9872086Y-14302150D01*
X9872086Y-14321198D02*
X9881610Y-14311674D01*
X9881610Y-14311674D02*
X9900658Y-14302150D01*
X9900658Y-14302150D02*
X9929229Y-14302150D01*
X9929229Y-14302150D02*
X9948277Y-14311674D01*
X9948277Y-14311674D02*
X9957801Y-14330722D01*
X9957801Y-14330722D02*
X9957801Y-14435484D01*
X9957801Y-14330722D02*
X9967325Y-14311674D01*
X9967325Y-14311674D02*
X9986372Y-14302150D01*
X9986372Y-14302150D02*
X10014944Y-14302150D01*
X10014944Y-14302150D02*
X10033991Y-14311674D01*
X10033991Y-14311674D02*
X10043515Y-14330722D01*
X10043515Y-14330722D02*
X10043515Y-14435484D01*
X10433991Y-14225960D02*
X10262563Y-14483103D01*
X10691134Y-14235484D02*
X10710182Y-14235484D01*
X10710182Y-14235484D02*
X10729229Y-14245008D01*
X10729229Y-14245008D02*
X10738753Y-14254531D01*
X10738753Y-14254531D02*
X10748277Y-14273579D01*
X10748277Y-14273579D02*
X10757801Y-14311674D01*
X10757801Y-14311674D02*
X10757801Y-14359293D01*
X10757801Y-14359293D02*
X10748277Y-14397388D01*
X10748277Y-14397388D02*
X10738753Y-14416436D01*
X10738753Y-14416436D02*
X10729229Y-14425960D01*
X10729229Y-14425960D02*
X10710182Y-14435484D01*
X10710182Y-14435484D02*
X10691134Y-14435484D01*
X10691134Y-14435484D02*
X10672087Y-14425960D01*
X10672087Y-14425960D02*
X10662563Y-14416436D01*
X10662563Y-14416436D02*
X10653039Y-14397388D01*
X10653039Y-14397388D02*
X10643515Y-14359293D01*
X10643515Y-14359293D02*
X10643515Y-14311674D01*
X10643515Y-14311674D02*
X10653039Y-14273579D01*
X10653039Y-14273579D02*
X10662563Y-14254531D01*
X10662563Y-14254531D02*
X10672087Y-14245008D01*
X10672087Y-14245008D02*
X10691134Y-14235484D01*
X10843515Y-14416436D02*
X10853039Y-14425960D01*
X10853039Y-14425960D02*
X10843515Y-14435484D01*
X10843515Y-14435484D02*
X10833991Y-14425960D01*
X10833991Y-14425960D02*
X10843515Y-14416436D01*
X10843515Y-14416436D02*
X10843515Y-14435484D01*
X10976848Y-14235484D02*
X10995896Y-14235484D01*
X10995896Y-14235484D02*
X11014944Y-14245008D01*
X11014944Y-14245008D02*
X11024468Y-14254531D01*
X11024468Y-14254531D02*
X11033991Y-14273579D01*
X11033991Y-14273579D02*
X11043515Y-14311674D01*
X11043515Y-14311674D02*
X11043515Y-14359293D01*
X11043515Y-14359293D02*
X11033991Y-14397388D01*
X11033991Y-14397388D02*
X11024468Y-14416436D01*
X11024468Y-14416436D02*
X11014944Y-14425960D01*
X11014944Y-14425960D02*
X10995896Y-14435484D01*
X10995896Y-14435484D02*
X10976848Y-14435484D01*
X10976848Y-14435484D02*
X10957801Y-14425960D01*
X10957801Y-14425960D02*
X10948277Y-14416436D01*
X10948277Y-14416436D02*
X10938753Y-14397388D01*
X10938753Y-14397388D02*
X10929229Y-14359293D01*
X10929229Y-14359293D02*
X10929229Y-14311674D01*
X10929229Y-14311674D02*
X10938753Y-14273579D01*
X10938753Y-14273579D02*
X10948277Y-14254531D01*
X10948277Y-14254531D02*
X10957801Y-14245008D01*
X10957801Y-14245008D02*
X10976848Y-14235484D01*
X11214944Y-14235484D02*
X11176848Y-14235484D01*
X11176848Y-14235484D02*
X11157801Y-14245008D01*
X11157801Y-14245008D02*
X11148277Y-14254531D01*
X11148277Y-14254531D02*
X11129229Y-14283103D01*
X11129229Y-14283103D02*
X11119706Y-14321198D01*
X11119706Y-14321198D02*
X11119706Y-14397388D01*
X11119706Y-14397388D02*
X11129229Y-14416436D01*
X11129229Y-14416436D02*
X11138753Y-14425960D01*
X11138753Y-14425960D02*
X11157801Y-14435484D01*
X11157801Y-14435484D02*
X11195896Y-14435484D01*
X11195896Y-14435484D02*
X11214944Y-14425960D01*
X11214944Y-14425960D02*
X11224467Y-14416436D01*
X11224467Y-14416436D02*
X11233991Y-14397388D01*
X11233991Y-14397388D02*
X11233991Y-14349769D01*
X11233991Y-14349769D02*
X11224467Y-14330722D01*
X11224467Y-14330722D02*
X11214944Y-14321198D01*
X11214944Y-14321198D02*
X11195896Y-14311674D01*
X11195896Y-14311674D02*
X11157801Y-14311674D01*
X11157801Y-14311674D02*
X11138753Y-14321198D01*
X11138753Y-14321198D02*
X11129229Y-14330722D01*
X11129229Y-14330722D02*
X11119706Y-14349769D01*
X11405420Y-14235484D02*
X11367325Y-14235484D01*
X11367325Y-14235484D02*
X11348277Y-14245008D01*
X11348277Y-14245008D02*
X11338753Y-14254531D01*
X11338753Y-14254531D02*
X11319706Y-14283103D01*
X11319706Y-14283103D02*
X11310182Y-14321198D01*
X11310182Y-14321198D02*
X11310182Y-14397388D01*
X11310182Y-14397388D02*
X11319706Y-14416436D01*
X11319706Y-14416436D02*
X11329229Y-14425960D01*
X11329229Y-14425960D02*
X11348277Y-14435484D01*
X11348277Y-14435484D02*
X11386372Y-14435484D01*
X11386372Y-14435484D02*
X11405420Y-14425960D01*
X11405420Y-14425960D02*
X11414944Y-14416436D01*
X11414944Y-14416436D02*
X11424467Y-14397388D01*
X11424467Y-14397388D02*
X11424467Y-14349769D01*
X11424467Y-14349769D02*
X11414944Y-14330722D01*
X11414944Y-14330722D02*
X11405420Y-14321198D01*
X11405420Y-14321198D02*
X11386372Y-14311674D01*
X11386372Y-14311674D02*
X11348277Y-14311674D01*
X11348277Y-14311674D02*
X11329229Y-14321198D01*
X11329229Y-14321198D02*
X11319706Y-14330722D01*
X11319706Y-14330722D02*
X11310182Y-14349769D01*
X11519706Y-14435484D02*
X11557801Y-14435484D01*
X11557801Y-14435484D02*
X11576848Y-14425960D01*
X11576848Y-14425960D02*
X11586372Y-14416436D01*
X11586372Y-14416436D02*
X11605420Y-14387865D01*
X11605420Y-14387865D02*
X11614944Y-14349769D01*
X11614944Y-14349769D02*
X11614944Y-14273579D01*
X11614944Y-14273579D02*
X11605420Y-14254531D01*
X11605420Y-14254531D02*
X11595896Y-14245008D01*
X11595896Y-14245008D02*
X11576848Y-14235484D01*
X11576848Y-14235484D02*
X11538753Y-14235484D01*
X11538753Y-14235484D02*
X11519706Y-14245008D01*
X11519706Y-14245008D02*
X11510182Y-14254531D01*
X11510182Y-14254531D02*
X11500658Y-14273579D01*
X11500658Y-14273579D02*
X11500658Y-14321198D01*
X11500658Y-14321198D02*
X11510182Y-14340246D01*
X11510182Y-14340246D02*
X11519706Y-14349769D01*
X11519706Y-14349769D02*
X11538753Y-14359293D01*
X11538753Y-14359293D02*
X11576848Y-14359293D01*
X11576848Y-14359293D02*
X11595896Y-14349769D01*
X11595896Y-14349769D02*
X11605420Y-14340246D01*
X11605420Y-14340246D02*
X11614944Y-14321198D01*
X11691134Y-14235484D02*
X11691134Y-14273579D01*
X11767325Y-14235484D02*
X11767325Y-14273579D01*
X12062563Y-14511674D02*
X12053039Y-14502150D01*
X12053039Y-14502150D02*
X12033991Y-14473579D01*
X12033991Y-14473579D02*
X12024468Y-14454531D01*
X12024468Y-14454531D02*
X12014944Y-14425960D01*
X12014944Y-14425960D02*
X12005420Y-14378341D01*
X12005420Y-14378341D02*
X12005420Y-14340246D01*
X12005420Y-14340246D02*
X12014944Y-14292627D01*
X12014944Y-14292627D02*
X12024468Y-14264055D01*
X12024468Y-14264055D02*
X12033991Y-14245008D01*
X12033991Y-14245008D02*
X12053039Y-14216436D01*
X12053039Y-14216436D02*
X12062563Y-14206912D01*
X12119706Y-14235484D02*
X12243515Y-14235484D01*
X12243515Y-14235484D02*
X12176848Y-14311674D01*
X12176848Y-14311674D02*
X12205420Y-14311674D01*
X12205420Y-14311674D02*
X12224468Y-14321198D01*
X12224468Y-14321198D02*
X12233991Y-14330722D01*
X12233991Y-14330722D02*
X12243515Y-14349769D01*
X12243515Y-14349769D02*
X12243515Y-14397388D01*
X12243515Y-14397388D02*
X12233991Y-14416436D01*
X12233991Y-14416436D02*
X12224468Y-14425960D01*
X12224468Y-14425960D02*
X12205420Y-14435484D01*
X12205420Y-14435484D02*
X12148277Y-14435484D01*
X12148277Y-14435484D02*
X12129229Y-14425960D01*
X12129229Y-14425960D02*
X12119706Y-14416436D01*
X12414944Y-14235484D02*
X12376848Y-14235484D01*
X12376848Y-14235484D02*
X12357801Y-14245008D01*
X12357801Y-14245008D02*
X12348277Y-14254531D01*
X12348277Y-14254531D02*
X12329229Y-14283103D01*
X12329229Y-14283103D02*
X12319706Y-14321198D01*
X12319706Y-14321198D02*
X12319706Y-14397388D01*
X12319706Y-14397388D02*
X12329229Y-14416436D01*
X12329229Y-14416436D02*
X12338753Y-14425960D01*
X12338753Y-14425960D02*
X12357801Y-14435484D01*
X12357801Y-14435484D02*
X12395896Y-14435484D01*
X12395896Y-14435484D02*
X12414944Y-14425960D01*
X12414944Y-14425960D02*
X12424468Y-14416436D01*
X12424468Y-14416436D02*
X12433991Y-14397388D01*
X12433991Y-14397388D02*
X12433991Y-14349769D01*
X12433991Y-14349769D02*
X12424468Y-14330722D01*
X12424468Y-14330722D02*
X12414944Y-14321198D01*
X12414944Y-14321198D02*
X12395896Y-14311674D01*
X12395896Y-14311674D02*
X12357801Y-14311674D01*
X12357801Y-14311674D02*
X12338753Y-14321198D01*
X12338753Y-14321198D02*
X12329229Y-14330722D01*
X12329229Y-14330722D02*
X12319706Y-14349769D01*
X12672087Y-14435484D02*
X12672087Y-14235484D01*
X12757801Y-14435484D02*
X12757801Y-14330722D01*
X12757801Y-14330722D02*
X12748277Y-14311674D01*
X12748277Y-14311674D02*
X12729230Y-14302150D01*
X12729230Y-14302150D02*
X12700658Y-14302150D01*
X12700658Y-14302150D02*
X12681610Y-14311674D01*
X12681610Y-14311674D02*
X12672087Y-14321198D01*
X12881610Y-14435484D02*
X12862563Y-14425960D01*
X12862563Y-14425960D02*
X12853039Y-14416436D01*
X12853039Y-14416436D02*
X12843515Y-14397388D01*
X12843515Y-14397388D02*
X12843515Y-14340246D01*
X12843515Y-14340246D02*
X12853039Y-14321198D01*
X12853039Y-14321198D02*
X12862563Y-14311674D01*
X12862563Y-14311674D02*
X12881610Y-14302150D01*
X12881610Y-14302150D02*
X12910182Y-14302150D01*
X12910182Y-14302150D02*
X12929230Y-14311674D01*
X12929230Y-14311674D02*
X12938753Y-14321198D01*
X12938753Y-14321198D02*
X12948277Y-14340246D01*
X12948277Y-14340246D02*
X12948277Y-14397388D01*
X12948277Y-14397388D02*
X12938753Y-14416436D01*
X12938753Y-14416436D02*
X12929230Y-14425960D01*
X12929230Y-14425960D02*
X12910182Y-14435484D01*
X12910182Y-14435484D02*
X12881610Y-14435484D01*
X13062563Y-14435484D02*
X13043515Y-14425960D01*
X13043515Y-14425960D02*
X13033991Y-14406912D01*
X13033991Y-14406912D02*
X13033991Y-14235484D01*
X13214944Y-14425960D02*
X13195896Y-14435484D01*
X13195896Y-14435484D02*
X13157801Y-14435484D01*
X13157801Y-14435484D02*
X13138753Y-14425960D01*
X13138753Y-14425960D02*
X13129230Y-14406912D01*
X13129230Y-14406912D02*
X13129230Y-14330722D01*
X13129230Y-14330722D02*
X13138753Y-14311674D01*
X13138753Y-14311674D02*
X13157801Y-14302150D01*
X13157801Y-14302150D02*
X13195896Y-14302150D01*
X13195896Y-14302150D02*
X13214944Y-14311674D01*
X13214944Y-14311674D02*
X13224468Y-14330722D01*
X13224468Y-14330722D02*
X13224468Y-14349769D01*
X13224468Y-14349769D02*
X13129230Y-14368817D01*
X13300658Y-14425960D02*
X13319706Y-14435484D01*
X13319706Y-14435484D02*
X13357801Y-14435484D01*
X13357801Y-14435484D02*
X13376849Y-14425960D01*
X13376849Y-14425960D02*
X13386372Y-14406912D01*
X13386372Y-14406912D02*
X13386372Y-14397388D01*
X13386372Y-14397388D02*
X13376849Y-14378341D01*
X13376849Y-14378341D02*
X13357801Y-14368817D01*
X13357801Y-14368817D02*
X13329230Y-14368817D01*
X13329230Y-14368817D02*
X13310182Y-14359293D01*
X13310182Y-14359293D02*
X13300658Y-14340246D01*
X13300658Y-14340246D02*
X13300658Y-14330722D01*
X13300658Y-14330722D02*
X13310182Y-14311674D01*
X13310182Y-14311674D02*
X13329230Y-14302150D01*
X13329230Y-14302150D02*
X13357801Y-14302150D01*
X13357801Y-14302150D02*
X13376849Y-14311674D01*
X13453039Y-14511674D02*
X13462563Y-14502150D01*
X13462563Y-14502150D02*
X13481611Y-14473579D01*
X13481611Y-14473579D02*
X13491134Y-14454531D01*
X13491134Y-14454531D02*
X13500658Y-14425960D01*
X13500658Y-14425960D02*
X13510182Y-14378341D01*
X13510182Y-14378341D02*
X13510182Y-14340246D01*
X13510182Y-14340246D02*
X13500658Y-14292627D01*
X13500658Y-14292627D02*
X13491134Y-14264055D01*
X13491134Y-14264055D02*
X13481611Y-14245008D01*
X13481611Y-14245008D02*
X13462563Y-14216436D01*
X13462563Y-14216436D02*
X13453039Y-14206912D01*
X13814944Y-14511674D02*
X13805420Y-14502150D01*
X13805420Y-14502150D02*
X13786372Y-14473579D01*
X13786372Y-14473579D02*
X13776849Y-14454531D01*
X13776849Y-14454531D02*
X13767325Y-14425960D01*
X13767325Y-14425960D02*
X13757801Y-14378341D01*
X13757801Y-14378341D02*
X13757801Y-14340246D01*
X13757801Y-14340246D02*
X13767325Y-14292627D01*
X13767325Y-14292627D02*
X13776849Y-14264055D01*
X13776849Y-14264055D02*
X13786372Y-14245008D01*
X13786372Y-14245008D02*
X13805420Y-14216436D01*
X13805420Y-14216436D02*
X13814944Y-14206912D01*
X13891134Y-14302150D02*
X13891134Y-14435484D01*
X13891134Y-14321198D02*
X13900658Y-14311674D01*
X13900658Y-14311674D02*
X13919706Y-14302150D01*
X13919706Y-14302150D02*
X13948277Y-14302150D01*
X13948277Y-14302150D02*
X13967325Y-14311674D01*
X13967325Y-14311674D02*
X13976849Y-14330722D01*
X13976849Y-14330722D02*
X13976849Y-14435484D01*
X14100658Y-14435484D02*
X14081611Y-14425960D01*
X14081611Y-14425960D02*
X14072087Y-14416436D01*
X14072087Y-14416436D02*
X14062563Y-14397388D01*
X14062563Y-14397388D02*
X14062563Y-14340246D01*
X14062563Y-14340246D02*
X14072087Y-14321198D01*
X14072087Y-14321198D02*
X14081611Y-14311674D01*
X14081611Y-14311674D02*
X14100658Y-14302150D01*
X14100658Y-14302150D02*
X14129230Y-14302150D01*
X14129230Y-14302150D02*
X14148277Y-14311674D01*
X14148277Y-14311674D02*
X14157801Y-14321198D01*
X14157801Y-14321198D02*
X14167325Y-14340246D01*
X14167325Y-14340246D02*
X14167325Y-14397388D01*
X14167325Y-14397388D02*
X14157801Y-14416436D01*
X14157801Y-14416436D02*
X14148277Y-14425960D01*
X14148277Y-14425960D02*
X14129230Y-14435484D01*
X14129230Y-14435484D02*
X14100658Y-14435484D01*
X14224468Y-14302150D02*
X14300658Y-14302150D01*
X14253039Y-14235484D02*
X14253039Y-14406912D01*
X14253039Y-14406912D02*
X14262563Y-14425960D01*
X14262563Y-14425960D02*
X14281611Y-14435484D01*
X14281611Y-14435484D02*
X14300658Y-14435484D01*
X14519706Y-14302150D02*
X14519706Y-14502150D01*
X14519706Y-14311674D02*
X14538753Y-14302150D01*
X14538753Y-14302150D02*
X14576849Y-14302150D01*
X14576849Y-14302150D02*
X14595896Y-14311674D01*
X14595896Y-14311674D02*
X14605420Y-14321198D01*
X14605420Y-14321198D02*
X14614944Y-14340246D01*
X14614944Y-14340246D02*
X14614944Y-14397388D01*
X14614944Y-14397388D02*
X14605420Y-14416436D01*
X14605420Y-14416436D02*
X14595896Y-14425960D01*
X14595896Y-14425960D02*
X14576849Y-14435484D01*
X14576849Y-14435484D02*
X14538753Y-14435484D01*
X14538753Y-14435484D02*
X14519706Y-14425960D01*
X14729230Y-14435484D02*
X14710182Y-14425960D01*
X14710182Y-14425960D02*
X14700658Y-14406912D01*
X14700658Y-14406912D02*
X14700658Y-14235484D01*
X14891134Y-14435484D02*
X14891134Y-14330722D01*
X14891134Y-14330722D02*
X14881611Y-14311674D01*
X14881611Y-14311674D02*
X14862563Y-14302150D01*
X14862563Y-14302150D02*
X14824468Y-14302150D01*
X14824468Y-14302150D02*
X14805420Y-14311674D01*
X14891134Y-14425960D02*
X14872087Y-14435484D01*
X14872087Y-14435484D02*
X14824468Y-14435484D01*
X14824468Y-14435484D02*
X14805420Y-14425960D01*
X14805420Y-14425960D02*
X14795896Y-14406912D01*
X14795896Y-14406912D02*
X14795896Y-14387865D01*
X14795896Y-14387865D02*
X14805420Y-14368817D01*
X14805420Y-14368817D02*
X14824468Y-14359293D01*
X14824468Y-14359293D02*
X14872087Y-14359293D01*
X14872087Y-14359293D02*
X14891134Y-14349769D01*
X14957801Y-14302150D02*
X15033992Y-14302150D01*
X14986373Y-14235484D02*
X14986373Y-14406912D01*
X14986373Y-14406912D02*
X14995896Y-14425960D01*
X14995896Y-14425960D02*
X15014944Y-14435484D01*
X15014944Y-14435484D02*
X15033992Y-14435484D01*
X15176849Y-14425960D02*
X15157801Y-14435484D01*
X15157801Y-14435484D02*
X15119706Y-14435484D01*
X15119706Y-14435484D02*
X15100658Y-14425960D01*
X15100658Y-14425960D02*
X15091134Y-14406912D01*
X15091134Y-14406912D02*
X15091134Y-14330722D01*
X15091134Y-14330722D02*
X15100658Y-14311674D01*
X15100658Y-14311674D02*
X15119706Y-14302150D01*
X15119706Y-14302150D02*
X15157801Y-14302150D01*
X15157801Y-14302150D02*
X15176849Y-14311674D01*
X15176849Y-14311674D02*
X15186373Y-14330722D01*
X15186373Y-14330722D02*
X15186373Y-14349769D01*
X15186373Y-14349769D02*
X15091134Y-14368817D01*
X15357801Y-14435484D02*
X15357801Y-14235484D01*
X15357801Y-14425960D02*
X15338754Y-14435484D01*
X15338754Y-14435484D02*
X15300658Y-14435484D01*
X15300658Y-14435484D02*
X15281611Y-14425960D01*
X15281611Y-14425960D02*
X15272087Y-14416436D01*
X15272087Y-14416436D02*
X15262563Y-14397388D01*
X15262563Y-14397388D02*
X15262563Y-14340246D01*
X15262563Y-14340246D02*
X15272087Y-14321198D01*
X15272087Y-14321198D02*
X15281611Y-14311674D01*
X15281611Y-14311674D02*
X15300658Y-14302150D01*
X15300658Y-14302150D02*
X15338754Y-14302150D01*
X15338754Y-14302150D02*
X15357801Y-14311674D01*
X15433992Y-14511674D02*
X15443515Y-14502150D01*
X15443515Y-14502150D02*
X15462563Y-14473579D01*
X15462563Y-14473579D02*
X15472087Y-14454531D01*
X15472087Y-14454531D02*
X15481611Y-14425960D01*
X15481611Y-14425960D02*
X15491134Y-14378341D01*
X15491134Y-14378341D02*
X15491134Y-14340246D01*
X15491134Y-14340246D02*
X15481611Y-14292627D01*
X15481611Y-14292627D02*
X15472087Y-14264055D01*
X15472087Y-14264055D02*
X15462563Y-14245008D01*
X15462563Y-14245008D02*
X15443515Y-14216436D01*
X15443515Y-14216436D02*
X15433992Y-14206912D01*
X8387500Y-14534000D02*
X8387500Y-14734000D01*
X8287500Y-14634000D02*
X8487500Y-14634000D01*
X8738753Y-14544531D02*
X8748277Y-14535008D01*
X8748277Y-14535008D02*
X8767324Y-14525484D01*
X8767324Y-14525484D02*
X8814944Y-14525484D01*
X8814944Y-14525484D02*
X8833991Y-14535008D01*
X8833991Y-14535008D02*
X8843515Y-14544531D01*
X8843515Y-14544531D02*
X8853039Y-14563579D01*
X8853039Y-14563579D02*
X8853039Y-14582627D01*
X8853039Y-14582627D02*
X8843515Y-14611198D01*
X8843515Y-14611198D02*
X8729229Y-14725484D01*
X8729229Y-14725484D02*
X8853039Y-14725484D01*
X8938753Y-14706436D02*
X8948277Y-14715960D01*
X8948277Y-14715960D02*
X8938753Y-14725484D01*
X8938753Y-14725484D02*
X8929229Y-14715960D01*
X8929229Y-14715960D02*
X8938753Y-14706436D01*
X8938753Y-14706436D02*
X8938753Y-14725484D01*
X9024467Y-14544531D02*
X9033991Y-14535008D01*
X9033991Y-14535008D02*
X9053039Y-14525484D01*
X9053039Y-14525484D02*
X9100658Y-14525484D01*
X9100658Y-14525484D02*
X9119705Y-14535008D01*
X9119705Y-14535008D02*
X9129229Y-14544531D01*
X9129229Y-14544531D02*
X9138753Y-14563579D01*
X9138753Y-14563579D02*
X9138753Y-14582627D01*
X9138753Y-14582627D02*
X9129229Y-14611198D01*
X9129229Y-14611198D02*
X9014944Y-14725484D01*
X9014944Y-14725484D02*
X9138753Y-14725484D01*
X9262563Y-14525484D02*
X9281610Y-14525484D01*
X9281610Y-14525484D02*
X9300658Y-14535008D01*
X9300658Y-14535008D02*
X9310182Y-14544531D01*
X9310182Y-14544531D02*
X9319705Y-14563579D01*
X9319705Y-14563579D02*
X9329229Y-14601674D01*
X9329229Y-14601674D02*
X9329229Y-14649293D01*
X9329229Y-14649293D02*
X9319705Y-14687388D01*
X9319705Y-14687388D02*
X9310182Y-14706436D01*
X9310182Y-14706436D02*
X9300658Y-14715960D01*
X9300658Y-14715960D02*
X9281610Y-14725484D01*
X9281610Y-14725484D02*
X9262563Y-14725484D01*
X9262563Y-14725484D02*
X9243515Y-14715960D01*
X9243515Y-14715960D02*
X9233991Y-14706436D01*
X9233991Y-14706436D02*
X9224467Y-14687388D01*
X9224467Y-14687388D02*
X9214944Y-14649293D01*
X9214944Y-14649293D02*
X9214944Y-14601674D01*
X9214944Y-14601674D02*
X9224467Y-14563579D01*
X9224467Y-14563579D02*
X9233991Y-14544531D01*
X9233991Y-14544531D02*
X9243515Y-14535008D01*
X9243515Y-14535008D02*
X9262563Y-14525484D01*
X9453039Y-14525484D02*
X9472086Y-14525484D01*
X9472086Y-14525484D02*
X9491134Y-14535008D01*
X9491134Y-14535008D02*
X9500658Y-14544531D01*
X9500658Y-14544531D02*
X9510182Y-14563579D01*
X9510182Y-14563579D02*
X9519705Y-14601674D01*
X9519705Y-14601674D02*
X9519705Y-14649293D01*
X9519705Y-14649293D02*
X9510182Y-14687388D01*
X9510182Y-14687388D02*
X9500658Y-14706436D01*
X9500658Y-14706436D02*
X9491134Y-14715960D01*
X9491134Y-14715960D02*
X9472086Y-14725484D01*
X9472086Y-14725484D02*
X9453039Y-14725484D01*
X9453039Y-14725484D02*
X9433991Y-14715960D01*
X9433991Y-14715960D02*
X9424467Y-14706436D01*
X9424467Y-14706436D02*
X9414944Y-14687388D01*
X9414944Y-14687388D02*
X9405420Y-14649293D01*
X9405420Y-14649293D02*
X9405420Y-14601674D01*
X9405420Y-14601674D02*
X9414944Y-14563579D01*
X9414944Y-14563579D02*
X9424467Y-14544531D01*
X9424467Y-14544531D02*
X9433991Y-14535008D01*
X9433991Y-14535008D02*
X9453039Y-14525484D01*
X9605420Y-14725484D02*
X9605420Y-14592150D01*
X9605420Y-14611198D02*
X9614944Y-14601674D01*
X9614944Y-14601674D02*
X9633991Y-14592150D01*
X9633991Y-14592150D02*
X9662563Y-14592150D01*
X9662563Y-14592150D02*
X9681610Y-14601674D01*
X9681610Y-14601674D02*
X9691134Y-14620722D01*
X9691134Y-14620722D02*
X9691134Y-14725484D01*
X9691134Y-14620722D02*
X9700658Y-14601674D01*
X9700658Y-14601674D02*
X9719705Y-14592150D01*
X9719705Y-14592150D02*
X9748277Y-14592150D01*
X9748277Y-14592150D02*
X9767325Y-14601674D01*
X9767325Y-14601674D02*
X9776848Y-14620722D01*
X9776848Y-14620722D02*
X9776848Y-14725484D01*
X9872086Y-14725484D02*
X9872086Y-14592150D01*
X9872086Y-14611198D02*
X9881610Y-14601674D01*
X9881610Y-14601674D02*
X9900658Y-14592150D01*
X9900658Y-14592150D02*
X9929229Y-14592150D01*
X9929229Y-14592150D02*
X9948277Y-14601674D01*
X9948277Y-14601674D02*
X9957801Y-14620722D01*
X9957801Y-14620722D02*
X9957801Y-14725484D01*
X9957801Y-14620722D02*
X9967325Y-14601674D01*
X9967325Y-14601674D02*
X9986372Y-14592150D01*
X9986372Y-14592150D02*
X10014944Y-14592150D01*
X10014944Y-14592150D02*
X10033991Y-14601674D01*
X10033991Y-14601674D02*
X10043515Y-14620722D01*
X10043515Y-14620722D02*
X10043515Y-14725484D01*
X10433991Y-14515960D02*
X10262563Y-14773103D01*
X10691134Y-14525484D02*
X10710182Y-14525484D01*
X10710182Y-14525484D02*
X10729229Y-14535008D01*
X10729229Y-14535008D02*
X10738753Y-14544531D01*
X10738753Y-14544531D02*
X10748277Y-14563579D01*
X10748277Y-14563579D02*
X10757801Y-14601674D01*
X10757801Y-14601674D02*
X10757801Y-14649293D01*
X10757801Y-14649293D02*
X10748277Y-14687388D01*
X10748277Y-14687388D02*
X10738753Y-14706436D01*
X10738753Y-14706436D02*
X10729229Y-14715960D01*
X10729229Y-14715960D02*
X10710182Y-14725484D01*
X10710182Y-14725484D02*
X10691134Y-14725484D01*
X10691134Y-14725484D02*
X10672087Y-14715960D01*
X10672087Y-14715960D02*
X10662563Y-14706436D01*
X10662563Y-14706436D02*
X10653039Y-14687388D01*
X10653039Y-14687388D02*
X10643515Y-14649293D01*
X10643515Y-14649293D02*
X10643515Y-14601674D01*
X10643515Y-14601674D02*
X10653039Y-14563579D01*
X10653039Y-14563579D02*
X10662563Y-14544531D01*
X10662563Y-14544531D02*
X10672087Y-14535008D01*
X10672087Y-14535008D02*
X10691134Y-14525484D01*
X10843515Y-14706436D02*
X10853039Y-14715960D01*
X10853039Y-14715960D02*
X10843515Y-14725484D01*
X10843515Y-14725484D02*
X10833991Y-14715960D01*
X10833991Y-14715960D02*
X10843515Y-14706436D01*
X10843515Y-14706436D02*
X10843515Y-14725484D01*
X10976848Y-14525484D02*
X10995896Y-14525484D01*
X10995896Y-14525484D02*
X11014944Y-14535008D01*
X11014944Y-14535008D02*
X11024468Y-14544531D01*
X11024468Y-14544531D02*
X11033991Y-14563579D01*
X11033991Y-14563579D02*
X11043515Y-14601674D01*
X11043515Y-14601674D02*
X11043515Y-14649293D01*
X11043515Y-14649293D02*
X11033991Y-14687388D01*
X11033991Y-14687388D02*
X11024468Y-14706436D01*
X11024468Y-14706436D02*
X11014944Y-14715960D01*
X11014944Y-14715960D02*
X10995896Y-14725484D01*
X10995896Y-14725484D02*
X10976848Y-14725484D01*
X10976848Y-14725484D02*
X10957801Y-14715960D01*
X10957801Y-14715960D02*
X10948277Y-14706436D01*
X10948277Y-14706436D02*
X10938753Y-14687388D01*
X10938753Y-14687388D02*
X10929229Y-14649293D01*
X10929229Y-14649293D02*
X10929229Y-14601674D01*
X10929229Y-14601674D02*
X10938753Y-14563579D01*
X10938753Y-14563579D02*
X10948277Y-14544531D01*
X10948277Y-14544531D02*
X10957801Y-14535008D01*
X10957801Y-14535008D02*
X10976848Y-14525484D01*
X11157801Y-14611198D02*
X11138753Y-14601674D01*
X11138753Y-14601674D02*
X11129229Y-14592150D01*
X11129229Y-14592150D02*
X11119706Y-14573103D01*
X11119706Y-14573103D02*
X11119706Y-14563579D01*
X11119706Y-14563579D02*
X11129229Y-14544531D01*
X11129229Y-14544531D02*
X11138753Y-14535008D01*
X11138753Y-14535008D02*
X11157801Y-14525484D01*
X11157801Y-14525484D02*
X11195896Y-14525484D01*
X11195896Y-14525484D02*
X11214944Y-14535008D01*
X11214944Y-14535008D02*
X11224467Y-14544531D01*
X11224467Y-14544531D02*
X11233991Y-14563579D01*
X11233991Y-14563579D02*
X11233991Y-14573103D01*
X11233991Y-14573103D02*
X11224467Y-14592150D01*
X11224467Y-14592150D02*
X11214944Y-14601674D01*
X11214944Y-14601674D02*
X11195896Y-14611198D01*
X11195896Y-14611198D02*
X11157801Y-14611198D01*
X11157801Y-14611198D02*
X11138753Y-14620722D01*
X11138753Y-14620722D02*
X11129229Y-14630246D01*
X11129229Y-14630246D02*
X11119706Y-14649293D01*
X11119706Y-14649293D02*
X11119706Y-14687388D01*
X11119706Y-14687388D02*
X11129229Y-14706436D01*
X11129229Y-14706436D02*
X11138753Y-14715960D01*
X11138753Y-14715960D02*
X11157801Y-14725484D01*
X11157801Y-14725484D02*
X11195896Y-14725484D01*
X11195896Y-14725484D02*
X11214944Y-14715960D01*
X11214944Y-14715960D02*
X11224467Y-14706436D01*
X11224467Y-14706436D02*
X11233991Y-14687388D01*
X11233991Y-14687388D02*
X11233991Y-14649293D01*
X11233991Y-14649293D02*
X11224467Y-14630246D01*
X11224467Y-14630246D02*
X11214944Y-14620722D01*
X11214944Y-14620722D02*
X11195896Y-14611198D01*
X11405420Y-14525484D02*
X11367325Y-14525484D01*
X11367325Y-14525484D02*
X11348277Y-14535008D01*
X11348277Y-14535008D02*
X11338753Y-14544531D01*
X11338753Y-14544531D02*
X11319706Y-14573103D01*
X11319706Y-14573103D02*
X11310182Y-14611198D01*
X11310182Y-14611198D02*
X11310182Y-14687388D01*
X11310182Y-14687388D02*
X11319706Y-14706436D01*
X11319706Y-14706436D02*
X11329229Y-14715960D01*
X11329229Y-14715960D02*
X11348277Y-14725484D01*
X11348277Y-14725484D02*
X11386372Y-14725484D01*
X11386372Y-14725484D02*
X11405420Y-14715960D01*
X11405420Y-14715960D02*
X11414944Y-14706436D01*
X11414944Y-14706436D02*
X11424467Y-14687388D01*
X11424467Y-14687388D02*
X11424467Y-14639769D01*
X11424467Y-14639769D02*
X11414944Y-14620722D01*
X11414944Y-14620722D02*
X11405420Y-14611198D01*
X11405420Y-14611198D02*
X11386372Y-14601674D01*
X11386372Y-14601674D02*
X11348277Y-14601674D01*
X11348277Y-14601674D02*
X11329229Y-14611198D01*
X11329229Y-14611198D02*
X11319706Y-14620722D01*
X11319706Y-14620722D02*
X11310182Y-14639769D01*
X11595896Y-14525484D02*
X11557801Y-14525484D01*
X11557801Y-14525484D02*
X11538753Y-14535008D01*
X11538753Y-14535008D02*
X11529229Y-14544531D01*
X11529229Y-14544531D02*
X11510182Y-14573103D01*
X11510182Y-14573103D02*
X11500658Y-14611198D01*
X11500658Y-14611198D02*
X11500658Y-14687388D01*
X11500658Y-14687388D02*
X11510182Y-14706436D01*
X11510182Y-14706436D02*
X11519706Y-14715960D01*
X11519706Y-14715960D02*
X11538753Y-14725484D01*
X11538753Y-14725484D02*
X11576848Y-14725484D01*
X11576848Y-14725484D02*
X11595896Y-14715960D01*
X11595896Y-14715960D02*
X11605420Y-14706436D01*
X11605420Y-14706436D02*
X11614944Y-14687388D01*
X11614944Y-14687388D02*
X11614944Y-14639769D01*
X11614944Y-14639769D02*
X11605420Y-14620722D01*
X11605420Y-14620722D02*
X11595896Y-14611198D01*
X11595896Y-14611198D02*
X11576848Y-14601674D01*
X11576848Y-14601674D02*
X11538753Y-14601674D01*
X11538753Y-14601674D02*
X11519706Y-14611198D01*
X11519706Y-14611198D02*
X11510182Y-14620722D01*
X11510182Y-14620722D02*
X11500658Y-14639769D01*
X11691134Y-14525484D02*
X11691134Y-14563579D01*
X11767325Y-14525484D02*
X11767325Y-14563579D01*
X12062563Y-14801674D02*
X12053039Y-14792150D01*
X12053039Y-14792150D02*
X12033991Y-14763579D01*
X12033991Y-14763579D02*
X12024468Y-14744531D01*
X12024468Y-14744531D02*
X12014944Y-14715960D01*
X12014944Y-14715960D02*
X12005420Y-14668341D01*
X12005420Y-14668341D02*
X12005420Y-14630246D01*
X12005420Y-14630246D02*
X12014944Y-14582627D01*
X12014944Y-14582627D02*
X12024468Y-14554055D01*
X12024468Y-14554055D02*
X12033991Y-14535008D01*
X12033991Y-14535008D02*
X12053039Y-14506436D01*
X12053039Y-14506436D02*
X12062563Y-14496912D01*
X12224468Y-14525484D02*
X12186372Y-14525484D01*
X12186372Y-14525484D02*
X12167325Y-14535008D01*
X12167325Y-14535008D02*
X12157801Y-14544531D01*
X12157801Y-14544531D02*
X12138753Y-14573103D01*
X12138753Y-14573103D02*
X12129229Y-14611198D01*
X12129229Y-14611198D02*
X12129229Y-14687388D01*
X12129229Y-14687388D02*
X12138753Y-14706436D01*
X12138753Y-14706436D02*
X12148277Y-14715960D01*
X12148277Y-14715960D02*
X12167325Y-14725484D01*
X12167325Y-14725484D02*
X12205420Y-14725484D01*
X12205420Y-14725484D02*
X12224468Y-14715960D01*
X12224468Y-14715960D02*
X12233991Y-14706436D01*
X12233991Y-14706436D02*
X12243515Y-14687388D01*
X12243515Y-14687388D02*
X12243515Y-14639769D01*
X12243515Y-14639769D02*
X12233991Y-14620722D01*
X12233991Y-14620722D02*
X12224468Y-14611198D01*
X12224468Y-14611198D02*
X12205420Y-14601674D01*
X12205420Y-14601674D02*
X12167325Y-14601674D01*
X12167325Y-14601674D02*
X12148277Y-14611198D01*
X12148277Y-14611198D02*
X12138753Y-14620722D01*
X12138753Y-14620722D02*
X12129229Y-14639769D01*
X12481610Y-14725484D02*
X12481610Y-14525484D01*
X12567325Y-14725484D02*
X12567325Y-14620722D01*
X12567325Y-14620722D02*
X12557801Y-14601674D01*
X12557801Y-14601674D02*
X12538753Y-14592150D01*
X12538753Y-14592150D02*
X12510182Y-14592150D01*
X12510182Y-14592150D02*
X12491134Y-14601674D01*
X12491134Y-14601674D02*
X12481610Y-14611198D01*
X12691134Y-14725484D02*
X12672087Y-14715960D01*
X12672087Y-14715960D02*
X12662563Y-14706436D01*
X12662563Y-14706436D02*
X12653039Y-14687388D01*
X12653039Y-14687388D02*
X12653039Y-14630246D01*
X12653039Y-14630246D02*
X12662563Y-14611198D01*
X12662563Y-14611198D02*
X12672087Y-14601674D01*
X12672087Y-14601674D02*
X12691134Y-14592150D01*
X12691134Y-14592150D02*
X12719706Y-14592150D01*
X12719706Y-14592150D02*
X12738753Y-14601674D01*
X12738753Y-14601674D02*
X12748277Y-14611198D01*
X12748277Y-14611198D02*
X12757801Y-14630246D01*
X12757801Y-14630246D02*
X12757801Y-14687388D01*
X12757801Y-14687388D02*
X12748277Y-14706436D01*
X12748277Y-14706436D02*
X12738753Y-14715960D01*
X12738753Y-14715960D02*
X12719706Y-14725484D01*
X12719706Y-14725484D02*
X12691134Y-14725484D01*
X12872087Y-14725484D02*
X12853039Y-14715960D01*
X12853039Y-14715960D02*
X12843515Y-14696912D01*
X12843515Y-14696912D02*
X12843515Y-14525484D01*
X13024468Y-14715960D02*
X13005420Y-14725484D01*
X13005420Y-14725484D02*
X12967325Y-14725484D01*
X12967325Y-14725484D02*
X12948277Y-14715960D01*
X12948277Y-14715960D02*
X12938753Y-14696912D01*
X12938753Y-14696912D02*
X12938753Y-14620722D01*
X12938753Y-14620722D02*
X12948277Y-14601674D01*
X12948277Y-14601674D02*
X12967325Y-14592150D01*
X12967325Y-14592150D02*
X13005420Y-14592150D01*
X13005420Y-14592150D02*
X13024468Y-14601674D01*
X13024468Y-14601674D02*
X13033991Y-14620722D01*
X13033991Y-14620722D02*
X13033991Y-14639769D01*
X13033991Y-14639769D02*
X12938753Y-14658817D01*
X13110182Y-14715960D02*
X13129230Y-14725484D01*
X13129230Y-14725484D02*
X13167325Y-14725484D01*
X13167325Y-14725484D02*
X13186372Y-14715960D01*
X13186372Y-14715960D02*
X13195896Y-14696912D01*
X13195896Y-14696912D02*
X13195896Y-14687388D01*
X13195896Y-14687388D02*
X13186372Y-14668341D01*
X13186372Y-14668341D02*
X13167325Y-14658817D01*
X13167325Y-14658817D02*
X13138753Y-14658817D01*
X13138753Y-14658817D02*
X13119706Y-14649293D01*
X13119706Y-14649293D02*
X13110182Y-14630246D01*
X13110182Y-14630246D02*
X13110182Y-14620722D01*
X13110182Y-14620722D02*
X13119706Y-14601674D01*
X13119706Y-14601674D02*
X13138753Y-14592150D01*
X13138753Y-14592150D02*
X13167325Y-14592150D01*
X13167325Y-14592150D02*
X13186372Y-14601674D01*
X13262563Y-14801674D02*
X13272087Y-14792150D01*
X13272087Y-14792150D02*
X13291134Y-14763579D01*
X13291134Y-14763579D02*
X13300658Y-14744531D01*
X13300658Y-14744531D02*
X13310182Y-14715960D01*
X13310182Y-14715960D02*
X13319706Y-14668341D01*
X13319706Y-14668341D02*
X13319706Y-14630246D01*
X13319706Y-14630246D02*
X13310182Y-14582627D01*
X13310182Y-14582627D02*
X13300658Y-14554055D01*
X13300658Y-14554055D02*
X13291134Y-14535008D01*
X13291134Y-14535008D02*
X13272087Y-14506436D01*
X13272087Y-14506436D02*
X13262563Y-14496912D01*
X13624468Y-14801674D02*
X13614944Y-14792150D01*
X13614944Y-14792150D02*
X13595896Y-14763579D01*
X13595896Y-14763579D02*
X13586372Y-14744531D01*
X13586372Y-14744531D02*
X13576849Y-14715960D01*
X13576849Y-14715960D02*
X13567325Y-14668341D01*
X13567325Y-14668341D02*
X13567325Y-14630246D01*
X13567325Y-14630246D02*
X13576849Y-14582627D01*
X13576849Y-14582627D02*
X13586372Y-14554055D01*
X13586372Y-14554055D02*
X13595896Y-14535008D01*
X13595896Y-14535008D02*
X13614944Y-14506436D01*
X13614944Y-14506436D02*
X13624468Y-14496912D01*
X13700658Y-14592150D02*
X13700658Y-14725484D01*
X13700658Y-14611198D02*
X13710182Y-14601674D01*
X13710182Y-14601674D02*
X13729230Y-14592150D01*
X13729230Y-14592150D02*
X13757801Y-14592150D01*
X13757801Y-14592150D02*
X13776849Y-14601674D01*
X13776849Y-14601674D02*
X13786372Y-14620722D01*
X13786372Y-14620722D02*
X13786372Y-14725484D01*
X13910182Y-14725484D02*
X13891134Y-14715960D01*
X13891134Y-14715960D02*
X13881611Y-14706436D01*
X13881611Y-14706436D02*
X13872087Y-14687388D01*
X13872087Y-14687388D02*
X13872087Y-14630246D01*
X13872087Y-14630246D02*
X13881611Y-14611198D01*
X13881611Y-14611198D02*
X13891134Y-14601674D01*
X13891134Y-14601674D02*
X13910182Y-14592150D01*
X13910182Y-14592150D02*
X13938753Y-14592150D01*
X13938753Y-14592150D02*
X13957801Y-14601674D01*
X13957801Y-14601674D02*
X13967325Y-14611198D01*
X13967325Y-14611198D02*
X13976849Y-14630246D01*
X13976849Y-14630246D02*
X13976849Y-14687388D01*
X13976849Y-14687388D02*
X13967325Y-14706436D01*
X13967325Y-14706436D02*
X13957801Y-14715960D01*
X13957801Y-14715960D02*
X13938753Y-14725484D01*
X13938753Y-14725484D02*
X13910182Y-14725484D01*
X14033992Y-14592150D02*
X14110182Y-14592150D01*
X14062563Y-14525484D02*
X14062563Y-14696912D01*
X14062563Y-14696912D02*
X14072087Y-14715960D01*
X14072087Y-14715960D02*
X14091134Y-14725484D01*
X14091134Y-14725484D02*
X14110182Y-14725484D01*
X14329230Y-14592150D02*
X14329230Y-14792150D01*
X14329230Y-14601674D02*
X14348277Y-14592150D01*
X14348277Y-14592150D02*
X14386373Y-14592150D01*
X14386373Y-14592150D02*
X14405420Y-14601674D01*
X14405420Y-14601674D02*
X14414944Y-14611198D01*
X14414944Y-14611198D02*
X14424468Y-14630246D01*
X14424468Y-14630246D02*
X14424468Y-14687388D01*
X14424468Y-14687388D02*
X14414944Y-14706436D01*
X14414944Y-14706436D02*
X14405420Y-14715960D01*
X14405420Y-14715960D02*
X14386373Y-14725484D01*
X14386373Y-14725484D02*
X14348277Y-14725484D01*
X14348277Y-14725484D02*
X14329230Y-14715960D01*
X14538753Y-14725484D02*
X14519706Y-14715960D01*
X14519706Y-14715960D02*
X14510182Y-14696912D01*
X14510182Y-14696912D02*
X14510182Y-14525484D01*
X14700658Y-14725484D02*
X14700658Y-14620722D01*
X14700658Y-14620722D02*
X14691134Y-14601674D01*
X14691134Y-14601674D02*
X14672087Y-14592150D01*
X14672087Y-14592150D02*
X14633992Y-14592150D01*
X14633992Y-14592150D02*
X14614944Y-14601674D01*
X14700658Y-14715960D02*
X14681611Y-14725484D01*
X14681611Y-14725484D02*
X14633992Y-14725484D01*
X14633992Y-14725484D02*
X14614944Y-14715960D01*
X14614944Y-14715960D02*
X14605420Y-14696912D01*
X14605420Y-14696912D02*
X14605420Y-14677865D01*
X14605420Y-14677865D02*
X14614944Y-14658817D01*
X14614944Y-14658817D02*
X14633992Y-14649293D01*
X14633992Y-14649293D02*
X14681611Y-14649293D01*
X14681611Y-14649293D02*
X14700658Y-14639769D01*
X14767325Y-14592150D02*
X14843515Y-14592150D01*
X14795896Y-14525484D02*
X14795896Y-14696912D01*
X14795896Y-14696912D02*
X14805420Y-14715960D01*
X14805420Y-14715960D02*
X14824468Y-14725484D01*
X14824468Y-14725484D02*
X14843515Y-14725484D01*
X14986373Y-14715960D02*
X14967325Y-14725484D01*
X14967325Y-14725484D02*
X14929230Y-14725484D01*
X14929230Y-14725484D02*
X14910182Y-14715960D01*
X14910182Y-14715960D02*
X14900658Y-14696912D01*
X14900658Y-14696912D02*
X14900658Y-14620722D01*
X14900658Y-14620722D02*
X14910182Y-14601674D01*
X14910182Y-14601674D02*
X14929230Y-14592150D01*
X14929230Y-14592150D02*
X14967325Y-14592150D01*
X14967325Y-14592150D02*
X14986373Y-14601674D01*
X14986373Y-14601674D02*
X14995896Y-14620722D01*
X14995896Y-14620722D02*
X14995896Y-14639769D01*
X14995896Y-14639769D02*
X14900658Y-14658817D01*
X15167325Y-14725484D02*
X15167325Y-14525484D01*
X15167325Y-14715960D02*
X15148277Y-14725484D01*
X15148277Y-14725484D02*
X15110182Y-14725484D01*
X15110182Y-14725484D02*
X15091134Y-14715960D01*
X15091134Y-14715960D02*
X15081611Y-14706436D01*
X15081611Y-14706436D02*
X15072087Y-14687388D01*
X15072087Y-14687388D02*
X15072087Y-14630246D01*
X15072087Y-14630246D02*
X15081611Y-14611198D01*
X15081611Y-14611198D02*
X15091134Y-14601674D01*
X15091134Y-14601674D02*
X15110182Y-14592150D01*
X15110182Y-14592150D02*
X15148277Y-14592150D01*
X15148277Y-14592150D02*
X15167325Y-14601674D01*
X15243515Y-14801674D02*
X15253039Y-14792150D01*
X15253039Y-14792150D02*
X15272087Y-14763579D01*
X15272087Y-14763579D02*
X15281611Y-14744531D01*
X15281611Y-14744531D02*
X15291134Y-14715960D01*
X15291134Y-14715960D02*
X15300658Y-14668341D01*
X15300658Y-14668341D02*
X15300658Y-14630246D01*
X15300658Y-14630246D02*
X15291134Y-14582627D01*
X15291134Y-14582627D02*
X15281611Y-14554055D01*
X15281611Y-14554055D02*
X15272087Y-14535008D01*
X15272087Y-14535008D02*
X15253039Y-14506436D01*
X15253039Y-14506436D02*
X15243515Y-14496912D01*
X8458211Y-15024711D02*
X8458211Y-14883289D01*
X8316789Y-14883289D01*
X8316789Y-15024711D01*
X8458211Y-15024711D01*
X8729229Y-14845484D02*
X8853039Y-14845484D01*
X8853039Y-14845484D02*
X8786372Y-14921674D01*
X8786372Y-14921674D02*
X8814944Y-14921674D01*
X8814944Y-14921674D02*
X8833991Y-14931198D01*
X8833991Y-14931198D02*
X8843515Y-14940722D01*
X8843515Y-14940722D02*
X8853039Y-14959769D01*
X8853039Y-14959769D02*
X8853039Y-15007388D01*
X8853039Y-15007388D02*
X8843515Y-15026436D01*
X8843515Y-15026436D02*
X8833991Y-15035960D01*
X8833991Y-15035960D02*
X8814944Y-15045484D01*
X8814944Y-15045484D02*
X8757801Y-15045484D01*
X8757801Y-15045484D02*
X8738753Y-15035960D01*
X8738753Y-15035960D02*
X8729229Y-15026436D01*
X8938753Y-15026436D02*
X8948277Y-15035960D01*
X8948277Y-15035960D02*
X8938753Y-15045484D01*
X8938753Y-15045484D02*
X8929229Y-15035960D01*
X8929229Y-15035960D02*
X8938753Y-15026436D01*
X8938753Y-15026436D02*
X8938753Y-15045484D01*
X9119705Y-14912150D02*
X9119705Y-15045484D01*
X9072086Y-14835960D02*
X9024467Y-14978817D01*
X9024467Y-14978817D02*
X9148277Y-14978817D01*
X9262563Y-14845484D02*
X9281610Y-14845484D01*
X9281610Y-14845484D02*
X9300658Y-14855008D01*
X9300658Y-14855008D02*
X9310182Y-14864531D01*
X9310182Y-14864531D02*
X9319705Y-14883579D01*
X9319705Y-14883579D02*
X9329229Y-14921674D01*
X9329229Y-14921674D02*
X9329229Y-14969293D01*
X9329229Y-14969293D02*
X9319705Y-15007388D01*
X9319705Y-15007388D02*
X9310182Y-15026436D01*
X9310182Y-15026436D02*
X9300658Y-15035960D01*
X9300658Y-15035960D02*
X9281610Y-15045484D01*
X9281610Y-15045484D02*
X9262563Y-15045484D01*
X9262563Y-15045484D02*
X9243515Y-15035960D01*
X9243515Y-15035960D02*
X9233991Y-15026436D01*
X9233991Y-15026436D02*
X9224467Y-15007388D01*
X9224467Y-15007388D02*
X9214944Y-14969293D01*
X9214944Y-14969293D02*
X9214944Y-14921674D01*
X9214944Y-14921674D02*
X9224467Y-14883579D01*
X9224467Y-14883579D02*
X9233991Y-14864531D01*
X9233991Y-14864531D02*
X9243515Y-14855008D01*
X9243515Y-14855008D02*
X9262563Y-14845484D01*
X9453039Y-14845484D02*
X9472086Y-14845484D01*
X9472086Y-14845484D02*
X9491134Y-14855008D01*
X9491134Y-14855008D02*
X9500658Y-14864531D01*
X9500658Y-14864531D02*
X9510182Y-14883579D01*
X9510182Y-14883579D02*
X9519705Y-14921674D01*
X9519705Y-14921674D02*
X9519705Y-14969293D01*
X9519705Y-14969293D02*
X9510182Y-15007388D01*
X9510182Y-15007388D02*
X9500658Y-15026436D01*
X9500658Y-15026436D02*
X9491134Y-15035960D01*
X9491134Y-15035960D02*
X9472086Y-15045484D01*
X9472086Y-15045484D02*
X9453039Y-15045484D01*
X9453039Y-15045484D02*
X9433991Y-15035960D01*
X9433991Y-15035960D02*
X9424467Y-15026436D01*
X9424467Y-15026436D02*
X9414944Y-15007388D01*
X9414944Y-15007388D02*
X9405420Y-14969293D01*
X9405420Y-14969293D02*
X9405420Y-14921674D01*
X9405420Y-14921674D02*
X9414944Y-14883579D01*
X9414944Y-14883579D02*
X9424467Y-14864531D01*
X9424467Y-14864531D02*
X9433991Y-14855008D01*
X9433991Y-14855008D02*
X9453039Y-14845484D01*
X9605420Y-15045484D02*
X9605420Y-14912150D01*
X9605420Y-14931198D02*
X9614944Y-14921674D01*
X9614944Y-14921674D02*
X9633991Y-14912150D01*
X9633991Y-14912150D02*
X9662563Y-14912150D01*
X9662563Y-14912150D02*
X9681610Y-14921674D01*
X9681610Y-14921674D02*
X9691134Y-14940722D01*
X9691134Y-14940722D02*
X9691134Y-15045484D01*
X9691134Y-14940722D02*
X9700658Y-14921674D01*
X9700658Y-14921674D02*
X9719705Y-14912150D01*
X9719705Y-14912150D02*
X9748277Y-14912150D01*
X9748277Y-14912150D02*
X9767325Y-14921674D01*
X9767325Y-14921674D02*
X9776848Y-14940722D01*
X9776848Y-14940722D02*
X9776848Y-15045484D01*
X9872086Y-15045484D02*
X9872086Y-14912150D01*
X9872086Y-14931198D02*
X9881610Y-14921674D01*
X9881610Y-14921674D02*
X9900658Y-14912150D01*
X9900658Y-14912150D02*
X9929229Y-14912150D01*
X9929229Y-14912150D02*
X9948277Y-14921674D01*
X9948277Y-14921674D02*
X9957801Y-14940722D01*
X9957801Y-14940722D02*
X9957801Y-15045484D01*
X9957801Y-14940722D02*
X9967325Y-14921674D01*
X9967325Y-14921674D02*
X9986372Y-14912150D01*
X9986372Y-14912150D02*
X10014944Y-14912150D01*
X10014944Y-14912150D02*
X10033991Y-14921674D01*
X10033991Y-14921674D02*
X10043515Y-14940722D01*
X10043515Y-14940722D02*
X10043515Y-15045484D01*
X10433991Y-14835960D02*
X10262563Y-15093103D01*
X10691134Y-14845484D02*
X10710182Y-14845484D01*
X10710182Y-14845484D02*
X10729229Y-14855008D01*
X10729229Y-14855008D02*
X10738753Y-14864531D01*
X10738753Y-14864531D02*
X10748277Y-14883579D01*
X10748277Y-14883579D02*
X10757801Y-14921674D01*
X10757801Y-14921674D02*
X10757801Y-14969293D01*
X10757801Y-14969293D02*
X10748277Y-15007388D01*
X10748277Y-15007388D02*
X10738753Y-15026436D01*
X10738753Y-15026436D02*
X10729229Y-15035960D01*
X10729229Y-15035960D02*
X10710182Y-15045484D01*
X10710182Y-15045484D02*
X10691134Y-15045484D01*
X10691134Y-15045484D02*
X10672087Y-15035960D01*
X10672087Y-15035960D02*
X10662563Y-15026436D01*
X10662563Y-15026436D02*
X10653039Y-15007388D01*
X10653039Y-15007388D02*
X10643515Y-14969293D01*
X10643515Y-14969293D02*
X10643515Y-14921674D01*
X10643515Y-14921674D02*
X10653039Y-14883579D01*
X10653039Y-14883579D02*
X10662563Y-14864531D01*
X10662563Y-14864531D02*
X10672087Y-14855008D01*
X10672087Y-14855008D02*
X10691134Y-14845484D01*
X10843515Y-15026436D02*
X10853039Y-15035960D01*
X10853039Y-15035960D02*
X10843515Y-15045484D01*
X10843515Y-15045484D02*
X10833991Y-15035960D01*
X10833991Y-15035960D02*
X10843515Y-15026436D01*
X10843515Y-15026436D02*
X10843515Y-15045484D01*
X11043515Y-15045484D02*
X10929229Y-15045484D01*
X10986372Y-15045484D02*
X10986372Y-14845484D01*
X10986372Y-14845484D02*
X10967325Y-14874055D01*
X10967325Y-14874055D02*
X10948277Y-14893103D01*
X10948277Y-14893103D02*
X10929229Y-14902627D01*
X11110182Y-14845484D02*
X11233991Y-14845484D01*
X11233991Y-14845484D02*
X11167325Y-14921674D01*
X11167325Y-14921674D02*
X11195896Y-14921674D01*
X11195896Y-14921674D02*
X11214944Y-14931198D01*
X11214944Y-14931198D02*
X11224467Y-14940722D01*
X11224467Y-14940722D02*
X11233991Y-14959769D01*
X11233991Y-14959769D02*
X11233991Y-15007388D01*
X11233991Y-15007388D02*
X11224467Y-15026436D01*
X11224467Y-15026436D02*
X11214944Y-15035960D01*
X11214944Y-15035960D02*
X11195896Y-15045484D01*
X11195896Y-15045484D02*
X11138753Y-15045484D01*
X11138753Y-15045484D02*
X11119706Y-15035960D01*
X11119706Y-15035960D02*
X11110182Y-15026436D01*
X11300658Y-14845484D02*
X11424467Y-14845484D01*
X11424467Y-14845484D02*
X11357801Y-14921674D01*
X11357801Y-14921674D02*
X11386372Y-14921674D01*
X11386372Y-14921674D02*
X11405420Y-14931198D01*
X11405420Y-14931198D02*
X11414944Y-14940722D01*
X11414944Y-14940722D02*
X11424467Y-14959769D01*
X11424467Y-14959769D02*
X11424467Y-15007388D01*
X11424467Y-15007388D02*
X11414944Y-15026436D01*
X11414944Y-15026436D02*
X11405420Y-15035960D01*
X11405420Y-15035960D02*
X11386372Y-15045484D01*
X11386372Y-15045484D02*
X11329229Y-15045484D01*
X11329229Y-15045484D02*
X11310182Y-15035960D01*
X11310182Y-15035960D02*
X11300658Y-15026436D01*
X11519706Y-15045484D02*
X11557801Y-15045484D01*
X11557801Y-15045484D02*
X11576848Y-15035960D01*
X11576848Y-15035960D02*
X11586372Y-15026436D01*
X11586372Y-15026436D02*
X11605420Y-14997865D01*
X11605420Y-14997865D02*
X11614944Y-14959769D01*
X11614944Y-14959769D02*
X11614944Y-14883579D01*
X11614944Y-14883579D02*
X11605420Y-14864531D01*
X11605420Y-14864531D02*
X11595896Y-14855008D01*
X11595896Y-14855008D02*
X11576848Y-14845484D01*
X11576848Y-14845484D02*
X11538753Y-14845484D01*
X11538753Y-14845484D02*
X11519706Y-14855008D01*
X11519706Y-14855008D02*
X11510182Y-14864531D01*
X11510182Y-14864531D02*
X11500658Y-14883579D01*
X11500658Y-14883579D02*
X11500658Y-14931198D01*
X11500658Y-14931198D02*
X11510182Y-14950246D01*
X11510182Y-14950246D02*
X11519706Y-14959769D01*
X11519706Y-14959769D02*
X11538753Y-14969293D01*
X11538753Y-14969293D02*
X11576848Y-14969293D01*
X11576848Y-14969293D02*
X11595896Y-14959769D01*
X11595896Y-14959769D02*
X11605420Y-14950246D01*
X11605420Y-14950246D02*
X11614944Y-14931198D01*
X11691134Y-14845484D02*
X11691134Y-14883579D01*
X11767325Y-14845484D02*
X11767325Y-14883579D01*
X12062563Y-15121674D02*
X12053039Y-15112150D01*
X12053039Y-15112150D02*
X12033991Y-15083579D01*
X12033991Y-15083579D02*
X12024468Y-15064531D01*
X12024468Y-15064531D02*
X12014944Y-15035960D01*
X12014944Y-15035960D02*
X12005420Y-14988341D01*
X12005420Y-14988341D02*
X12005420Y-14950246D01*
X12005420Y-14950246D02*
X12014944Y-14902627D01*
X12014944Y-14902627D02*
X12024468Y-14874055D01*
X12024468Y-14874055D02*
X12033991Y-14855008D01*
X12033991Y-14855008D02*
X12053039Y-14826436D01*
X12053039Y-14826436D02*
X12062563Y-14816912D01*
X12243515Y-15045484D02*
X12129229Y-15045484D01*
X12186372Y-15045484D02*
X12186372Y-14845484D01*
X12186372Y-14845484D02*
X12167325Y-14874055D01*
X12167325Y-14874055D02*
X12148277Y-14893103D01*
X12148277Y-14893103D02*
X12129229Y-14902627D01*
X12357801Y-14931198D02*
X12338753Y-14921674D01*
X12338753Y-14921674D02*
X12329229Y-14912150D01*
X12329229Y-14912150D02*
X12319706Y-14893103D01*
X12319706Y-14893103D02*
X12319706Y-14883579D01*
X12319706Y-14883579D02*
X12329229Y-14864531D01*
X12329229Y-14864531D02*
X12338753Y-14855008D01*
X12338753Y-14855008D02*
X12357801Y-14845484D01*
X12357801Y-14845484D02*
X12395896Y-14845484D01*
X12395896Y-14845484D02*
X12414944Y-14855008D01*
X12414944Y-14855008D02*
X12424468Y-14864531D01*
X12424468Y-14864531D02*
X12433991Y-14883579D01*
X12433991Y-14883579D02*
X12433991Y-14893103D01*
X12433991Y-14893103D02*
X12424468Y-14912150D01*
X12424468Y-14912150D02*
X12414944Y-14921674D01*
X12414944Y-14921674D02*
X12395896Y-14931198D01*
X12395896Y-14931198D02*
X12357801Y-14931198D01*
X12357801Y-14931198D02*
X12338753Y-14940722D01*
X12338753Y-14940722D02*
X12329229Y-14950246D01*
X12329229Y-14950246D02*
X12319706Y-14969293D01*
X12319706Y-14969293D02*
X12319706Y-15007388D01*
X12319706Y-15007388D02*
X12329229Y-15026436D01*
X12329229Y-15026436D02*
X12338753Y-15035960D01*
X12338753Y-15035960D02*
X12357801Y-15045484D01*
X12357801Y-15045484D02*
X12395896Y-15045484D01*
X12395896Y-15045484D02*
X12414944Y-15035960D01*
X12414944Y-15035960D02*
X12424468Y-15026436D01*
X12424468Y-15026436D02*
X12433991Y-15007388D01*
X12433991Y-15007388D02*
X12433991Y-14969293D01*
X12433991Y-14969293D02*
X12424468Y-14950246D01*
X12424468Y-14950246D02*
X12414944Y-14940722D01*
X12414944Y-14940722D02*
X12395896Y-14931198D01*
X12672087Y-15045484D02*
X12672087Y-14845484D01*
X12757801Y-15045484D02*
X12757801Y-14940722D01*
X12757801Y-14940722D02*
X12748277Y-14921674D01*
X12748277Y-14921674D02*
X12729230Y-14912150D01*
X12729230Y-14912150D02*
X12700658Y-14912150D01*
X12700658Y-14912150D02*
X12681610Y-14921674D01*
X12681610Y-14921674D02*
X12672087Y-14931198D01*
X12881610Y-15045484D02*
X12862563Y-15035960D01*
X12862563Y-15035960D02*
X12853039Y-15026436D01*
X12853039Y-15026436D02*
X12843515Y-15007388D01*
X12843515Y-15007388D02*
X12843515Y-14950246D01*
X12843515Y-14950246D02*
X12853039Y-14931198D01*
X12853039Y-14931198D02*
X12862563Y-14921674D01*
X12862563Y-14921674D02*
X12881610Y-14912150D01*
X12881610Y-14912150D02*
X12910182Y-14912150D01*
X12910182Y-14912150D02*
X12929230Y-14921674D01*
X12929230Y-14921674D02*
X12938753Y-14931198D01*
X12938753Y-14931198D02*
X12948277Y-14950246D01*
X12948277Y-14950246D02*
X12948277Y-15007388D01*
X12948277Y-15007388D02*
X12938753Y-15026436D01*
X12938753Y-15026436D02*
X12929230Y-15035960D01*
X12929230Y-15035960D02*
X12910182Y-15045484D01*
X12910182Y-15045484D02*
X12881610Y-15045484D01*
X13062563Y-15045484D02*
X13043515Y-15035960D01*
X13043515Y-15035960D02*
X13033991Y-15016912D01*
X13033991Y-15016912D02*
X13033991Y-14845484D01*
X13214944Y-15035960D02*
X13195896Y-15045484D01*
X13195896Y-15045484D02*
X13157801Y-15045484D01*
X13157801Y-15045484D02*
X13138753Y-15035960D01*
X13138753Y-15035960D02*
X13129230Y-15016912D01*
X13129230Y-15016912D02*
X13129230Y-14940722D01*
X13129230Y-14940722D02*
X13138753Y-14921674D01*
X13138753Y-14921674D02*
X13157801Y-14912150D01*
X13157801Y-14912150D02*
X13195896Y-14912150D01*
X13195896Y-14912150D02*
X13214944Y-14921674D01*
X13214944Y-14921674D02*
X13224468Y-14940722D01*
X13224468Y-14940722D02*
X13224468Y-14959769D01*
X13224468Y-14959769D02*
X13129230Y-14978817D01*
X13300658Y-15035960D02*
X13319706Y-15045484D01*
X13319706Y-15045484D02*
X13357801Y-15045484D01*
X13357801Y-15045484D02*
X13376849Y-15035960D01*
X13376849Y-15035960D02*
X13386372Y-15016912D01*
X13386372Y-15016912D02*
X13386372Y-15007388D01*
X13386372Y-15007388D02*
X13376849Y-14988341D01*
X13376849Y-14988341D02*
X13357801Y-14978817D01*
X13357801Y-14978817D02*
X13329230Y-14978817D01*
X13329230Y-14978817D02*
X13310182Y-14969293D01*
X13310182Y-14969293D02*
X13300658Y-14950246D01*
X13300658Y-14950246D02*
X13300658Y-14940722D01*
X13300658Y-14940722D02*
X13310182Y-14921674D01*
X13310182Y-14921674D02*
X13329230Y-14912150D01*
X13329230Y-14912150D02*
X13357801Y-14912150D01*
X13357801Y-14912150D02*
X13376849Y-14921674D01*
X13453039Y-15121674D02*
X13462563Y-15112150D01*
X13462563Y-15112150D02*
X13481611Y-15083579D01*
X13481611Y-15083579D02*
X13491134Y-15064531D01*
X13491134Y-15064531D02*
X13500658Y-15035960D01*
X13500658Y-15035960D02*
X13510182Y-14988341D01*
X13510182Y-14988341D02*
X13510182Y-14950246D01*
X13510182Y-14950246D02*
X13500658Y-14902627D01*
X13500658Y-14902627D02*
X13491134Y-14874055D01*
X13491134Y-14874055D02*
X13481611Y-14855008D01*
X13481611Y-14855008D02*
X13462563Y-14826436D01*
X13462563Y-14826436D02*
X13453039Y-14816912D01*
X13814944Y-15121674D02*
X13805420Y-15112150D01*
X13805420Y-15112150D02*
X13786372Y-15083579D01*
X13786372Y-15083579D02*
X13776849Y-15064531D01*
X13776849Y-15064531D02*
X13767325Y-15035960D01*
X13767325Y-15035960D02*
X13757801Y-14988341D01*
X13757801Y-14988341D02*
X13757801Y-14950246D01*
X13757801Y-14950246D02*
X13767325Y-14902627D01*
X13767325Y-14902627D02*
X13776849Y-14874055D01*
X13776849Y-14874055D02*
X13786372Y-14855008D01*
X13786372Y-14855008D02*
X13805420Y-14826436D01*
X13805420Y-14826436D02*
X13814944Y-14816912D01*
X13891134Y-14912150D02*
X13891134Y-15045484D01*
X13891134Y-14931198D02*
X13900658Y-14921674D01*
X13900658Y-14921674D02*
X13919706Y-14912150D01*
X13919706Y-14912150D02*
X13948277Y-14912150D01*
X13948277Y-14912150D02*
X13967325Y-14921674D01*
X13967325Y-14921674D02*
X13976849Y-14940722D01*
X13976849Y-14940722D02*
X13976849Y-15045484D01*
X14100658Y-15045484D02*
X14081611Y-15035960D01*
X14081611Y-15035960D02*
X14072087Y-15026436D01*
X14072087Y-15026436D02*
X14062563Y-15007388D01*
X14062563Y-15007388D02*
X14062563Y-14950246D01*
X14062563Y-14950246D02*
X14072087Y-14931198D01*
X14072087Y-14931198D02*
X14081611Y-14921674D01*
X14081611Y-14921674D02*
X14100658Y-14912150D01*
X14100658Y-14912150D02*
X14129230Y-14912150D01*
X14129230Y-14912150D02*
X14148277Y-14921674D01*
X14148277Y-14921674D02*
X14157801Y-14931198D01*
X14157801Y-14931198D02*
X14167325Y-14950246D01*
X14167325Y-14950246D02*
X14167325Y-15007388D01*
X14167325Y-15007388D02*
X14157801Y-15026436D01*
X14157801Y-15026436D02*
X14148277Y-15035960D01*
X14148277Y-15035960D02*
X14129230Y-15045484D01*
X14129230Y-15045484D02*
X14100658Y-15045484D01*
X14224468Y-14912150D02*
X14300658Y-14912150D01*
X14253039Y-14845484D02*
X14253039Y-15016912D01*
X14253039Y-15016912D02*
X14262563Y-15035960D01*
X14262563Y-15035960D02*
X14281611Y-15045484D01*
X14281611Y-15045484D02*
X14300658Y-15045484D01*
X14519706Y-14912150D02*
X14519706Y-15112150D01*
X14519706Y-14921674D02*
X14538753Y-14912150D01*
X14538753Y-14912150D02*
X14576849Y-14912150D01*
X14576849Y-14912150D02*
X14595896Y-14921674D01*
X14595896Y-14921674D02*
X14605420Y-14931198D01*
X14605420Y-14931198D02*
X14614944Y-14950246D01*
X14614944Y-14950246D02*
X14614944Y-15007388D01*
X14614944Y-15007388D02*
X14605420Y-15026436D01*
X14605420Y-15026436D02*
X14595896Y-15035960D01*
X14595896Y-15035960D02*
X14576849Y-15045484D01*
X14576849Y-15045484D02*
X14538753Y-15045484D01*
X14538753Y-15045484D02*
X14519706Y-15035960D01*
X14729230Y-15045484D02*
X14710182Y-15035960D01*
X14710182Y-15035960D02*
X14700658Y-15016912D01*
X14700658Y-15016912D02*
X14700658Y-14845484D01*
X14891134Y-15045484D02*
X14891134Y-14940722D01*
X14891134Y-14940722D02*
X14881611Y-14921674D01*
X14881611Y-14921674D02*
X14862563Y-14912150D01*
X14862563Y-14912150D02*
X14824468Y-14912150D01*
X14824468Y-14912150D02*
X14805420Y-14921674D01*
X14891134Y-15035960D02*
X14872087Y-15045484D01*
X14872087Y-15045484D02*
X14824468Y-15045484D01*
X14824468Y-15045484D02*
X14805420Y-15035960D01*
X14805420Y-15035960D02*
X14795896Y-15016912D01*
X14795896Y-15016912D02*
X14795896Y-14997865D01*
X14795896Y-14997865D02*
X14805420Y-14978817D01*
X14805420Y-14978817D02*
X14824468Y-14969293D01*
X14824468Y-14969293D02*
X14872087Y-14969293D01*
X14872087Y-14969293D02*
X14891134Y-14959769D01*
X14957801Y-14912150D02*
X15033992Y-14912150D01*
X14986373Y-14845484D02*
X14986373Y-15016912D01*
X14986373Y-15016912D02*
X14995896Y-15035960D01*
X14995896Y-15035960D02*
X15014944Y-15045484D01*
X15014944Y-15045484D02*
X15033992Y-15045484D01*
X15176849Y-15035960D02*
X15157801Y-15045484D01*
X15157801Y-15045484D02*
X15119706Y-15045484D01*
X15119706Y-15045484D02*
X15100658Y-15035960D01*
X15100658Y-15035960D02*
X15091134Y-15016912D01*
X15091134Y-15016912D02*
X15091134Y-14940722D01*
X15091134Y-14940722D02*
X15100658Y-14921674D01*
X15100658Y-14921674D02*
X15119706Y-14912150D01*
X15119706Y-14912150D02*
X15157801Y-14912150D01*
X15157801Y-14912150D02*
X15176849Y-14921674D01*
X15176849Y-14921674D02*
X15186373Y-14940722D01*
X15186373Y-14940722D02*
X15186373Y-14959769D01*
X15186373Y-14959769D02*
X15091134Y-14978817D01*
X15357801Y-15045484D02*
X15357801Y-14845484D01*
X15357801Y-15035960D02*
X15338754Y-15045484D01*
X15338754Y-15045484D02*
X15300658Y-15045484D01*
X15300658Y-15045484D02*
X15281611Y-15035960D01*
X15281611Y-15035960D02*
X15272087Y-15026436D01*
X15272087Y-15026436D02*
X15262563Y-15007388D01*
X15262563Y-15007388D02*
X15262563Y-14950246D01*
X15262563Y-14950246D02*
X15272087Y-14931198D01*
X15272087Y-14931198D02*
X15281611Y-14921674D01*
X15281611Y-14921674D02*
X15300658Y-14912150D01*
X15300658Y-14912150D02*
X15338754Y-14912150D01*
X15338754Y-14912150D02*
X15357801Y-14921674D01*
X15433992Y-15121674D02*
X15443515Y-15112150D01*
X15443515Y-15112150D02*
X15462563Y-15083579D01*
X15462563Y-15083579D02*
X15472087Y-15064531D01*
X15472087Y-15064531D02*
X15481611Y-15035960D01*
X15481611Y-15035960D02*
X15491134Y-14988341D01*
X15491134Y-14988341D02*
X15491134Y-14950246D01*
X15491134Y-14950246D02*
X15481611Y-14902627D01*
X15481611Y-14902627D02*
X15472087Y-14874055D01*
X15472087Y-14874055D02*
X15462563Y-14855008D01*
X15462563Y-14855008D02*
X15443515Y-14826436D01*
X15443515Y-14826436D02*
X15433992Y-14816912D01*
M02*
