M48
; DRILL file KiCad 10.0.0 date 2026-07-06T08:29:43
; FORMAT={-:-/ absolute / metric / decimal}
; #@! TF.CreationDate,2026-07-06T08:29:43+05:30
; #@! TF.GenerationSoftware,Kicad,Pcbnew,10.0.0
; #@! TF.FileFunction,Plated,1,2,PTH
FMAT,2
METRIC
; #@! TA.AperFunction,Plated,PTH,ViaDrill
T1C0.200
; #@! TA.AperFunction,Plated,PTH,ComponentDrill
T2C1.000
; #@! TA.AperFunction,Plated,PTH,ComponentDrill
T3C1.200
%
G90
G05
T1
X95.2Y-68.955
X95.2Y-83.515
X95.2Y-100.987
X113.2Y-68.955
X113.2Y-83.515
X113.2Y-100.987
X131.2Y-68.955
X131.2Y-83.515
X131.2Y-100.987
X149.169Y-68.955
X149.169Y-83.515
X149.169Y-100.987
X149.169Y-118.459
X158.087Y-96.843
X167.031Y-83.515
X167.106Y-67.846
X167.106Y-100.987
X167.106Y-118.459
X170.196Y-68.276
X170.248Y-100.989
X170.798Y-100.175
X172.48Y-86.718
X175.659Y-106.811
X183.744Y-105.052
X185.043Y-118.459
X187.576Y-115.547
X187.754Y-106.384
T2
X178.76Y-82.075
X178.76Y-84.615
X178.76Y-87.155
X178.76Y-89.695
X178.76Y-92.235
X178.76Y-94.775
X178.76Y-97.315
X178.76Y-99.855
X178.76Y-102.395
X181.3Y-102.395
X183.84Y-102.395
X186.38Y-102.395
X188.92Y-102.395
X191.46Y-102.395
X194.0Y-82.075
X194.0Y-84.615
X194.0Y-87.155
X194.0Y-89.695
X194.0Y-92.235
X194.0Y-94.775
X194.0Y-97.315
X194.0Y-99.855
X194.0Y-102.395
T3
X90.2Y-76.275
X90.2Y-93.275
X90.2Y-110.275
X95.2Y-78.375
X95.2Y-95.375
X95.2Y-112.375
X100.2Y-76.275
X100.2Y-93.275
X100.2Y-110.275
X108.2Y-76.275
X108.2Y-93.275
X108.2Y-110.275
X113.2Y-78.375
X113.2Y-95.375
X113.2Y-112.375
X118.2Y-76.275
X118.2Y-93.275
X118.2Y-110.275
X126.2Y-76.275
X126.2Y-93.275
X126.2Y-110.275
X131.2Y-78.375
X131.2Y-95.375
X131.2Y-112.375
X136.2Y-76.275
X136.2Y-93.275
X136.2Y-110.275
X144.2Y-76.275
X144.2Y-93.275
X144.2Y-110.275
X144.2Y-127.275
X149.2Y-78.375
X149.2Y-95.375
X149.2Y-112.375
X149.2Y-129.375
X154.2Y-76.275
X154.2Y-93.275
X154.2Y-110.275
X154.2Y-127.275
X162.2Y-76.275
X162.2Y-93.275
X162.2Y-110.275
X162.2Y-127.275
X167.2Y-78.375
X167.2Y-95.375
X167.2Y-112.375
X167.2Y-129.375
X172.2Y-76.275
X172.2Y-93.275
X172.2Y-110.275
X172.2Y-127.275
X180.2Y-127.275
X185.2Y-129.375
X190.2Y-127.275
T2
G00X184.22Y-107.988
M15
G01X184.72Y-107.988
M16
G05
G00X184.22Y-110.362
M15
G01X184.72Y-110.362
M16
G05
G00X185.72Y-106.162
M15
G01X186.22Y-106.162
M16
G05
G00X185.72Y-112.188
M15
G01X186.22Y-112.188
M16
G05
G00X189.72Y-106.162
M15
G01X190.22Y-106.162
M16
G05
G00X189.72Y-112.188
M15
G01X190.22Y-112.188
M16
G05
G00X192.72Y-106.162
M15
G01X193.22Y-106.162
M16
G05
G00X192.72Y-112.188
M15
G01X193.22Y-112.188
M16
G05
M30
