%TF.GenerationSoftware,KiCad,Pcbnew,10.0.0*%
%TF.CreationDate,2026-07-06T08:29:51+05:30*%
%TF.ProjectId,Twin key,5477696e-206b-4657-992e-6b696361645f,rev?*%
%TF.SameCoordinates,Original*%
%TF.FileFunction,Other,User*%
%FSLAX46Y46*%
G04 Gerber Fmt 4.6, Leading zero omitted, Abs format (unit mm)*
G04 Created by KiCad (PCBNEW 10.0.0) date 2026-07-06 08:29:51*
%MOMM*%
%LPD*%
G01*
G04 APERTURE LIST*
%ADD10C,0.050000*%
G04 APERTURE END LIST*
%TO.C,D15*%
D10*
X164850000Y-100575000D02*
X169550000Y-100575000D01*
X164850000Y-102875000D02*
X164850000Y-100575000D01*
X169550000Y-102875000D02*
X164850000Y-102875000D01*
X169550000Y-102875000D02*
X169550000Y-100575000D01*
%TO.C,D9*%
X146850000Y-83575000D02*
X151550000Y-83575000D01*
X146850000Y-85875000D02*
X146850000Y-83575000D01*
X151550000Y-85875000D02*
X146850000Y-85875000D01*
X151550000Y-85875000D02*
X151550000Y-83575000D01*
%TO.C,D1*%
X92850000Y-66575000D02*
X97550000Y-66575000D01*
X92850000Y-68875000D02*
X92850000Y-66575000D01*
X97550000Y-68875000D02*
X92850000Y-68875000D01*
X97550000Y-68875000D02*
X97550000Y-66575000D01*
%TO.C,D13*%
X128850000Y-100575000D02*
X133550000Y-100575000D01*
X128850000Y-102875000D02*
X128850000Y-100575000D01*
X133550000Y-102875000D02*
X128850000Y-102875000D01*
X133550000Y-102875000D02*
X133550000Y-100575000D01*
%TO.C,D16*%
X146850000Y-117575000D02*
X151550000Y-117575000D01*
X146850000Y-119875000D02*
X146850000Y-117575000D01*
X151550000Y-119875000D02*
X146850000Y-119875000D01*
X151550000Y-119875000D02*
X151550000Y-117575000D01*
%TO.C,D7*%
X110850000Y-83575000D02*
X115550000Y-83575000D01*
X110850000Y-85875000D02*
X110850000Y-83575000D01*
X115550000Y-85875000D02*
X110850000Y-85875000D01*
X115550000Y-85875000D02*
X115550000Y-83575000D01*
%TO.C,D8*%
X128850000Y-83575000D02*
X133550000Y-83575000D01*
X128850000Y-85875000D02*
X128850000Y-83575000D01*
X133550000Y-85875000D02*
X128850000Y-85875000D01*
X133550000Y-85875000D02*
X133550000Y-83575000D01*
%TO.C,D11*%
X92850000Y-100575000D02*
X97550000Y-100575000D01*
X92850000Y-102875000D02*
X92850000Y-100575000D01*
X97550000Y-102875000D02*
X92850000Y-102875000D01*
X97550000Y-102875000D02*
X97550000Y-100575000D01*
%TO.C,D18*%
X182850000Y-117575000D02*
X187550000Y-117575000D01*
X182850000Y-119875000D02*
X182850000Y-117575000D01*
X187550000Y-119875000D02*
X182850000Y-119875000D01*
X187550000Y-119875000D02*
X187550000Y-117575000D01*
%TO.C,H5*%
X181950000Y-109075000D02*
G75*
G02*
X177050000Y-109075000I-2450000J0D01*
G01*
X177050000Y-109075000D02*
G75*
G02*
X181950000Y-109075000I2450000J0D01*
G01*
%TO.C,D5*%
X164850000Y-66575000D02*
X169550000Y-66575000D01*
X164850000Y-68875000D02*
X164850000Y-66575000D01*
X169550000Y-68875000D02*
X164850000Y-68875000D01*
X169550000Y-68875000D02*
X169550000Y-66575000D01*
%TO.C,D12*%
X110850000Y-100575000D02*
X115550000Y-100575000D01*
X110850000Y-102875000D02*
X110850000Y-100575000D01*
X115550000Y-102875000D02*
X110850000Y-102875000D01*
X115550000Y-102875000D02*
X115550000Y-100575000D01*
%TO.C,H4*%
X160650000Y-114975000D02*
G75*
G02*
X155750000Y-114975000I-2450000J0D01*
G01*
X155750000Y-114975000D02*
G75*
G02*
X160650000Y-114975000I2450000J0D01*
G01*
%TO.C,D6*%
X92850000Y-83575000D02*
X97550000Y-83575000D01*
X92850000Y-85875000D02*
X92850000Y-83575000D01*
X97550000Y-85875000D02*
X92850000Y-85875000D01*
X97550000Y-85875000D02*
X97550000Y-83575000D01*
%TO.C,H6*%
X142650000Y-97975000D02*
G75*
G02*
X137750000Y-97975000I-2450000J0D01*
G01*
X137750000Y-97975000D02*
G75*
G02*
X142650000Y-97975000I2450000J0D01*
G01*
%TO.C,H3*%
X160650000Y-80975000D02*
G75*
G02*
X155750000Y-80975000I-2450000J0D01*
G01*
X155750000Y-80975000D02*
G75*
G02*
X160650000Y-80975000I2450000J0D01*
G01*
%TO.C,D4*%
X146850000Y-66575000D02*
X151550000Y-66575000D01*
X146850000Y-68875000D02*
X146850000Y-66575000D01*
X151550000Y-68875000D02*
X146850000Y-68875000D01*
X151550000Y-68875000D02*
X151550000Y-66575000D01*
%TO.C,D17*%
X164850000Y-117575000D02*
X169550000Y-117575000D01*
X164850000Y-119875000D02*
X164850000Y-117575000D01*
X169550000Y-119875000D02*
X164850000Y-119875000D01*
X169550000Y-119875000D02*
X169550000Y-117575000D01*
%TO.C,D10*%
X164700000Y-83575000D02*
X169400000Y-83575000D01*
X164700000Y-85875000D02*
X164700000Y-83575000D01*
X169400000Y-85875000D02*
X164700000Y-85875000D01*
X169400000Y-85875000D02*
X169400000Y-83575000D01*
%TO.C,D14*%
X146850000Y-100575000D02*
X151550000Y-100575000D01*
X146850000Y-102875000D02*
X146850000Y-100575000D01*
X151550000Y-102875000D02*
X146850000Y-102875000D01*
X151550000Y-102875000D02*
X151550000Y-100575000D01*
%TO.C,H2*%
X106650000Y-97975000D02*
G75*
G02*
X101750000Y-97975000I-2450000J0D01*
G01*
X101750000Y-97975000D02*
G75*
G02*
X106650000Y-97975000I2450000J0D01*
G01*
%TO.C,D3*%
X128850000Y-66575000D02*
X133550000Y-66575000D01*
X128850000Y-68875000D02*
X128850000Y-66575000D01*
X133550000Y-68875000D02*
X128850000Y-68875000D01*
X133550000Y-68875000D02*
X133550000Y-66575000D01*
%TO.C,H1*%
X106650000Y-80975000D02*
G75*
G02*
X101750000Y-80975000I-2450000J0D01*
G01*
X101750000Y-80975000D02*
G75*
G02*
X106650000Y-80975000I2450000J0D01*
G01*
%TO.C,D2*%
X110850000Y-66575000D02*
X115550000Y-66575000D01*
X110850000Y-68875000D02*
X110850000Y-66575000D01*
X115550000Y-68875000D02*
X110850000Y-68875000D01*
X115550000Y-68875000D02*
X115550000Y-66575000D01*
%TD*%
M02*
