%TF.GenerationSoftware,KiCad,Pcbnew,10.0.0*%
%TF.CreationDate,2026-07-06T08:29:51+05:30*%
%TF.ProjectId,Twin key,5477696e-206b-4657-992e-6b696361645f,rev?*%
%TF.SameCoordinates,Original*%
%TF.FileFunction,Legend,Bot*%
%TF.FilePolarity,Positive*%
%FSLAX46Y46*%
G04 Gerber Fmt 4.6, Leading zero omitted, Abs format (unit mm)*
G04 Created by KiCad (PCBNEW 10.0.0) date 2026-07-06 08:29:51*
%MOMM*%
%LPD*%
G01*
G04 APERTURE LIST*
%ADD10C,0.300000*%
%ADD11C,0.120000*%
%ADD12C,0.000000*%
G04 APERTURE END LIST*
D10*
G36*
X195667794Y-133140000D02*
G01*
X194450732Y-133140000D01*
X194252884Y-133129668D01*
X194047914Y-133098051D01*
X193849200Y-133041931D01*
X193670193Y-132959565D01*
X193510774Y-132847939D01*
X193376369Y-132705675D01*
X193306631Y-132595439D01*
X193254537Y-132465866D01*
X193221030Y-132313482D01*
X193216551Y-132238377D01*
X193863084Y-132238377D01*
X193885757Y-132329785D01*
X193926098Y-132403241D01*
X193981099Y-132464762D01*
X194043701Y-132512967D01*
X194113977Y-132548726D01*
X194192628Y-132572135D01*
X194349982Y-132588988D01*
X194937630Y-132588988D01*
X194841093Y-131909016D01*
X194345769Y-131909016D01*
X194175959Y-131921655D01*
X194088370Y-131939885D01*
X194010179Y-131968183D01*
X193942498Y-132010241D01*
X193892576Y-132067468D01*
X193864759Y-132139434D01*
X193863084Y-132238377D01*
X193216551Y-132238377D01*
X193212663Y-132173186D01*
X193229457Y-132044937D01*
X193269843Y-131925782D01*
X193330207Y-131824752D01*
X193410688Y-131739305D01*
X193512656Y-131669413D01*
X193629695Y-131619192D01*
X193766547Y-131587531D01*
X193766547Y-131579105D01*
X193613384Y-131520403D01*
X193479149Y-131441824D01*
X193361531Y-131342983D01*
X193266457Y-131224497D01*
X193200162Y-131087108D01*
X193167188Y-130947749D01*
X193832565Y-130947749D01*
X193833774Y-131035237D01*
X193854801Y-131118283D01*
X193890561Y-131186179D01*
X193939922Y-131242857D01*
X193999554Y-131286746D01*
X194140238Y-131341334D01*
X194291180Y-131358004D01*
X194765439Y-131358004D01*
X194677328Y-130724926D01*
X194232379Y-130724926D01*
X194079238Y-130739581D01*
X194004992Y-130759428D01*
X193942951Y-130787758D01*
X193891040Y-130828034D01*
X193852642Y-130882096D01*
X193832565Y-130947749D01*
X193167188Y-130947749D01*
X193162229Y-130926793D01*
X193152193Y-130765469D01*
X193167742Y-130638219D01*
X193204177Y-130537714D01*
X193262304Y-130447220D01*
X193335284Y-130371705D01*
X193424546Y-130309836D01*
X193577716Y-130242939D01*
X193760318Y-130201209D01*
X193951713Y-130180740D01*
X194144268Y-130173914D01*
X195252337Y-130173914D01*
X195667794Y-133140000D01*
G37*
G36*
X191902852Y-133472292D02*
G01*
X192062403Y-133761903D01*
X192145729Y-133879119D01*
X192240823Y-133974028D01*
X192352263Y-134048611D01*
X192488485Y-134104087D01*
X192643785Y-134135983D01*
X192859795Y-134148234D01*
X193097862Y-134129090D01*
X193317384Y-134072946D01*
X193162046Y-133557655D01*
X193027487Y-133604743D01*
X192880861Y-133620669D01*
X192780417Y-133614374D01*
X192704640Y-133597588D01*
X192637610Y-133568768D01*
X192582824Y-133530361D01*
X192494713Y-133423199D01*
X192410816Y-133276104D01*
X192347801Y-133158501D01*
X192952119Y-131100083D01*
X192272330Y-131100083D01*
X191936557Y-132447754D01*
X191928131Y-132447754D01*
X191290107Y-131100083D01*
X190643841Y-131100083D01*
X191902852Y-133472292D01*
G37*
G36*
X187588546Y-130898766D02*
G01*
X187669681Y-130812457D01*
X187785833Y-130749839D01*
X187915837Y-130713178D01*
X188037525Y-130701479D01*
X188188651Y-130718332D01*
X188337761Y-130770539D01*
X188402337Y-130811886D01*
X188457379Y-130864694D01*
X188497820Y-130928589D01*
X188520210Y-131006660D01*
X188517112Y-131100573D01*
X188484673Y-131171891D01*
X188427746Y-131230034D01*
X188346187Y-131280701D01*
X188136260Y-131358004D01*
X187895010Y-131433292D01*
X187657789Y-131533675D01*
X187549653Y-131600440D01*
X187458487Y-131682053D01*
X187386568Y-131781530D01*
X187334655Y-131907916D01*
X187312282Y-132051041D01*
X187324031Y-132235996D01*
X187356989Y-132396925D01*
X187408310Y-132539738D01*
X187477354Y-132666840D01*
X187611208Y-132835704D01*
X187771178Y-132972021D01*
X187954455Y-133076990D01*
X188161356Y-133151723D01*
X188380367Y-133195581D01*
X188608321Y-133210341D01*
X188799801Y-133199976D01*
X188973965Y-133169971D01*
X189132954Y-133121498D01*
X189282678Y-133050979D01*
X189423601Y-132955692D01*
X189556838Y-132833536D01*
X189015535Y-132319527D01*
X188917474Y-132438565D01*
X188790953Y-132527255D01*
X188645109Y-132582211D01*
X188486688Y-132600711D01*
X188323106Y-132582027D01*
X188167768Y-132525607D01*
X188101672Y-132482317D01*
X188048150Y-132429436D01*
X188008937Y-132366088D01*
X187987150Y-132291317D01*
X187986409Y-132206075D01*
X188010914Y-132137391D01*
X188060789Y-132080108D01*
X188164383Y-132010666D01*
X188302040Y-131948400D01*
X188620960Y-131839773D01*
X188786799Y-131775440D01*
X188935667Y-131693410D01*
X189063051Y-131586827D01*
X189160249Y-131450877D01*
X189200196Y-131347216D01*
X189217845Y-131217200D01*
X189208609Y-131053555D01*
X189175770Y-130898317D01*
X189124509Y-130759718D01*
X189055285Y-130635533D01*
X188921341Y-130470124D01*
X188759446Y-130334382D01*
X188574705Y-130228700D01*
X188369268Y-130152482D01*
X188153580Y-130106938D01*
X187936775Y-130091849D01*
X187689983Y-130110131D01*
X187460502Y-130163839D01*
X187317220Y-130222814D01*
X187188400Y-130302888D01*
X187072339Y-130405090D01*
X187588546Y-130898766D01*
G37*
G36*
X187269443Y-133140000D02*
G01*
X186547522Y-133140000D01*
X186211749Y-132506922D01*
X185057518Y-132506922D01*
X184889723Y-133140000D01*
X184150950Y-133140000D01*
X184501160Y-131955910D01*
X185204430Y-131955910D01*
X185930564Y-131955910D01*
X185439453Y-131032489D01*
X185204430Y-131955910D01*
X184501160Y-131955910D01*
X185028209Y-130173914D01*
X185569696Y-130173914D01*
X187269443Y-133140000D01*
G37*
G36*
X183853279Y-133140000D02*
G01*
X182783129Y-133140000D01*
X182563515Y-133129274D01*
X182347694Y-133097202D01*
X182134664Y-133043646D01*
X181928530Y-132968716D01*
X181738073Y-132874541D01*
X181561854Y-132760996D01*
X181400666Y-132627321D01*
X181257520Y-132474160D01*
X181131559Y-132300109D01*
X181030676Y-132111025D01*
X180955559Y-131900509D01*
X180906978Y-131665383D01*
X180889644Y-131423743D01*
X181575365Y-131423743D01*
X181582736Y-131632044D01*
X181639304Y-131868288D01*
X181725435Y-132054279D01*
X181844496Y-132211273D01*
X181987752Y-132332899D01*
X182154265Y-132422962D01*
X182346606Y-132484574D01*
X182551950Y-132518659D01*
X182774703Y-132530369D01*
X183114689Y-132530369D01*
X182867026Y-130783545D01*
X182480878Y-130783545D01*
X182279617Y-130796880D01*
X182096929Y-130835568D01*
X181929221Y-130901850D01*
X181792663Y-130991639D01*
X181684431Y-131108927D01*
X181610031Y-131255605D01*
X181575365Y-131423743D01*
X180889644Y-131423743D01*
X180887545Y-131394484D01*
X180903996Y-131166468D01*
X180951124Y-130974054D01*
X181031262Y-130793552D01*
X181135905Y-130640383D01*
X181265831Y-130511153D01*
X181416990Y-130405291D01*
X181590817Y-130319278D01*
X181790465Y-130253599D01*
X182106362Y-130194399D01*
X182455782Y-130173914D01*
X183437822Y-130173914D01*
X183853279Y-133140000D01*
G37*
G36*
X180667375Y-133140000D02*
G01*
X180012682Y-133140000D01*
X179848917Y-131955910D01*
X179525784Y-131955910D01*
X179068378Y-133140000D01*
X178283443Y-133140000D01*
X178862665Y-131887400D01*
X178657304Y-131828613D01*
X178487225Y-131735823D01*
X178346458Y-131608780D01*
X178235074Y-131453406D01*
X178155371Y-131276706D01*
X178107222Y-131074621D01*
X178098564Y-130964107D01*
X178784623Y-130964107D01*
X178787194Y-131071324D01*
X178816958Y-131183534D01*
X178866878Y-131261284D01*
X178935382Y-131320083D01*
X179013790Y-131360568D01*
X179100298Y-131385709D01*
X179196423Y-131398670D01*
X179383085Y-131404898D01*
X179769233Y-131404898D01*
X179676909Y-130724926D01*
X179248813Y-130724926D01*
X179070577Y-130737566D01*
X178984288Y-130756579D01*
X178913223Y-130786109D01*
X178853470Y-130829835D01*
X178808260Y-130889607D01*
X178784623Y-130964107D01*
X178098564Y-130964107D01*
X178093659Y-130901495D01*
X178104814Y-130758847D01*
X178136714Y-130641029D01*
X178190309Y-130531472D01*
X178258624Y-130440071D01*
X178342244Y-130364607D01*
X178492113Y-130278000D01*
X178678017Y-130217878D01*
X178879608Y-130185221D01*
X179101901Y-130173914D01*
X180251918Y-130173914D01*
X180667375Y-133140000D01*
G37*
G36*
X177540456Y-130173914D02*
G01*
X176885763Y-130173914D01*
X177301220Y-133140000D01*
X177955913Y-133140000D01*
X177540456Y-130173914D01*
G37*
G36*
X175793998Y-130748374D02*
G01*
X176641948Y-130748374D01*
X176562080Y-130173914D01*
X174211854Y-130173914D01*
X174291538Y-130748374D01*
X175139305Y-130748374D01*
X175475078Y-133140000D01*
X176129771Y-133140000D01*
X175793998Y-130748374D01*
G37*
G36*
X174988912Y-133140000D02*
G01*
X174266991Y-133140000D01*
X173931219Y-132506922D01*
X172776988Y-132506922D01*
X172609193Y-133140000D01*
X171870420Y-133140000D01*
X172220630Y-131955910D01*
X172923900Y-131955910D01*
X173650034Y-131955910D01*
X173158923Y-131032489D01*
X172923900Y-131955910D01*
X172220630Y-131955910D01*
X172747679Y-130173914D01*
X173289165Y-130173914D01*
X174988912Y-133140000D01*
G37*
%TO.C,J1*%
D11*
X184070000Y-105162200D02*
X196370000Y-105162200D01*
X184070000Y-111362200D02*
X184070000Y-105162200D01*
X196370000Y-105162200D02*
X196370000Y-111362200D01*
X196370000Y-111362200D02*
X184070000Y-111362200D01*
X198470000Y-105662200D02*
X196370000Y-105662200D01*
X198470000Y-105662200D02*
X198470000Y-110862200D01*
X198470000Y-110862200D02*
X196370000Y-110862200D01*
D12*
%TO.C,G\u002A\u002A\u002A*%
G36*
X156575444Y-107168104D02*
G01*
X156837736Y-107548092D01*
X157054161Y-107935039D01*
X157215766Y-108315026D01*
X157243844Y-108389850D01*
X157283036Y-108467424D01*
X157316226Y-108488179D01*
X157348548Y-108457629D01*
X157359421Y-108448696D01*
X157422671Y-108431077D01*
X157517128Y-108424075D01*
X157579212Y-108428456D01*
X157700302Y-108469182D01*
X157811784Y-108557715D01*
X157920299Y-108700222D01*
X158032483Y-108902871D01*
X158043916Y-108926113D01*
X158066929Y-108977708D01*
X158152759Y-109170135D01*
X158230186Y-109399760D01*
X158280593Y-109635003D01*
X158308377Y-109895882D01*
X158317934Y-110202411D01*
X158318131Y-110268897D01*
X158318240Y-110305651D01*
X158315933Y-110488006D01*
X158307747Y-110633553D01*
X158291448Y-110762931D01*
X158264800Y-110896780D01*
X158225571Y-111055738D01*
X158197497Y-111164810D01*
X158170768Y-111276035D01*
X158167172Y-111291000D01*
X158152224Y-111376886D01*
X158151501Y-111437423D01*
X158163854Y-111487564D01*
X158188131Y-111542264D01*
X158245152Y-111715164D01*
X158264239Y-111943329D01*
X158264488Y-111946301D01*
X158236542Y-112201713D01*
X158164445Y-112472406D01*
X158051325Y-112749386D01*
X157900312Y-113023660D01*
X157714535Y-113286235D01*
X157497124Y-113528117D01*
X157415198Y-113602987D01*
X157243715Y-113731594D01*
X157065881Y-113834255D01*
X156897906Y-113902247D01*
X156756002Y-113926849D01*
X156730743Y-113927244D01*
X156656863Y-113934226D01*
X156627147Y-113947171D01*
X156629444Y-113954471D01*
X156660491Y-114002480D01*
X156716238Y-114072996D01*
X156748510Y-114115093D01*
X156820328Y-114227086D01*
X156883677Y-114346268D01*
X156938933Y-114498167D01*
X156958501Y-114686814D01*
X156960528Y-114706360D01*
X156915976Y-114907487D01*
X156805137Y-115101770D01*
X156627874Y-115289432D01*
X156384046Y-115470698D01*
X156073515Y-115645789D01*
X156017174Y-115674130D01*
X155905280Y-115731423D01*
X155824400Y-115774251D01*
X155789103Y-115794972D01*
X155805217Y-115819922D01*
X155862588Y-115884155D01*
X155954209Y-115979914D01*
X156072811Y-116099611D01*
X156211124Y-116235655D01*
X156228218Y-116252310D01*
X156488229Y-116517385D01*
X156697951Y-116758083D01*
X156863997Y-116984383D01*
X156992978Y-117206259D01*
X157091508Y-117433689D01*
X157166199Y-117676649D01*
X157196080Y-117827446D01*
X157217966Y-118010498D01*
X157229773Y-118201646D01*
X157229936Y-118228218D01*
X157230879Y-118382386D01*
X157226688Y-118444674D01*
X157220663Y-118534214D01*
X157198503Y-118638627D01*
X157184074Y-118695204D01*
X157202718Y-118743699D01*
X157268840Y-118800190D01*
X157322540Y-118843686D01*
X157472944Y-119003796D01*
X157621098Y-119212262D01*
X157759828Y-119455633D01*
X157881962Y-119720459D01*
X157980324Y-119993290D01*
X158047743Y-120260673D01*
X158087801Y-120470984D01*
X158353750Y-120646539D01*
X158501263Y-120748832D01*
X158625625Y-120852057D01*
X158703716Y-120945785D01*
X158743525Y-121039983D01*
X158753041Y-121144615D01*
X158752265Y-121149274D01*
X158736052Y-121246573D01*
X158662508Y-121371596D01*
X158535584Y-121464926D01*
X158490149Y-121480057D01*
X158360269Y-121523310D01*
X158141550Y-121543494D01*
X158076976Y-121545990D01*
X157999509Y-121558337D01*
X157969287Y-121577541D01*
X157964302Y-121593337D01*
X157916392Y-121640800D01*
X157835888Y-121690131D01*
X157745341Y-121728860D01*
X157667306Y-121744518D01*
X157642886Y-121742096D01*
X157551242Y-121714050D01*
X157451608Y-121664683D01*
X157319794Y-121584896D01*
X157250287Y-121686935D01*
X157200800Y-121750728D01*
X157056582Y-121869835D01*
X156891234Y-121932688D01*
X156716988Y-121938082D01*
X156546077Y-121884811D01*
X156390736Y-121771669D01*
X156376821Y-121757401D01*
X156278271Y-121630846D01*
X156192959Y-121468666D01*
X156116187Y-121260370D01*
X156043260Y-120995465D01*
X156030002Y-120942223D01*
X155937147Y-120617858D01*
X155838006Y-120351107D01*
X155734295Y-120146687D01*
X155669821Y-120041689D01*
X155454555Y-120171852D01*
X155364619Y-120224078D01*
X155259757Y-120272954D01*
X155164470Y-120295863D01*
X155052439Y-120301277D01*
X154887918Y-120283380D01*
X154695249Y-120219968D01*
X154524909Y-120119373D01*
X154391574Y-119990654D01*
X154309920Y-119842873D01*
X154296566Y-119766784D01*
X154299319Y-119752470D01*
X154546830Y-119752470D01*
X154575515Y-119826366D01*
X154654051Y-119904006D01*
X154765526Y-119974481D01*
X154893000Y-120028983D01*
X155019534Y-120058700D01*
X155128190Y-120054824D01*
X155185150Y-120031735D01*
X155282283Y-119978685D01*
X155389591Y-119910075D01*
X155430097Y-119883272D01*
X155568094Y-119810884D01*
X155676907Y-119785446D01*
X155783603Y-119785290D01*
X155732579Y-119666175D01*
X155701467Y-119593156D01*
X155668289Y-119510313D01*
X155660679Y-119475240D01*
X155677868Y-119479212D01*
X155719084Y-119513507D01*
X155730665Y-119524392D01*
X155798456Y-119606917D01*
X155859233Y-119705584D01*
X155892023Y-119774648D01*
X155955081Y-119922292D01*
X156027307Y-120103854D01*
X156101880Y-120301137D01*
X156171979Y-120495940D01*
X156230781Y-120670066D01*
X156271465Y-120805317D01*
X156351994Y-121078335D01*
X156432434Y-121290962D01*
X156514999Y-121446541D01*
X156602349Y-121550079D01*
X156697144Y-121606580D01*
X156708493Y-121610518D01*
X156778070Y-121633654D01*
X156808310Y-121641883D01*
X156826924Y-121632468D01*
X156883359Y-121604911D01*
X156946923Y-121554853D01*
X157007401Y-121446372D01*
X157029789Y-121309308D01*
X157028561Y-121298365D01*
X157420560Y-121298365D01*
X157495887Y-121404153D01*
X157537303Y-121450424D01*
X157617785Y-121500773D01*
X157695133Y-121512693D01*
X157748921Y-121480057D01*
X157743251Y-121449237D01*
X157692360Y-121402566D01*
X157610071Y-121356156D01*
X157513874Y-121321785D01*
X157420560Y-121298365D01*
X157028561Y-121298365D01*
X157022734Y-121246427D01*
X157001296Y-121131477D01*
X156968927Y-120984380D01*
X156929129Y-120822094D01*
X156882937Y-120632447D01*
X156846146Y-120442972D01*
X156831609Y-120295135D01*
X156838325Y-120177271D01*
X156865294Y-120077713D01*
X156876765Y-120049234D01*
X156894385Y-120020972D01*
X156912597Y-120032610D01*
X156938312Y-120092059D01*
X156978440Y-120207227D01*
X157010398Y-120296947D01*
X157079774Y-120457454D01*
X157162284Y-120593126D01*
X157271935Y-120724984D01*
X157422733Y-120874050D01*
X157625538Y-121042941D01*
X157845259Y-121177418D01*
X158053450Y-121252786D01*
X158245310Y-121266754D01*
X158331588Y-121253220D01*
X158436584Y-121211398D01*
X158484513Y-121149274D01*
X158470954Y-121070688D01*
X158452805Y-121046848D01*
X158388004Y-120981537D01*
X158291395Y-120894683D01*
X158176213Y-120798507D01*
X158175898Y-120798253D01*
X158022461Y-120667359D01*
X157873076Y-120527157D01*
X157739994Y-120390249D01*
X157635463Y-120269235D01*
X157571735Y-120176715D01*
X157565853Y-120164623D01*
X157535324Y-120084155D01*
X157504960Y-119983256D01*
X157492852Y-119936848D01*
X157481381Y-119882461D01*
X157491634Y-119881915D01*
X157526498Y-119927766D01*
X157582121Y-120001372D01*
X157662574Y-120097331D01*
X157732175Y-120169215D01*
X157781093Y-120207173D01*
X157799499Y-120201354D01*
X157797099Y-120184754D01*
X157776374Y-120110164D01*
X157738994Y-119998102D01*
X157690559Y-119865819D01*
X157569055Y-119592333D01*
X157392717Y-119303487D01*
X157188747Y-119066487D01*
X156960896Y-118884849D01*
X156712915Y-118762087D01*
X156448555Y-118701719D01*
X156220791Y-118700778D01*
X156006769Y-118752201D01*
X155808620Y-118860327D01*
X155620090Y-119028603D01*
X155434926Y-119260477D01*
X155389211Y-119323999D01*
X155305773Y-119431495D01*
X155236287Y-119510569D01*
X155192355Y-119547492D01*
X155142809Y-119559610D01*
X155042491Y-119573224D01*
X154920924Y-119582847D01*
X154804451Y-119595010D01*
X154667444Y-119630999D01*
X154578512Y-119684872D01*
X154546830Y-119752470D01*
X154299319Y-119752470D01*
X154321166Y-119638896D01*
X154395693Y-119520300D01*
X154509662Y-119421717D01*
X154652586Y-119353870D01*
X154813980Y-119327480D01*
X154932696Y-119325997D01*
X154811035Y-119261708D01*
X154808283Y-119260236D01*
X154720702Y-119203335D01*
X154609467Y-119118125D01*
X154497954Y-119022472D01*
X154451582Y-118978732D01*
X154366335Y-118886454D01*
X154290958Y-118782296D01*
X154214014Y-118649386D01*
X154124067Y-118470851D01*
X154119801Y-118462068D01*
X154045791Y-118317094D01*
X153977372Y-118195635D01*
X153921992Y-118110192D01*
X153887101Y-118073263D01*
X153858043Y-118063711D01*
X153828347Y-118061528D01*
X153821022Y-118077242D01*
X153791979Y-118139480D01*
X153749265Y-118230983D01*
X153722977Y-118291023D01*
X153688168Y-118386623D01*
X153674605Y-118449081D01*
X153671639Y-118476042D01*
X153651240Y-118561368D01*
X153617825Y-118665786D01*
X153596435Y-118727656D01*
X153578310Y-118804952D01*
X153579336Y-118814033D01*
X153585296Y-118866802D01*
X153617338Y-118943068D01*
X153647454Y-118991959D01*
X153730350Y-119086249D01*
X153830433Y-119170049D01*
X153912363Y-119227313D01*
X154032255Y-119315580D01*
X154109605Y-119383475D01*
X154153548Y-119441518D01*
X154173216Y-119500232D01*
X154177742Y-119570137D01*
X154168638Y-119640544D01*
X154158606Y-119718125D01*
X154083120Y-119883883D01*
X153945791Y-120047508D01*
X153816706Y-120173557D01*
X153932107Y-120548155D01*
X154002268Y-120760425D01*
X154142274Y-121114642D01*
X154297108Y-121429878D01*
X154460284Y-121692081D01*
X154562473Y-121821626D01*
X154724715Y-122000844D01*
X154918783Y-122195394D01*
X155131859Y-122393010D01*
X155351130Y-122581423D01*
X155563779Y-122748367D01*
X155625084Y-122794497D01*
X155776678Y-122917415D01*
X155872144Y-123011837D01*
X155913859Y-123080013D01*
X155916988Y-123092692D01*
X155929934Y-123197974D01*
X155935752Y-123350079D01*
X155935420Y-123428950D01*
X155934985Y-123532196D01*
X155928176Y-123727518D01*
X155915866Y-123919234D01*
X155898599Y-124090537D01*
X155876917Y-124224618D01*
X155841003Y-124362719D01*
X155783299Y-124538427D01*
X155721917Y-124689746D01*
X155717063Y-124700130D01*
X155668250Y-124805826D01*
X155633672Y-124882979D01*
X155620542Y-124915522D01*
X155639655Y-124921877D01*
X155709254Y-124934307D01*
X155812278Y-124948621D01*
X155853179Y-124954091D01*
X156193042Y-125027727D01*
X156511539Y-125145959D01*
X156798165Y-125303144D01*
X157042415Y-125493642D01*
X157233784Y-125711815D01*
X157320648Y-125845595D01*
X157469708Y-126118277D01*
X157615931Y-126436653D01*
X157753840Y-126787409D01*
X157877957Y-127157228D01*
X157982806Y-127532794D01*
X158036818Y-127754598D01*
X158091547Y-128002349D01*
X158131193Y-128222951D01*
X158158016Y-128435234D01*
X158174277Y-128658029D01*
X158182235Y-128910163D01*
X158184016Y-129189442D01*
X158184150Y-129210469D01*
X158183217Y-129388330D01*
X158176896Y-129654800D01*
X158162183Y-129876405D01*
X158136245Y-130067226D01*
X158096252Y-130241342D01*
X158039371Y-130412833D01*
X157962771Y-130595779D01*
X157863620Y-130804260D01*
X157786746Y-130954726D01*
X157710319Y-131085251D01*
X157627714Y-131199534D01*
X157524199Y-131317766D01*
X157385039Y-131460139D01*
X157335436Y-131509096D01*
X157191283Y-131643737D01*
X157065624Y-131744996D01*
X156939741Y-131826943D01*
X156794915Y-131903646D01*
X156675288Y-131959902D01*
X156431619Y-132054429D01*
X156196105Y-132112349D01*
X155944885Y-132138564D01*
X155654096Y-132137976D01*
X155497298Y-132127923D01*
X155237110Y-132088018D01*
X155004693Y-132015737D01*
X154792340Y-131905726D01*
X154592343Y-131752628D01*
X154396991Y-131551086D01*
X154293090Y-131417374D01*
X154802562Y-131417374D01*
X154905840Y-131509652D01*
X154963220Y-131552484D01*
X155078863Y-131618995D01*
X155204324Y-131674967D01*
X155338996Y-131717026D01*
X155631906Y-131762305D01*
X155940742Y-131756107D01*
X156248671Y-131699461D01*
X156538861Y-131593396D01*
X156640855Y-131541803D01*
X156948242Y-131338794D01*
X157212057Y-131086143D01*
X157430845Y-130786119D01*
X157603151Y-130440989D01*
X157727519Y-130053019D01*
X157802493Y-129624478D01*
X157807408Y-129576567D01*
X157822075Y-129189442D01*
X157799513Y-128763891D01*
X157742622Y-128313215D01*
X157654301Y-127850714D01*
X157537449Y-127389689D01*
X157394968Y-126943442D01*
X157229755Y-126525273D01*
X157044710Y-126148482D01*
X157037296Y-126135333D01*
X156966426Y-126026152D01*
X156877072Y-125908120D01*
X156780576Y-125794035D01*
X156688284Y-125696697D01*
X156611540Y-125628908D01*
X156561687Y-125603467D01*
X156559375Y-125608784D01*
X156573142Y-125658012D01*
X156609478Y-125747779D01*
X156663095Y-125864479D01*
X156688128Y-125917509D01*
X156739486Y-126040398D01*
X156829640Y-126256115D01*
X156964781Y-126643126D01*
X157088779Y-127062627D01*
X157192641Y-127481682D01*
X157196859Y-127498702D01*
X157284248Y-127935436D01*
X157292333Y-127984817D01*
X157316520Y-128187087D01*
X157318973Y-128207605D01*
X157336652Y-128459895D01*
X157345322Y-128725693D01*
X157344940Y-128989002D01*
X157335459Y-129233828D01*
X157316833Y-129444176D01*
X157289016Y-129604051D01*
X157200279Y-129886810D01*
X157038020Y-130234578D01*
X156829346Y-130550221D01*
X156580437Y-130827107D01*
X156297473Y-131058603D01*
X155986633Y-131238075D01*
X155654096Y-131358893D01*
X155522175Y-131385413D01*
X155325333Y-131408050D01*
X155119280Y-131416656D01*
X154802562Y-131417374D01*
X154293090Y-131417374D01*
X154198578Y-131295744D01*
X153989394Y-130981245D01*
X153978755Y-130964246D01*
X153873615Y-130786905D01*
X153793879Y-130626951D01*
X153736197Y-130470338D01*
X153697215Y-130303017D01*
X153673583Y-130110941D01*
X153661948Y-129880063D01*
X153658959Y-129596334D01*
X153659213Y-129517351D01*
X153661596Y-129276344D01*
X153666150Y-128995875D01*
X153672473Y-128695797D01*
X153676621Y-128534137D01*
X154087196Y-128534137D01*
X154096097Y-128546537D01*
X154157979Y-128571421D01*
X154277077Y-128584384D01*
X154455604Y-128585469D01*
X154695775Y-128574722D01*
X154999803Y-128552186D01*
X155124762Y-128540926D01*
X155470032Y-128500757D01*
X155755832Y-128452504D01*
X155980685Y-128396588D01*
X156143120Y-128333432D01*
X156241661Y-128263458D01*
X156274836Y-128187087D01*
X156269841Y-128148124D01*
X156230896Y-128092077D01*
X156140999Y-128037894D01*
X156095099Y-128016492D01*
X156046504Y-127999644D01*
X155990323Y-127990598D01*
X155914727Y-127989210D01*
X155807885Y-127995336D01*
X155657970Y-128008834D01*
X155453153Y-128029561D01*
X155211980Y-128056147D01*
X154885170Y-128099899D01*
X154622084Y-128146214D01*
X154420670Y-128195477D01*
X154278874Y-128248068D01*
X154225840Y-128279035D01*
X154138483Y-128360396D01*
X154088189Y-128451518D01*
X154087196Y-128534137D01*
X153676621Y-128534137D01*
X153680167Y-128395959D01*
X153688829Y-128116213D01*
X153694052Y-127969410D01*
X154681044Y-127969410D01*
X154689433Y-127981566D01*
X154696064Y-127979118D01*
X154759457Y-127965821D01*
X154872966Y-127947807D01*
X155023391Y-127926934D01*
X155197533Y-127905061D01*
X155382195Y-127884044D01*
X155636478Y-127846291D01*
X155858259Y-127791920D01*
X156035539Y-127724281D01*
X156160836Y-127646238D01*
X156226669Y-127560655D01*
X156240216Y-127481682D01*
X156227844Y-127377278D01*
X156191570Y-127286070D01*
X156138588Y-127234675D01*
X156122701Y-127233389D01*
X156050349Y-127248692D01*
X155941527Y-127285069D01*
X155813064Y-127337219D01*
X155721317Y-127378959D01*
X155561953Y-127456308D01*
X155390288Y-127544196D01*
X155251844Y-127618072D01*
X155216661Y-127636846D01*
X155051415Y-127728483D01*
X154904889Y-127813334D01*
X154787425Y-127885622D01*
X154709363Y-127939572D01*
X154681044Y-127969410D01*
X153694052Y-127969410D01*
X153696390Y-127903694D01*
X153703857Y-127683580D01*
X153706931Y-127513501D01*
X153706929Y-127513417D01*
X154081827Y-127513417D01*
X154085677Y-127635042D01*
X154127009Y-127740134D01*
X154143943Y-127759346D01*
X154222230Y-127815211D01*
X154323154Y-127861237D01*
X154469372Y-127911059D01*
X154697054Y-127764565D01*
X154924736Y-127618072D01*
X154777725Y-127555437D01*
X154680502Y-127516644D01*
X154540609Y-127464994D01*
X154398728Y-127415960D01*
X154332799Y-127394311D01*
X154237698Y-127366026D01*
X154181727Y-127358227D01*
X154148570Y-127369999D01*
X154121912Y-127400427D01*
X154115968Y-127409169D01*
X154081827Y-127513417D01*
X153706929Y-127513417D01*
X153703573Y-127383866D01*
X153691744Y-127285083D01*
X153669406Y-127207563D01*
X153634521Y-127141715D01*
X153585049Y-127077949D01*
X153518953Y-127006674D01*
X153434192Y-126918300D01*
X153309817Y-126785313D01*
X153205479Y-126667592D01*
X153136192Y-126578022D01*
X153095140Y-126506454D01*
X153075506Y-126442740D01*
X153070476Y-126376732D01*
X153070938Y-126357480D01*
X153084952Y-126268956D01*
X153112418Y-126215614D01*
X153161780Y-126196208D01*
X153258411Y-126175359D01*
X153379383Y-126158662D01*
X153467555Y-126149058D01*
X153554855Y-126131579D01*
X153604097Y-126097137D01*
X153632410Y-126030875D01*
X153656924Y-125917935D01*
X153677971Y-125812984D01*
X153449719Y-125790612D01*
X153302220Y-125774032D01*
X153069855Y-125737637D01*
X153028974Y-125728124D01*
X154419318Y-125728124D01*
X154426879Y-125787457D01*
X154488278Y-125879106D01*
X154563607Y-125970200D01*
X154781705Y-125922227D01*
X154894928Y-125899007D01*
X155065340Y-125875101D01*
X155191607Y-125877418D01*
X155285573Y-125906820D01*
X155359082Y-125964168D01*
X155397802Y-126011114D01*
X155469930Y-126116689D01*
X155536643Y-126232596D01*
X155578338Y-126310835D01*
X155619350Y-126381509D01*
X155640062Y-126408751D01*
X155661108Y-126391136D01*
X155700504Y-126331898D01*
X155741723Y-126253407D01*
X155771226Y-126179348D01*
X155779286Y-126145717D01*
X155780313Y-126040398D01*
X155745267Y-125916163D01*
X155670631Y-125763230D01*
X155552889Y-125571813D01*
X155536591Y-125547059D01*
X155442846Y-125409194D01*
X155375552Y-125322135D01*
X155328121Y-125279730D01*
X155293969Y-125275826D01*
X155266510Y-125304270D01*
X155265238Y-125306252D01*
X155206698Y-125361618D01*
X155102464Y-125431418D01*
X154969087Y-125507286D01*
X154823124Y-125580856D01*
X154681127Y-125643764D01*
X154559651Y-125687643D01*
X154475249Y-125704128D01*
X154465841Y-125704421D01*
X154419318Y-125728124D01*
X153028974Y-125728124D01*
X152882716Y-125694090D01*
X152751718Y-125645661D01*
X152712794Y-125623880D01*
X152583372Y-125533021D01*
X152412565Y-125392244D01*
X152199788Y-125201051D01*
X151944458Y-124958948D01*
X151606947Y-124632503D01*
X151538772Y-124700679D01*
X151470597Y-124768854D01*
X151559568Y-125069105D01*
X151597137Y-125192149D01*
X151633698Y-125292788D01*
X151669371Y-125356393D01*
X151713084Y-125398139D01*
X151773766Y-125433201D01*
X151889058Y-125498183D01*
X152046493Y-125615953D01*
X152181373Y-125761550D01*
X152300784Y-125944732D01*
X152411813Y-126175256D01*
X152458731Y-126298234D01*
X152521545Y-126462880D01*
X152539384Y-126514231D01*
X152758410Y-127190315D01*
X152903541Y-127717053D01*
X152938793Y-127844998D01*
X153087057Y-128504162D01*
X153089572Y-128518300D01*
X153209724Y-129193692D01*
X153215252Y-129230027D01*
X153244734Y-129470720D01*
X153267188Y-129737248D01*
X153282394Y-130016411D01*
X153287425Y-130197509D01*
X153290133Y-130295011D01*
X153290186Y-130559848D01*
X153282334Y-130797724D01*
X153266358Y-130995439D01*
X153242038Y-131139795D01*
X153223075Y-131209463D01*
X153120496Y-131472091D01*
X152972920Y-131703331D01*
X152772986Y-131912993D01*
X152513335Y-132110886D01*
X152267803Y-132257110D01*
X151972230Y-132382781D01*
X151644453Y-132468053D01*
X151415288Y-132495383D01*
X151149300Y-132498144D01*
X150880279Y-132476582D01*
X150637848Y-132431765D01*
X150602022Y-132422305D01*
X150273304Y-132303882D01*
X149981457Y-132136645D01*
X149724654Y-131918409D01*
X149501063Y-131646993D01*
X149308855Y-131320214D01*
X149146199Y-130935889D01*
X149067993Y-130678519D01*
X149488377Y-130678519D01*
X149513693Y-130755386D01*
X149566289Y-130890436D01*
X149582908Y-130931200D01*
X149749597Y-131268771D01*
X149944500Y-131546055D01*
X150168616Y-131764046D01*
X150422944Y-131923737D01*
X150708484Y-132026123D01*
X150863687Y-132059480D01*
X151221653Y-132095991D01*
X151560477Y-132069623D01*
X151884635Y-131979321D01*
X152198606Y-131824031D01*
X152506864Y-131602699D01*
X152604468Y-131508293D01*
X152736319Y-131315083D01*
X152829147Y-131075300D01*
X152884133Y-130785482D01*
X152902455Y-130442166D01*
X152902709Y-130197509D01*
X152725398Y-130458943D01*
X152556861Y-130672945D01*
X152297127Y-130909077D01*
X151995026Y-131095155D01*
X151653932Y-131229195D01*
X151277223Y-131309216D01*
X151157515Y-131321947D01*
X150834126Y-131325435D01*
X150521379Y-131286057D01*
X150229477Y-131207081D01*
X149968618Y-131091779D01*
X149749006Y-130943422D01*
X149580839Y-130765281D01*
X149579932Y-130764029D01*
X149521113Y-130686140D01*
X149490722Y-130656537D01*
X149488377Y-130678519D01*
X149067993Y-130678519D01*
X149011266Y-130491836D01*
X148998362Y-130441258D01*
X148941114Y-130206849D01*
X148897952Y-130004250D01*
X148866979Y-129816984D01*
X148846299Y-129628574D01*
X148834014Y-129422543D01*
X148828228Y-129182415D01*
X148827042Y-128891711D01*
X148827090Y-128863307D01*
X148827363Y-128805930D01*
X149420926Y-128805930D01*
X149435452Y-128885928D01*
X149444326Y-128898003D01*
X149474607Y-128920611D01*
X149525290Y-128934957D01*
X149605660Y-128941486D01*
X149725006Y-128940643D01*
X149892613Y-128932874D01*
X150117768Y-128918623D01*
X150124310Y-128918178D01*
X150346653Y-128899909D01*
X150581696Y-128875357D01*
X150813505Y-128846648D01*
X151026148Y-128815908D01*
X151203690Y-128785263D01*
X151330200Y-128756839D01*
X151401916Y-128731979D01*
X151516886Y-128668768D01*
X151597365Y-128593350D01*
X151627676Y-128518300D01*
X151624873Y-128498727D01*
X151580556Y-128442424D01*
X151476765Y-128384986D01*
X151433324Y-128366316D01*
X151379024Y-128347497D01*
X151320787Y-128336936D01*
X151246054Y-128334405D01*
X151142269Y-128339679D01*
X150996872Y-128352530D01*
X150797306Y-128372733D01*
X150527594Y-128403335D01*
X150246551Y-128441923D01*
X150001416Y-128483015D01*
X149799968Y-128525143D01*
X149649984Y-128566836D01*
X149559244Y-128606625D01*
X149530919Y-128627364D01*
X149455741Y-128712990D01*
X149420926Y-128805930D01*
X148827363Y-128805930D01*
X148828235Y-128622496D01*
X148831391Y-128433866D01*
X148837657Y-128283896D01*
X148838967Y-128268287D01*
X150127252Y-128268287D01*
X150134518Y-128282257D01*
X150201652Y-128282643D01*
X150202309Y-128282622D01*
X150275006Y-128277013D01*
X150397053Y-128264171D01*
X150551583Y-128245988D01*
X150721731Y-128224354D01*
X150888645Y-128200754D01*
X151040787Y-128173059D01*
X151164378Y-128140081D01*
X151280166Y-128096115D01*
X151408898Y-128035459D01*
X151511630Y-127982219D01*
X151613742Y-127920025D01*
X151672190Y-127867041D01*
X151698235Y-127814675D01*
X151698495Y-127813611D01*
X151701436Y-127717053D01*
X151673882Y-127620317D01*
X151625704Y-127545830D01*
X151566774Y-127516017D01*
X151514652Y-127528550D01*
X151410734Y-127569243D01*
X151269544Y-127632620D01*
X151102160Y-127712995D01*
X150919659Y-127804684D01*
X150733118Y-127902001D01*
X150647746Y-127948258D01*
X150553615Y-127999261D01*
X150392225Y-128090780D01*
X150260028Y-128170872D01*
X150168099Y-128233852D01*
X150127252Y-128268287D01*
X148838967Y-128268287D01*
X148848134Y-128159062D01*
X148863921Y-128045842D01*
X148886119Y-127930713D01*
X148903518Y-127854248D01*
X149346038Y-127854248D01*
X149347512Y-127882316D01*
X149387894Y-127989164D01*
X149486546Y-128078354D01*
X149647546Y-128153938D01*
X149728551Y-128182094D01*
X149817534Y-128209724D01*
X149865643Y-128220261D01*
X149871452Y-128219313D01*
X149924088Y-128195355D01*
X150006769Y-128147656D01*
X150101852Y-128087655D01*
X150191695Y-128026795D01*
X150258654Y-127976515D01*
X150285088Y-127948258D01*
X150274911Y-127938815D01*
X150215686Y-127908645D01*
X150116443Y-127865738D01*
X149991998Y-127815809D01*
X149857165Y-127764575D01*
X149726759Y-127717752D01*
X149615594Y-127681055D01*
X149538486Y-127660200D01*
X149526246Y-127658067D01*
X149429637Y-127670567D01*
X149367814Y-127737728D01*
X149346038Y-127854248D01*
X148903518Y-127854248D01*
X148915827Y-127800151D01*
X148942347Y-127693900D01*
X148995128Y-127503243D01*
X149050889Y-127322017D01*
X149101244Y-127178344D01*
X149145010Y-127063809D01*
X149172741Y-126977325D01*
X149179729Y-126916461D01*
X149167896Y-126861706D01*
X149139165Y-126793549D01*
X149112971Y-126726752D01*
X149081031Y-126572948D01*
X149091679Y-126439229D01*
X149144717Y-126341644D01*
X149186215Y-126309490D01*
X149268907Y-126282325D01*
X149395947Y-126274537D01*
X149490941Y-126272596D01*
X149561092Y-126258717D01*
X149608878Y-126221287D01*
X149658494Y-126148712D01*
X149739657Y-126017730D01*
X149799155Y-125915828D01*
X149832243Y-125844300D01*
X149843655Y-125789223D01*
X149838129Y-125736675D01*
X149820398Y-125672735D01*
X149779539Y-125536360D01*
X149587954Y-125535778D01*
X149357386Y-125518658D01*
X149338124Y-125514784D01*
X150184875Y-125514784D01*
X150189718Y-125539886D01*
X150211763Y-125619826D01*
X150247556Y-125737707D01*
X150292597Y-125878336D01*
X150400319Y-126206980D01*
X150821394Y-126185668D01*
X150865941Y-126183456D01*
X151031409Y-126176713D01*
X151144457Y-126176057D01*
X151216968Y-126182339D01*
X151260830Y-126196412D01*
X151287926Y-126219129D01*
X151294638Y-126227922D01*
X151337013Y-126303364D01*
X151377125Y-126400045D01*
X151420868Y-126526189D01*
X151460018Y-126425528D01*
X151475806Y-126375893D01*
X151485848Y-126298234D01*
X151479596Y-126202512D01*
X151455294Y-126077511D01*
X151411185Y-125912015D01*
X151345510Y-125694811D01*
X151294929Y-125530071D01*
X151254980Y-125416477D01*
X151212801Y-125346652D01*
X151155468Y-125313022D01*
X151070058Y-125308011D01*
X150943647Y-125324043D01*
X150763312Y-125353543D01*
X150680088Y-125367159D01*
X150460862Y-125407975D01*
X150306394Y-125445866D01*
X150214969Y-125481310D01*
X150184875Y-125514784D01*
X149338124Y-125514784D01*
X149072461Y-125461353D01*
X148782121Y-125369810D01*
X148500859Y-125250298D01*
X148243165Y-125109087D01*
X148023533Y-124952446D01*
X147856453Y-124786647D01*
X147752246Y-124657672D01*
X147749483Y-123830372D01*
X147746719Y-123003071D01*
X147615269Y-122385607D01*
X147493133Y-121811899D01*
X147836130Y-121811899D01*
X147838108Y-121830603D01*
X147850677Y-121905270D01*
X147871466Y-122015270D01*
X147896520Y-122140965D01*
X147921885Y-122262716D01*
X147943607Y-122360885D01*
X147957731Y-122415833D01*
X147964072Y-122429747D01*
X147988808Y-122430715D01*
X148030592Y-122373891D01*
X148032942Y-122370059D01*
X148079866Y-122307504D01*
X148115779Y-122281671D01*
X148118442Y-122284352D01*
X148125566Y-122335030D01*
X148129251Y-122445887D01*
X148129591Y-122611602D01*
X148126678Y-122826853D01*
X148120605Y-123086318D01*
X148111466Y-123384676D01*
X148099354Y-123716605D01*
X148084361Y-124076783D01*
X148065157Y-124512979D01*
X148193906Y-124641753D01*
X148220357Y-124667266D01*
X148422286Y-124821543D01*
X148671243Y-124957885D01*
X148950533Y-125069449D01*
X149243459Y-125149388D01*
X149533325Y-125190859D01*
X149736277Y-125194401D01*
X150028158Y-125158831D01*
X150327905Y-125072168D01*
X150648997Y-124931278D01*
X150733852Y-124886326D01*
X150875925Y-124802306D01*
X151012324Y-124712404D01*
X151132542Y-124624477D01*
X151226075Y-124546381D01*
X151282415Y-124485973D01*
X151291058Y-124451110D01*
X151280862Y-124447433D01*
X151220913Y-124450585D01*
X151130474Y-124468749D01*
X151090787Y-124478211D01*
X151012418Y-124492481D01*
X150975721Y-124492201D01*
X150960225Y-124468003D01*
X150916398Y-124392640D01*
X150849990Y-124275548D01*
X150766031Y-124125846D01*
X150669552Y-123952651D01*
X150565583Y-123765081D01*
X150459155Y-123572254D01*
X150355298Y-123383289D01*
X150259044Y-123207303D01*
X150175422Y-123053415D01*
X150109464Y-122930743D01*
X150066200Y-122848404D01*
X150050661Y-122815518D01*
X150034362Y-122793137D01*
X149969645Y-122742246D01*
X149867250Y-122673972D01*
X149739672Y-122595898D01*
X149599405Y-122515605D01*
X149458942Y-122440675D01*
X149330778Y-122378689D01*
X149290462Y-122360241D01*
X149181859Y-122306887D01*
X149106113Y-122264077D01*
X149077646Y-122239729D01*
X149080029Y-122233764D01*
X149125087Y-122219141D01*
X149214009Y-122215372D01*
X149329354Y-122221684D01*
X149453680Y-122237307D01*
X149569548Y-122261470D01*
X149569732Y-122261519D01*
X149804337Y-122336860D01*
X150009147Y-122433958D01*
X150198606Y-122562624D01*
X150387158Y-122732666D01*
X150589250Y-122953893D01*
X150645620Y-123018350D01*
X150757170Y-123142361D01*
X150902477Y-123301393D01*
X151074279Y-123487686D01*
X151265309Y-123693479D01*
X151468304Y-123911010D01*
X151676001Y-124132520D01*
X151881133Y-124350247D01*
X152076438Y-124556431D01*
X152254651Y-124743310D01*
X152408508Y-124903124D01*
X152530744Y-125028112D01*
X152587576Y-125084812D01*
X152727027Y-125213860D01*
X152848456Y-125303618D01*
X152969664Y-125363669D01*
X153108450Y-125403600D01*
X153282614Y-125432996D01*
X153283686Y-125433144D01*
X153698602Y-125466111D01*
X154078855Y-125446814D01*
X154422179Y-125376408D01*
X154726308Y-125256049D01*
X154988979Y-125086894D01*
X155207925Y-124870100D01*
X155380881Y-124606822D01*
X155505582Y-124298217D01*
X155511448Y-124277781D01*
X155542639Y-124136422D01*
X155570433Y-123960883D01*
X155592775Y-123771141D01*
X155607611Y-123587171D01*
X155612887Y-123428950D01*
X155606547Y-123316454D01*
X155600245Y-123280329D01*
X155573574Y-123199314D01*
X155521170Y-123134815D01*
X155426130Y-123063094D01*
X155384908Y-123033993D01*
X155271077Y-122948698D01*
X155137350Y-122843906D01*
X155004765Y-122735948D01*
X154925360Y-122670496D01*
X154826325Y-122591043D01*
X154755185Y-122536688D01*
X154723615Y-122516545D01*
X154717809Y-122542186D01*
X154718937Y-122617933D01*
X154727541Y-122726255D01*
X154728534Y-122735921D01*
X154738270Y-122843314D01*
X154737649Y-122894667D01*
X154724534Y-122899881D01*
X154696792Y-122868857D01*
X154690299Y-122859547D01*
X154651574Y-122795737D01*
X154588519Y-122686237D01*
X154506699Y-122541152D01*
X154411677Y-122370588D01*
X154309017Y-122184649D01*
X154204284Y-121993441D01*
X154103042Y-121807069D01*
X154010856Y-121635639D01*
X153933288Y-121489254D01*
X153875904Y-121378022D01*
X153842035Y-121302092D01*
X153790327Y-121170310D01*
X153732506Y-121010750D01*
X153675897Y-120843007D01*
X153550721Y-120456686D01*
X153526631Y-120806454D01*
X153519992Y-120890185D01*
X153503070Y-121035984D01*
X153483334Y-121136708D01*
X153462664Y-121181344D01*
X153422132Y-121198939D01*
X153321379Y-121234243D01*
X153170754Y-121282940D01*
X152978215Y-121342467D01*
X152751718Y-121410263D01*
X152660103Y-121435949D01*
X152424520Y-121494302D01*
X152143699Y-121556009D01*
X151832203Y-121618338D01*
X151504596Y-121678557D01*
X151175441Y-121733937D01*
X150859301Y-121781746D01*
X150570741Y-121819253D01*
X150521725Y-121824268D01*
X150364183Y-121835286D01*
X150163294Y-121844286D01*
X149929097Y-121851260D01*
X149671628Y-121856199D01*
X149400928Y-121859094D01*
X149127033Y-121859938D01*
X148859983Y-121858721D01*
X148609815Y-121855436D01*
X148386567Y-121850073D01*
X148200279Y-121842625D01*
X148060988Y-121833083D01*
X147978733Y-121821438D01*
X147937613Y-121812201D01*
X147864915Y-121803297D01*
X147836130Y-121811899D01*
X147493133Y-121811899D01*
X147483818Y-121768143D01*
X147316051Y-121720151D01*
X147307183Y-121717557D01*
X147136680Y-121641058D01*
X146992159Y-121518591D01*
X146870038Y-121345124D01*
X146766736Y-121115630D01*
X146678671Y-120825078D01*
X146670434Y-120791565D01*
X146631274Y-120608054D01*
X146598007Y-120415921D01*
X146586557Y-120325969D01*
X146931800Y-120325969D01*
X146941295Y-120417569D01*
X146962753Y-120542951D01*
X146993160Y-120686517D01*
X147029503Y-120832671D01*
X147068767Y-120965815D01*
X147094155Y-121037683D01*
X147183987Y-121219115D01*
X147293681Y-121341624D01*
X147427257Y-121410193D01*
X147502085Y-121424585D01*
X147641102Y-121438733D01*
X147821155Y-121449393D01*
X148028125Y-121456268D01*
X148247889Y-121459061D01*
X148466326Y-121457475D01*
X148669315Y-121451213D01*
X148842735Y-121439977D01*
X148866344Y-121437835D01*
X149486300Y-121365981D01*
X150101668Y-121265638D01*
X150703647Y-121139297D01*
X151283436Y-120989450D01*
X151832236Y-120818589D01*
X152341245Y-120629207D01*
X152801663Y-120423794D01*
X153204690Y-120204844D01*
X153263943Y-120167175D01*
X153393164Y-120075408D01*
X153524438Y-119971792D01*
X153646372Y-119866414D01*
X153747574Y-119769356D01*
X153816650Y-119690705D01*
X153842207Y-119640544D01*
X153824319Y-119610512D01*
X153764490Y-119551766D01*
X153677159Y-119481950D01*
X153574447Y-119400894D01*
X153441586Y-119276424D01*
X153342047Y-119158169D01*
X153288300Y-119059672D01*
X153279722Y-119032539D01*
X153267873Y-119012971D01*
X153244962Y-119005421D01*
X153202515Y-119012197D01*
X153132055Y-119035610D01*
X153025105Y-119077969D01*
X152873190Y-119141586D01*
X152667834Y-119228769D01*
X152274542Y-119388299D01*
X151708143Y-119595294D01*
X151124360Y-119784667D01*
X150537728Y-119952339D01*
X149962786Y-120094229D01*
X149414069Y-120206260D01*
X148906114Y-120284353D01*
X148799702Y-120295962D01*
X148568373Y-120313793D01*
X148310615Y-120326128D01*
X148041968Y-120332824D01*
X147777970Y-120333738D01*
X147534161Y-120328726D01*
X147326079Y-120317646D01*
X147169263Y-120300354D01*
X147063811Y-120285906D01*
X146977111Y-120279539D01*
X146937009Y-120284006D01*
X146931800Y-120325969D01*
X146586557Y-120325969D01*
X146577101Y-120251684D01*
X146568518Y-120163407D01*
X146552392Y-120055432D01*
X146526438Y-119978672D01*
X146481765Y-119910716D01*
X146409483Y-119829152D01*
X146345544Y-119756135D01*
X146265001Y-119652388D01*
X146211513Y-119569112D01*
X146204702Y-119556064D01*
X146171556Y-119503860D01*
X146129930Y-119476118D01*
X146060285Y-119465127D01*
X145943086Y-119463177D01*
X145820956Y-119467449D01*
X145743372Y-119483065D01*
X145710538Y-119512433D01*
X145707920Y-119519335D01*
X145701534Y-119549609D01*
X145719100Y-119571907D01*
X145773999Y-119595512D01*
X145879615Y-119629705D01*
X145899955Y-119636455D01*
X146061432Y-119721405D01*
X146175986Y-119840953D01*
X146238694Y-119984420D01*
X146240134Y-120022423D01*
X146244632Y-120141131D01*
X146188879Y-120300410D01*
X146098674Y-120421519D01*
X145949176Y-120531266D01*
X145767031Y-120592460D01*
X145559342Y-120605610D01*
X145333213Y-120571222D01*
X145095750Y-120489805D01*
X144854054Y-120361866D01*
X144615232Y-120187913D01*
X144612418Y-120185564D01*
X144510264Y-120108914D01*
X144418279Y-120054364D01*
X144356066Y-120033586D01*
X144345107Y-120034337D01*
X144267677Y-120051798D01*
X144153884Y-120087679D01*
X144024190Y-120135684D01*
X143900088Y-120182535D01*
X143730373Y-120236087D01*
X143640752Y-120264366D01*
X143406346Y-120316474D01*
X143212298Y-120335072D01*
X143208118Y-120335103D01*
X143103124Y-120348509D01*
X142988351Y-120391279D01*
X142843492Y-120470889D01*
X142739528Y-120530502D01*
X142516914Y-120632100D01*
X142288097Y-120695050D01*
X142024231Y-120728419D01*
X141797714Y-120732206D01*
X141608126Y-120701943D01*
X141448699Y-120632640D01*
X141304377Y-120519936D01*
X141245577Y-120461500D01*
X141189224Y-120390036D01*
X141164482Y-120320010D01*
X141158984Y-120226457D01*
X141163148Y-120179114D01*
X141446158Y-120179114D01*
X141453024Y-120252995D01*
X141511623Y-120327328D01*
X141613579Y-120388739D01*
X141702449Y-120411190D01*
X141837352Y-120426486D01*
X141990156Y-120432356D01*
X142135862Y-120427880D01*
X142249472Y-120412137D01*
X142253232Y-120411205D01*
X142338771Y-120383787D01*
X142439259Y-120343666D01*
X142535187Y-120299742D01*
X142607049Y-120260916D01*
X142635338Y-120236087D01*
X142629517Y-120227580D01*
X142578746Y-120200354D01*
X142492735Y-120170312D01*
X142399902Y-120136806D01*
X142268952Y-120079271D01*
X142138136Y-120013388D01*
X141926140Y-119898128D01*
X141714777Y-119999002D01*
X141603799Y-120055914D01*
X141512717Y-120109937D01*
X141463084Y-120148470D01*
X141446158Y-120179114D01*
X141163148Y-120179114D01*
X141166419Y-120141925D01*
X141221168Y-120003854D01*
X141333192Y-119884024D01*
X141507278Y-119776249D01*
X141581231Y-119738852D01*
X141655189Y-119700736D01*
X141686944Y-119683338D01*
X141686501Y-119676327D01*
X141666896Y-119626448D01*
X141628225Y-119546066D01*
X141584493Y-119435889D01*
X141571865Y-119317399D01*
X141830054Y-119317399D01*
X141836941Y-119362674D01*
X141895870Y-119468041D01*
X142008060Y-119579094D01*
X142165031Y-119690256D01*
X142358305Y-119795948D01*
X142579403Y-119890592D01*
X142819846Y-119968607D01*
X142956148Y-120001050D01*
X143165850Y-120026312D01*
X143374761Y-120015701D01*
X143600993Y-119967693D01*
X143862658Y-119880761D01*
X144006361Y-119828441D01*
X144189733Y-119771080D01*
X144335220Y-119744653D01*
X144456723Y-119750547D01*
X144568141Y-119790153D01*
X144683372Y-119864859D01*
X144816315Y-119976053D01*
X144920428Y-120055723D01*
X145060862Y-120144777D01*
X145202180Y-120219787D01*
X145324356Y-120272585D01*
X145534262Y-120336584D01*
X145707207Y-120348037D01*
X145846394Y-120306916D01*
X145955023Y-120213193D01*
X146006353Y-120127559D01*
X146017648Y-120022423D01*
X145963366Y-119928939D01*
X145843897Y-119847679D01*
X145659627Y-119779213D01*
X145497185Y-119730621D01*
X145340148Y-119675403D01*
X145228404Y-119622403D01*
X145150380Y-119565909D01*
X145094501Y-119500206D01*
X145093204Y-119498276D01*
X145043028Y-119407291D01*
X145042108Y-119361297D01*
X145088169Y-119362628D01*
X145178936Y-119413615D01*
X145302841Y-119498076D01*
X145313257Y-119361175D01*
X145303690Y-119189616D01*
X145269817Y-119079685D01*
X145931313Y-119079685D01*
X145939838Y-119118977D01*
X145990640Y-119127642D01*
X146042512Y-119116411D01*
X146044608Y-119074567D01*
X146038913Y-119054165D01*
X146026937Y-118970932D01*
X146020383Y-118864858D01*
X146018385Y-118793144D01*
X146014586Y-118745879D01*
X146006723Y-118758186D01*
X145991558Y-118825660D01*
X145966618Y-118935378D01*
X145941449Y-119035370D01*
X145931313Y-119079685D01*
X145269817Y-119079685D01*
X145240469Y-118984438D01*
X145130122Y-118791816D01*
X144982249Y-118627893D01*
X144806448Y-118508813D01*
X144735075Y-118476206D01*
X144514096Y-118409651D01*
X144294247Y-118401820D01*
X144056302Y-118451236D01*
X143934590Y-118494272D01*
X143762834Y-118571240D01*
X143592579Y-118663256D01*
X143433837Y-118763365D01*
X143296621Y-118864612D01*
X143190943Y-118960042D01*
X143126814Y-119042700D01*
X143114248Y-119105631D01*
X143117004Y-119109879D01*
X143165774Y-119132584D01*
X143260647Y-119155680D01*
X143384421Y-119174765D01*
X143413827Y-119178388D01*
X143529823Y-119196165D01*
X143611229Y-119214299D01*
X143641943Y-119229375D01*
X143631247Y-119252523D01*
X143586432Y-119299689D01*
X143586174Y-119299902D01*
X143504537Y-119331146D01*
X143360623Y-119341608D01*
X143154055Y-119331269D01*
X142884458Y-119300111D01*
X142551454Y-119248115D01*
X142367046Y-119217808D01*
X142171768Y-119190983D01*
X142028785Y-119180569D01*
X141930609Y-119187284D01*
X141869753Y-119211848D01*
X141838731Y-119254980D01*
X141830054Y-119317399D01*
X141571865Y-119317399D01*
X141567302Y-119274583D01*
X141607900Y-119134482D01*
X141700835Y-119024156D01*
X141840656Y-118952177D01*
X142021909Y-118927119D01*
X142035853Y-118927496D01*
X142139355Y-118937862D01*
X142277151Y-118959458D01*
X142423377Y-118988338D01*
X142697942Y-119048759D01*
X142893126Y-118876258D01*
X142956653Y-118821085D01*
X143083449Y-118715201D01*
X143215693Y-118609058D01*
X143342032Y-118511357D01*
X143451113Y-118430799D01*
X143531583Y-118376083D01*
X143572091Y-118355911D01*
X143572674Y-118355870D01*
X143604584Y-118328190D01*
X143660611Y-118259077D01*
X143729007Y-118162979D01*
X143751933Y-118127822D01*
X143781164Y-118070150D01*
X144229129Y-118070150D01*
X144447227Y-118092439D01*
X144731324Y-118147218D01*
X144993073Y-118253494D01*
X145212197Y-118406535D01*
X145281630Y-118476699D01*
X145398084Y-118623179D01*
X145495177Y-118779120D01*
X145613904Y-119004026D01*
X145647973Y-118844286D01*
X145650710Y-118831061D01*
X145665145Y-118685963D01*
X145641405Y-118550577D01*
X145574827Y-118396346D01*
X145437417Y-118193561D01*
X145264557Y-118038987D01*
X145066097Y-117936752D01*
X144851512Y-117890264D01*
X144630278Y-117902929D01*
X144411873Y-117978156D01*
X144229129Y-118070150D01*
X143781164Y-118070150D01*
X143849845Y-117934644D01*
X143916985Y-117707907D01*
X143938281Y-117623972D01*
X144279459Y-117623972D01*
X144282767Y-117627208D01*
X144326658Y-117622252D01*
X144405285Y-117598476D01*
X144435022Y-117588851D01*
X144612550Y-117557464D01*
X144818702Y-117553275D01*
X145026585Y-117575458D01*
X145209310Y-117623186D01*
X145311853Y-117672049D01*
X145479088Y-117786760D01*
X145642554Y-117934470D01*
X145783886Y-118097876D01*
X145884722Y-118259671D01*
X145904523Y-118303769D01*
X145954506Y-118438454D01*
X145988084Y-118561653D01*
X146012514Y-118685963D01*
X146016889Y-118708223D01*
X146019642Y-118580716D01*
X146361480Y-118580716D01*
X146369507Y-118905845D01*
X146397999Y-119074567D01*
X146416574Y-119184562D01*
X146502775Y-119412847D01*
X146544723Y-119480969D01*
X146680534Y-119632353D01*
X146859706Y-119770511D01*
X147065830Y-119883908D01*
X147282497Y-119961007D01*
X147315641Y-119968067D01*
X147437970Y-119984789D01*
X147600664Y-119999196D01*
X147784583Y-120010274D01*
X147970591Y-120017011D01*
X148139551Y-120018392D01*
X148272326Y-120013406D01*
X148281250Y-120012702D01*
X148924421Y-119943355D01*
X149572674Y-119836017D01*
X150234299Y-119688616D01*
X150917584Y-119499077D01*
X151630819Y-119265326D01*
X152382292Y-118985291D01*
X152818151Y-118814033D01*
X152583613Y-118741723D01*
X152515266Y-118719516D01*
X152153372Y-118560819D01*
X151821863Y-118343230D01*
X151523550Y-118068876D01*
X151261242Y-117739888D01*
X151237263Y-117704477D01*
X151194284Y-117644089D01*
X151160596Y-117616088D01*
X151127757Y-117625689D01*
X151087321Y-117678111D01*
X151030846Y-117778571D01*
X150949888Y-117932287D01*
X150810562Y-118196509D01*
X150456499Y-118172792D01*
X150344227Y-118164471D01*
X150212582Y-118152368D01*
X150117274Y-118140748D01*
X150073633Y-118131273D01*
X150069581Y-118122006D01*
X150090331Y-118075377D01*
X150144789Y-118008205D01*
X150169265Y-117980625D01*
X150250347Y-117870913D01*
X150318786Y-117755177D01*
X150367617Y-117642795D01*
X150427325Y-117477617D01*
X150485057Y-117294556D01*
X150532903Y-117118863D01*
X150562951Y-116975787D01*
X150582014Y-116853919D01*
X150422902Y-116832812D01*
X150335503Y-116820639D01*
X150262656Y-116803747D01*
X150241656Y-116791742D01*
X151444913Y-116791742D01*
X151446007Y-116891676D01*
X151462108Y-116979144D01*
X151498693Y-117078065D01*
X151561237Y-117212357D01*
X151595093Y-117277749D01*
X151736522Y-117497107D01*
X151913259Y-117713463D01*
X152107326Y-117906329D01*
X152300746Y-118055213D01*
X152370675Y-118096790D01*
X152539106Y-118176782D01*
X152711789Y-118236194D01*
X152869063Y-118268940D01*
X152991270Y-118268936D01*
X153064584Y-118240716D01*
X153153251Y-118179406D01*
X153231378Y-118102592D01*
X153282954Y-118026360D01*
X153291970Y-117966797D01*
X153284661Y-117941199D01*
X153268053Y-117857692D01*
X153251613Y-117750136D01*
X153219261Y-117608863D01*
X153161329Y-117514942D01*
X153079989Y-117483520D01*
X153005388Y-117466783D01*
X152889178Y-117418103D01*
X152750410Y-117346312D01*
X152605044Y-117260309D01*
X152469043Y-117168992D01*
X152358370Y-117081259D01*
X152308184Y-117034443D01*
X152165306Y-116867965D01*
X152050009Y-116667971D01*
X151986094Y-116525304D01*
X151937011Y-116395349D01*
X151907552Y-116292566D01*
X151900881Y-116228051D01*
X151920164Y-116212900D01*
X151920842Y-116213209D01*
X151956002Y-116243967D01*
X152025287Y-116314457D01*
X152118980Y-116414524D01*
X152227364Y-116534009D01*
X152334076Y-116649422D01*
X152461236Y-116778531D01*
X152576816Y-116887670D01*
X152664868Y-116961264D01*
X152804553Y-117053177D01*
X152983142Y-117151365D01*
X153168273Y-117237453D01*
X153339800Y-117302148D01*
X153477577Y-117336157D01*
X153552865Y-117345422D01*
X153613159Y-117341789D01*
X153645808Y-117309054D01*
X153673160Y-117235746D01*
X153696991Y-117175022D01*
X153777862Y-117023311D01*
X153885405Y-116862552D01*
X154003013Y-116716373D01*
X154114079Y-116608402D01*
X154164601Y-116570728D01*
X154232193Y-116529237D01*
X154266489Y-116520925D01*
X154267950Y-116531233D01*
X154254739Y-116591988D01*
X154222759Y-116692805D01*
X154176579Y-116818563D01*
X154116263Y-116979182D01*
X154037979Y-117216490D01*
X153992210Y-117405136D01*
X153977457Y-117550627D01*
X153977696Y-117668065D01*
X154073383Y-117517074D01*
X154121781Y-117444726D01*
X154200486Y-117340197D01*
X154274608Y-117254809D01*
X154333234Y-117200772D01*
X154365450Y-117190295D01*
X154366726Y-117193130D01*
X154362818Y-117241429D01*
X154343876Y-117333831D01*
X154313261Y-117453394D01*
X154280570Y-117597200D01*
X154254745Y-117766647D01*
X154244849Y-117911390D01*
X154263443Y-118093702D01*
X154339891Y-118333725D01*
X154468001Y-118562541D01*
X154639719Y-118766502D01*
X154846993Y-118931956D01*
X154904588Y-118967398D01*
X154981650Y-119010256D01*
X155023148Y-119026981D01*
X155030534Y-119021425D01*
X155044564Y-118969937D01*
X155050133Y-118881968D01*
X155054040Y-118824057D01*
X155358086Y-118824057D01*
X155368891Y-118930916D01*
X155482183Y-118813595D01*
X155555204Y-118748938D01*
X155674714Y-118662157D01*
X155800941Y-118585496D01*
X155873325Y-118547601D01*
X155964101Y-118508137D01*
X156052216Y-118486091D01*
X156160915Y-118476409D01*
X156313440Y-118474033D01*
X156413405Y-118473361D01*
X156520317Y-118469670D01*
X156578272Y-118460835D01*
X156598296Y-118444674D01*
X156591416Y-118419004D01*
X156529657Y-118356339D01*
X156415655Y-118297352D01*
X156268908Y-118252599D01*
X156107068Y-118229006D01*
X155961469Y-118233311D01*
X155756714Y-118290012D01*
X155579864Y-118401915D01*
X155442488Y-118563203D01*
X155373745Y-118704044D01*
X155358086Y-118824057D01*
X155054040Y-118824057D01*
X155057525Y-118772389D01*
X155119088Y-118548102D01*
X155237063Y-118342442D01*
X155404225Y-118166329D01*
X155613347Y-118030684D01*
X155712692Y-117989987D01*
X155929684Y-117942843D01*
X156159473Y-117938214D01*
X156384478Y-117974107D01*
X156587114Y-118048530D01*
X156749799Y-118159489D01*
X156822957Y-118228218D01*
X156804521Y-118082355D01*
X156802971Y-118070625D01*
X156760379Y-117866112D01*
X156689478Y-117636887D01*
X156600126Y-117411158D01*
X156502180Y-117217134D01*
X156430597Y-117111517D01*
X156295309Y-116945567D01*
X156108234Y-116740035D01*
X155870082Y-116495733D01*
X155686198Y-116308237D01*
X155482943Y-116089184D01*
X155290436Y-115865966D01*
X155093490Y-115620848D01*
X154876914Y-115336096D01*
X154792278Y-115223438D01*
X154650182Y-115038054D01*
X154517477Y-114869349D01*
X154401703Y-114726708D01*
X154310398Y-114619515D01*
X154251102Y-114557153D01*
X154030283Y-114394706D01*
X153749622Y-114262318D01*
X153437438Y-114180206D01*
X153104030Y-114152009D01*
X152943211Y-114157281D01*
X152728428Y-114190295D01*
X152542020Y-114260520D01*
X152365251Y-114375906D01*
X152179385Y-114544405D01*
X152004236Y-114743751D01*
X151851199Y-114974079D01*
X151725468Y-115234823D01*
X151624704Y-115532953D01*
X151546567Y-115875439D01*
X151488718Y-116269251D01*
X151448819Y-116721359D01*
X151444913Y-116791742D01*
X150241656Y-116791742D01*
X150211334Y-116774408D01*
X150178157Y-116723514D01*
X150159748Y-116641957D01*
X150152730Y-116520629D01*
X150153723Y-116350421D01*
X150159349Y-116122226D01*
X150160299Y-116086588D01*
X150167398Y-115867093D01*
X150176332Y-115697608D01*
X150188871Y-115563141D01*
X150206782Y-115448697D01*
X150231835Y-115339284D01*
X150265798Y-115219908D01*
X150272213Y-115198820D01*
X150380821Y-114894309D01*
X150509628Y-114634941D01*
X150670387Y-114400467D01*
X150874852Y-114170637D01*
X151146399Y-113894346D01*
X151026337Y-113910959D01*
X150951619Y-113920877D01*
X150824837Y-113937182D01*
X150666759Y-113957197D01*
X150495528Y-113978612D01*
X150380239Y-113994014D01*
X150173088Y-114024698D01*
X149935835Y-114062443D01*
X149689566Y-114103862D01*
X149455370Y-114145571D01*
X149444857Y-114147503D01*
X149165127Y-114195215D01*
X148915645Y-114230732D01*
X148703434Y-114253455D01*
X148535518Y-114262787D01*
X148418921Y-114258128D01*
X148360665Y-114238879D01*
X148334660Y-114224146D01*
X148258309Y-114193643D01*
X148154383Y-114158821D01*
X147971606Y-114102269D01*
X147818304Y-114341706D01*
X147721178Y-114501986D01*
X147591533Y-114734758D01*
X147455567Y-114995415D01*
X147322822Y-115265039D01*
X147202842Y-115524712D01*
X147105167Y-115755515D01*
X147069405Y-115847842D01*
X146982387Y-116085651D01*
X146887085Y-116360472D01*
X146789745Y-116653309D01*
X146708499Y-116907923D01*
X146696615Y-116945167D01*
X146613939Y-117217051D01*
X146547965Y-117449967D01*
X146462176Y-117807293D01*
X146392400Y-118213193D01*
X146361480Y-118580716D01*
X146019642Y-118580716D01*
X146020565Y-118537980D01*
X146023974Y-118472514D01*
X146043308Y-118297880D01*
X146076634Y-118081992D01*
X146120819Y-117840454D01*
X146172730Y-117588870D01*
X146229233Y-117342845D01*
X146287194Y-117117983D01*
X146343481Y-116929888D01*
X146348757Y-116907923D01*
X146337390Y-116901456D01*
X146297112Y-116936571D01*
X146223867Y-117017096D01*
X146113601Y-117146859D01*
X146018416Y-117260718D01*
X145702570Y-117198616D01*
X145619202Y-117181943D01*
X145499550Y-117156839D01*
X145417306Y-117138013D01*
X145386725Y-117128622D01*
X145396372Y-117117140D01*
X145444770Y-117067721D01*
X145524689Y-116988940D01*
X145625766Y-116891095D01*
X145703877Y-116812112D01*
X145814419Y-116690291D01*
X145925641Y-116558628D01*
X146028277Y-116428929D01*
X146113062Y-116312999D01*
X146170728Y-116222645D01*
X146192009Y-116169672D01*
X146191796Y-116166209D01*
X146163630Y-116141380D01*
X146161456Y-116141638D01*
X146114260Y-116164291D01*
X146022664Y-116219192D01*
X145895731Y-116300154D01*
X145742524Y-116400989D01*
X145572105Y-116515511D01*
X145393536Y-116637532D01*
X145215881Y-116760866D01*
X145048201Y-116879325D01*
X144899558Y-116986723D01*
X144779017Y-117076873D01*
X144695638Y-117143587D01*
X144575190Y-117253555D01*
X144461397Y-117369908D01*
X144367248Y-117478425D01*
X144303139Y-117567112D01*
X144279459Y-117623972D01*
X143938281Y-117623972D01*
X143948324Y-117584388D01*
X144011338Y-117419665D01*
X144099532Y-117275910D01*
X144178923Y-117179494D01*
X144344304Y-117013965D01*
X144560282Y-116826986D01*
X144820932Y-116623125D01*
X145120327Y-116406951D01*
X145452543Y-116183032D01*
X145811654Y-115955937D01*
X145855814Y-115928856D01*
X145995024Y-115842385D01*
X146089185Y-115779232D01*
X146147987Y-115730064D01*
X146181123Y-115685550D01*
X146198285Y-115636355D01*
X146209165Y-115573147D01*
X146256001Y-115349418D01*
X146353218Y-115041503D01*
X146488877Y-114709196D01*
X146657430Y-114364638D01*
X146853330Y-114019965D01*
X146975259Y-113833655D01*
X148641414Y-113833655D01*
X148641426Y-113834290D01*
X148658257Y-113851633D01*
X148711041Y-113857691D01*
X148805701Y-113851867D01*
X148948162Y-113833564D01*
X149144346Y-113802183D01*
X149400179Y-113757127D01*
X149505369Y-113738293D01*
X150155047Y-113632700D01*
X150746650Y-113556295D01*
X151282177Y-113508995D01*
X151763625Y-113490714D01*
X152192993Y-113501368D01*
X152572279Y-113540873D01*
X152903479Y-113609144D01*
X152999074Y-113632973D01*
X153147811Y-113667261D01*
X153322287Y-113705565D01*
X153501550Y-113743187D01*
X153657642Y-113776941D01*
X153956122Y-113851216D01*
X154244989Y-113934999D01*
X154514820Y-114024817D01*
X154756195Y-114117198D01*
X154959691Y-114208667D01*
X155115887Y-114295752D01*
X155215361Y-114374979D01*
X155296705Y-114463705D01*
X155197910Y-114463705D01*
X155195526Y-114463687D01*
X155111890Y-114454003D01*
X154990564Y-114429974D01*
X154856951Y-114396598D01*
X154837628Y-114391261D01*
X154721510Y-114359940D01*
X154634959Y-114337852D01*
X154595484Y-114329491D01*
X154594794Y-114332558D01*
X154619087Y-114371078D01*
X154675255Y-114444454D01*
X154754438Y-114540902D01*
X154840327Y-114645667D01*
X154955689Y-114791040D01*
X155081054Y-114952567D01*
X155201124Y-115110732D01*
X155224389Y-115141632D01*
X155323887Y-115269988D01*
X155409164Y-115374131D01*
X155471791Y-115444049D01*
X155503341Y-115469730D01*
X155539939Y-115458047D01*
X155625232Y-115421851D01*
X155744904Y-115366970D01*
X155885604Y-115299354D01*
X156028753Y-115225733D01*
X156253805Y-115088986D01*
X156415212Y-114955627D01*
X156514932Y-114822591D01*
X156554924Y-114686814D01*
X156537144Y-114545231D01*
X156463552Y-114394779D01*
X156274810Y-114161535D01*
X156022124Y-113946045D01*
X155706662Y-113748955D01*
X155329402Y-113570622D01*
X154891323Y-113411401D01*
X154393404Y-113271648D01*
X153836624Y-113151718D01*
X153221962Y-113051967D01*
X152550397Y-112972752D01*
X152398217Y-112959658D01*
X152074513Y-112941514D01*
X151726596Y-112932764D01*
X151369614Y-112933113D01*
X151018713Y-112942265D01*
X150689042Y-112959924D01*
X150395748Y-112985793D01*
X150153980Y-113019577D01*
X149905829Y-113070268D01*
X149641456Y-113138137D01*
X149400662Y-113214129D01*
X149197875Y-113293649D01*
X149047526Y-113372097D01*
X149023493Y-113388277D01*
X148946815Y-113450400D01*
X148921016Y-113471302D01*
X148818417Y-113572299D01*
X148728850Y-113676322D01*
X148665465Y-113768423D01*
X148641414Y-113833655D01*
X146975259Y-113833655D01*
X147071030Y-113687316D01*
X147083205Y-113660883D01*
X147076038Y-113616388D01*
X147034448Y-113551318D01*
X146951716Y-113452441D01*
X146837948Y-113311362D01*
X146711196Y-113100154D01*
X146635042Y-112878382D01*
X146601468Y-112627150D01*
X146599650Y-112592042D01*
X146992470Y-112592042D01*
X146993637Y-112620755D01*
X147039948Y-112845438D01*
X147150576Y-113058922D01*
X147323524Y-113258837D01*
X147556796Y-113442812D01*
X147848393Y-113608475D01*
X147939876Y-113651959D01*
X148063364Y-113707174D01*
X148157407Y-113744972D01*
X148206766Y-113758956D01*
X148230148Y-113744459D01*
X148274494Y-113685565D01*
X148321147Y-113601953D01*
X148358010Y-113516079D01*
X148372986Y-113450400D01*
X148356162Y-113420168D01*
X148305658Y-113353175D01*
X148233241Y-113266208D01*
X148197225Y-113222580D01*
X148044269Y-112978245D01*
X147937570Y-112698591D01*
X147920654Y-112607896D01*
X148407863Y-112607896D01*
X148600134Y-112576312D01*
X148612262Y-112574487D01*
X148727284Y-112564732D01*
X148886917Y-112559567D01*
X149071695Y-112559342D01*
X149262154Y-112564405D01*
X149270834Y-112564770D01*
X149474150Y-112573551D01*
X149682269Y-112582951D01*
X149871239Y-112591864D01*
X150017108Y-112599189D01*
X150035075Y-112600056D01*
X150201862Y-112601966D01*
X150369290Y-112594982D01*
X150503634Y-112580408D01*
X150575990Y-112571490D01*
X150717549Y-112560645D01*
X150898418Y-112551341D01*
X151102895Y-112544352D01*
X151315280Y-112540451D01*
X151503039Y-112537518D01*
X151613450Y-112534379D01*
X151963211Y-112534379D01*
X151979988Y-112551156D01*
X151996764Y-112534379D01*
X151979988Y-112517602D01*
X151963211Y-112534379D01*
X151613450Y-112534379D01*
X151668532Y-112532813D01*
X151796939Y-112526850D01*
X151878252Y-112520097D01*
X151902466Y-112513021D01*
X151857130Y-112492874D01*
X151754569Y-112462878D01*
X151605658Y-112425848D01*
X151420543Y-112383874D01*
X151209371Y-112339048D01*
X150982287Y-112293460D01*
X150749439Y-112249200D01*
X150520972Y-112208359D01*
X150307033Y-112173028D01*
X150117768Y-112145297D01*
X150036594Y-112135568D01*
X149828434Y-112118187D01*
X149600874Y-112107556D01*
X149368282Y-112103597D01*
X149145027Y-112106236D01*
X148945477Y-112115395D01*
X148784001Y-112130998D01*
X148674968Y-112152969D01*
X148611414Y-112176230D01*
X148548704Y-112214958D01*
X148503937Y-112275450D01*
X148467225Y-112372476D01*
X148428678Y-112520807D01*
X148407863Y-112607896D01*
X147920654Y-112607896D01*
X147881601Y-112398518D01*
X147880837Y-112092922D01*
X147886374Y-112032926D01*
X147889827Y-111944041D01*
X147873403Y-111896651D01*
X147825969Y-111885092D01*
X147736393Y-111903707D01*
X147593545Y-111946832D01*
X147462374Y-111993222D01*
X147252891Y-112103382D01*
X147104954Y-112239682D01*
X147018251Y-112402457D01*
X146992470Y-112592042D01*
X146599650Y-112592042D01*
X146599079Y-112581016D01*
X146596264Y-112449751D01*
X146605548Y-112353436D01*
X146630987Y-112267198D01*
X146676638Y-112166163D01*
X146736184Y-112062982D01*
X146900595Y-111876720D01*
X147121500Y-111722286D01*
X147396356Y-111601263D01*
X147722619Y-111515234D01*
X147853043Y-111487887D01*
X147940897Y-111462550D01*
X147981472Y-111438042D01*
X147984834Y-111410337D01*
X147961471Y-111346002D01*
X147901475Y-111116689D01*
X147866497Y-110851515D01*
X147854456Y-110536517D01*
X147856256Y-110355584D01*
X147863713Y-110244353D01*
X148238772Y-110244353D01*
X148238772Y-110531608D01*
X148254993Y-110808366D01*
X148324650Y-111147011D01*
X148447587Y-111450405D01*
X148489025Y-111528123D01*
X148551688Y-111630535D01*
X148613137Y-111691489D01*
X148690370Y-111719675D01*
X148800384Y-111723783D01*
X148960172Y-111712505D01*
X149121807Y-111702476D01*
X149537766Y-111703479D01*
X150001337Y-111737706D01*
X150505796Y-111803862D01*
X151044416Y-111900653D01*
X151610473Y-112026784D01*
X152197242Y-112180960D01*
X152797996Y-112361888D01*
X153243237Y-112513021D01*
X153306158Y-112534379D01*
X153406011Y-112568273D01*
X153544285Y-112616623D01*
X153777542Y-112693644D01*
X154010638Y-112765843D01*
X154222733Y-112826844D01*
X154392983Y-112870270D01*
X154535332Y-112904151D01*
X154724642Y-112952674D01*
X154897976Y-113000599D01*
X155030499Y-113041264D01*
X155065471Y-113052940D01*
X155168146Y-113085712D01*
X155217377Y-113096899D01*
X155220952Y-113087327D01*
X155186658Y-113057820D01*
X155143964Y-113027629D01*
X155028867Y-112956767D01*
X155687649Y-112956767D01*
X155687649Y-113288202D01*
X155854301Y-113372651D01*
X155953825Y-113420894D01*
X156044078Y-113452594D01*
X156095446Y-113444168D01*
X156118508Y-113392556D01*
X156123845Y-113294700D01*
X156123857Y-113291270D01*
X156460578Y-113291270D01*
X156477075Y-113427517D01*
X156518099Y-113517574D01*
X156552496Y-113551619D01*
X156663876Y-113603868D01*
X156796874Y-113592710D01*
X156991666Y-113506228D01*
X157194728Y-113360669D01*
X157388075Y-113170323D01*
X157563886Y-112946520D01*
X157714341Y-112700590D01*
X157831620Y-112443862D01*
X157907904Y-112187666D01*
X157935371Y-111943329D01*
X157932045Y-111865094D01*
X157897284Y-111717055D01*
X157827633Y-111622803D01*
X157726704Y-111582283D01*
X157598112Y-111595440D01*
X157445470Y-111662219D01*
X157272392Y-111782563D01*
X157082492Y-111956417D01*
X156901942Y-112167048D01*
X156732909Y-112418920D01*
X156596511Y-112681834D01*
X156505695Y-112933851D01*
X156502559Y-112945846D01*
X156468957Y-113125243D01*
X156460578Y-113291270D01*
X156123857Y-113291270D01*
X156123872Y-113286801D01*
X156152262Y-113020869D01*
X156229097Y-112738617D01*
X156347103Y-112451958D01*
X156499001Y-112172803D01*
X156677515Y-111913062D01*
X156875368Y-111684648D01*
X157085285Y-111499472D01*
X157299987Y-111369445D01*
X157366578Y-111337438D01*
X157438179Y-111298323D01*
X157465985Y-111276035D01*
X157462063Y-111270892D01*
X157416125Y-111239034D01*
X157329461Y-111187583D01*
X157215817Y-111124847D01*
X156965650Y-110990918D01*
X156840066Y-111058025D01*
X156783264Y-111092871D01*
X156653326Y-111192428D01*
X156503831Y-111325468D01*
X156348059Y-111478661D01*
X156199286Y-111638672D01*
X156070790Y-111792171D01*
X155975847Y-111925825D01*
X155876512Y-112101763D01*
X155767430Y-112367150D01*
X155706555Y-112644714D01*
X155687649Y-112956767D01*
X155028867Y-112956767D01*
X155025596Y-112954753D01*
X154866924Y-112865223D01*
X154681488Y-112766057D01*
X154482825Y-112664270D01*
X154284475Y-112566876D01*
X154099976Y-112480891D01*
X153942867Y-112413331D01*
X153898869Y-112395523D01*
X153728800Y-112324576D01*
X153619123Y-112273753D01*
X153567534Y-112240998D01*
X153571731Y-112224254D01*
X153629412Y-112221464D01*
X153738274Y-112230571D01*
X153892166Y-112255509D01*
X154095736Y-112301763D01*
X154327257Y-112363915D01*
X154569406Y-112437009D01*
X154804861Y-112516088D01*
X155016297Y-112596197D01*
X155301220Y-112712389D01*
X155340534Y-112479065D01*
X155346582Y-112446351D01*
X155407699Y-112228053D01*
X155503110Y-111991189D01*
X155621649Y-111760650D01*
X155752154Y-111561327D01*
X155777989Y-111528332D01*
X155873945Y-111415047D01*
X155991374Y-111285395D01*
X156110536Y-111161407D01*
X156156188Y-111115583D01*
X156243246Y-111027342D01*
X156286238Y-110980574D01*
X156287582Y-110970934D01*
X156249701Y-110994077D01*
X156175014Y-111045660D01*
X156167456Y-111051021D01*
X156060198Y-111139829D01*
X155939940Y-111256929D01*
X155831311Y-111378473D01*
X155750435Y-111477043D01*
X155623374Y-111628468D01*
X155526214Y-111737145D01*
X155451637Y-111809860D01*
X155392321Y-111853398D01*
X155340947Y-111874545D01*
X155290196Y-111880086D01*
X155216303Y-111864522D01*
X155088884Y-111816448D01*
X154916548Y-111738481D01*
X154705586Y-111633278D01*
X154587408Y-111572658D01*
X153887081Y-111232795D01*
X153207771Y-110936448D01*
X152923427Y-110827197D01*
X157552707Y-110827197D01*
X157575917Y-110865912D01*
X157579366Y-110868571D01*
X157640362Y-110907327D01*
X157724686Y-110953340D01*
X157759335Y-110970934D01*
X157832396Y-111008033D01*
X157874797Y-110865262D01*
X157887395Y-110810456D01*
X157905537Y-110664437D01*
X157916204Y-110478152D01*
X157919551Y-110268897D01*
X157915735Y-110053969D01*
X157904912Y-109850666D01*
X157887239Y-109676283D01*
X157862873Y-109548117D01*
X157842018Y-109477433D01*
X157798223Y-109346105D01*
X157751397Y-109221746D01*
X157707391Y-109118601D01*
X157672056Y-109050910D01*
X157651242Y-109032918D01*
X157649679Y-109037683D01*
X157651777Y-109091015D01*
X157664027Y-109188822D01*
X157684468Y-109314483D01*
X157713131Y-109523847D01*
X157728825Y-109802517D01*
X157722228Y-110079710D01*
X157694492Y-110339611D01*
X157646771Y-110566406D01*
X157580217Y-110744280D01*
X157570264Y-110764616D01*
X157552707Y-110827197D01*
X152923427Y-110827197D01*
X152553885Y-110685211D01*
X151929830Y-110480675D01*
X151340012Y-110324432D01*
X150788838Y-110218075D01*
X150514801Y-110184677D01*
X150198538Y-110160662D01*
X149859119Y-110146625D01*
X149511469Y-110142524D01*
X149170514Y-110148321D01*
X148851180Y-110163975D01*
X148568392Y-110189445D01*
X148337075Y-110224692D01*
X148238772Y-110244353D01*
X147863713Y-110244353D01*
X147867359Y-110189958D01*
X147891907Y-110070899D01*
X147933801Y-109987350D01*
X147996945Y-109928253D01*
X148085239Y-109882552D01*
X148194915Y-109836727D01*
X148216226Y-109491101D01*
X148221080Y-109421856D01*
X148284146Y-108977708D01*
X157600199Y-108977708D01*
X157616976Y-108994485D01*
X157633752Y-108977708D01*
X157616976Y-108960931D01*
X157600199Y-108977708D01*
X148284146Y-108977708D01*
X148294384Y-108905608D01*
X148429694Y-108405439D01*
X148623255Y-107926146D01*
X148871311Y-107472528D01*
X149170108Y-107049382D01*
X149193434Y-107023216D01*
X149783167Y-107023216D01*
X149789181Y-107054322D01*
X149824175Y-107080501D01*
X149860292Y-107063916D01*
X149940574Y-107014980D01*
X150052421Y-106941719D01*
X150184224Y-106852227D01*
X150324375Y-106754597D01*
X150461263Y-106656924D01*
X150583281Y-106567301D01*
X150678819Y-106493823D01*
X150736269Y-106444582D01*
X150772687Y-106406004D01*
X150780429Y-106377519D01*
X150741027Y-106356858D01*
X150675686Y-106350783D01*
X150560662Y-106373356D01*
X150423265Y-106422573D01*
X150281307Y-106491845D01*
X150152597Y-106574582D01*
X150100051Y-106616145D01*
X149979470Y-106727478D01*
X149878761Y-106841788D01*
X149809475Y-106945044D01*
X149783167Y-107023216D01*
X149193434Y-107023216D01*
X149515891Y-106661507D01*
X149904905Y-106313700D01*
X150121728Y-106160407D01*
X151241675Y-106160407D01*
X151276169Y-106197719D01*
X151283327Y-106199997D01*
X151365422Y-106207978D01*
X151510613Y-106205570D01*
X151716175Y-106192974D01*
X151979383Y-106170388D01*
X152297511Y-106138011D01*
X152667834Y-106096042D01*
X152712888Y-106090698D01*
X152988055Y-106056587D01*
X153203574Y-106026505D01*
X153365756Y-105999052D01*
X153480912Y-105972825D01*
X153555353Y-105946426D01*
X153595389Y-105918452D01*
X153607332Y-105887503D01*
X153620067Y-105857768D01*
X153667147Y-105843891D01*
X153755967Y-105849626D01*
X153893838Y-105875498D01*
X154088073Y-105922031D01*
X154142068Y-105936158D01*
X154544299Y-106071262D01*
X154926488Y-106256077D01*
X155114758Y-106377519D01*
X155298669Y-106496149D01*
X155670873Y-106797025D01*
X155679682Y-106804835D01*
X155827994Y-106934665D01*
X155931245Y-107021039D01*
X155992903Y-107066532D01*
X156016440Y-107073720D01*
X156005325Y-107045178D01*
X155985381Y-107012643D01*
X155772542Y-106729934D01*
X155503770Y-106465863D01*
X155188181Y-106226615D01*
X154834888Y-106018374D01*
X154453007Y-105847325D01*
X154051654Y-105719651D01*
X153855106Y-105676481D01*
X153495430Y-105627227D01*
X153120387Y-105608833D01*
X152742973Y-105620185D01*
X152376180Y-105660172D01*
X152033003Y-105727679D01*
X151726436Y-105821594D01*
X151469474Y-105940804D01*
X151459710Y-105946489D01*
X151338083Y-106028628D01*
X151263859Y-106101988D01*
X151241675Y-106160407D01*
X150121728Y-106160407D01*
X150333394Y-106010760D01*
X150797604Y-105757484D01*
X151293780Y-105558671D01*
X151347110Y-105541054D01*
X151604657Y-105461143D01*
X151831222Y-105402667D01*
X152046362Y-105362599D01*
X152269637Y-105337910D01*
X152520605Y-105325572D01*
X152818825Y-105322557D01*
X152915523Y-105322942D01*
X153140591Y-105326328D01*
X153321370Y-105334177D01*
X153474527Y-105347816D01*
X153616729Y-105368569D01*
X153764645Y-105397762D01*
X153766787Y-105398227D01*
X154327398Y-105551479D01*
X154849875Y-105759584D01*
X155333699Y-106022259D01*
X155778350Y-106339222D01*
X156183307Y-106710190D01*
X156276242Y-106808997D01*
X156496805Y-107073720D01*
X156575444Y-107168104D01*
G37*
%TD*%
M02*
