M48
; DRILL file KiCad 10.0.0 date 2026-07-06T08:29:43
; FORMAT={-:-/ absolute / metric / decimal}
; #@! TF.CreationDate,2026-07-06T08:29:43+05:30
; #@! TF.GenerationSoftware,Kicad,Pcbnew,10.0.0
; #@! TF.FileFunction,NonPlated,1,2,NPTH
FMAT,2
METRIC
; #@! TA.AperFunction,NonPlated,NPTH,ComponentDrill
T1C1.200
; #@! TA.AperFunction,NonPlated,NPTH,ComponentDrill
T2C1.700
; #@! TA.AperFunction,NonPlated,NPTH,ComponentDrill
T3C2.200
; #@! TA.AperFunction,NonPlated,NPTH,ComponentDrill
T4C3.400
%
G90
G05
T1
X187.77Y-108.262
X187.77Y-110.088
X194.77Y-108.262
X194.77Y-110.088
T2
X89.7Y-72.475
X89.7Y-89.475
X89.7Y-106.475
X100.7Y-72.475
X100.7Y-89.475
X100.7Y-106.475
X107.7Y-72.475
X107.7Y-89.475
X107.7Y-106.475
X118.7Y-72.475
X118.7Y-89.475
X118.7Y-106.475
X125.7Y-72.475
X125.7Y-89.475
X125.7Y-106.475
X136.7Y-72.475
X136.7Y-89.475
X136.7Y-106.475
X143.7Y-72.475
X143.7Y-89.475
X143.7Y-106.475
X143.7Y-123.475
X154.7Y-72.475
X154.7Y-89.475
X154.7Y-106.475
X154.7Y-123.475
X161.7Y-72.475
X161.7Y-89.475
X161.7Y-106.475
X161.7Y-123.475
X172.7Y-72.475
X172.7Y-89.475
X172.7Y-106.475
X172.7Y-123.475
X179.7Y-123.475
X190.7Y-123.475
T3
X104.2Y-80.975
X104.2Y-97.975
X140.2Y-97.975
X158.2Y-80.975
X158.2Y-114.975
X179.5Y-109.075
T4
X95.2Y-72.475
X95.2Y-89.475
X95.2Y-106.475
X113.2Y-72.475
X113.2Y-89.475
X113.2Y-106.475
X131.2Y-72.475
X131.2Y-89.475
X131.2Y-106.475
X149.2Y-72.475
X149.2Y-89.475
X149.2Y-106.475
X149.2Y-123.475
X167.2Y-72.475
X167.2Y-89.475
X167.2Y-106.475
X167.2Y-123.475
X185.2Y-123.475
M30
