%TF.GenerationSoftware,KiCad,Pcbnew,10.0.0*%
%TF.CreationDate,2026-07-06T08:29:51+05:30*%
%TF.ProjectId,Twin key,5477696e-206b-4657-992e-6b696361645f,rev?*%
%TF.SameCoordinates,Original*%
%TF.FileFunction,Soldermask,Top*%
%TF.FilePolarity,Negative*%
%FSLAX46Y46*%
G04 Gerber Fmt 4.6, Leading zero omitted, Abs format (unit mm)*
G04 Created by KiCad (PCBNEW 10.0.0) date 2026-07-06 08:29:51*
%MOMM*%
%LPD*%
G01*
G04 APERTURE LIST*
G04 Aperture macros list*
%AMRoundRect*
0 Rectangle with rounded corners*
0 $1 Rounding radius*
0 $2 $3 $4 $5 $6 $7 $8 $9 X,Y pos of 4 corners*
0 Add a 4 corners polygon primitive as box body*
4,1,4,$2,$3,$4,$5,$6,$7,$8,$9,$2,$3,0*
0 Add four circle primitives for the rounded corners*
1,1,$1+$1,$2,$3*
1,1,$1+$1,$4,$5*
1,1,$1+$1,$6,$7*
1,1,$1+$1,$8,$9*
0 Add four rect primitives between the rounded corners*
20,1,$1+$1,$2,$3,$4,$5,0*
20,1,$1+$1,$4,$5,$6,$7,0*
20,1,$1+$1,$6,$7,$8,$9,0*
20,1,$1+$1,$8,$9,$2,$3,0*%
G04 Aperture macros list end*
%ADD10RoundRect,0.225000X0.225000X0.375000X-0.225000X0.375000X-0.225000X-0.375000X0.225000X-0.375000X0*%
%ADD11O,2.500000X1.500000*%
%ADD12O,1.500000X2.500000*%
%ADD13C,2.200000*%
%ADD14C,1.700000*%
%ADD15C,3.400000*%
%ADD16C,2.000000*%
%ADD17C,1.200000*%
%ADD18O,2.400000X1.700000*%
G04 APERTURE END LIST*
D10*
%TO.C,D15*%
X168850000Y-101725000D03*
X165550000Y-101725000D03*
%TD*%
%TO.C,D9*%
X150850000Y-84725000D03*
X147550000Y-84725000D03*
%TD*%
%TO.C,D1*%
X96850000Y-67725000D03*
X93550000Y-67725000D03*
%TD*%
D11*
%TO.C,U1*%
X194500000Y-82075000D03*
X194500000Y-84615000D03*
X194500000Y-87155000D03*
X194500000Y-89695000D03*
X194500000Y-92235000D03*
X194500000Y-94775000D03*
X194500000Y-97315000D03*
X194500000Y-99855000D03*
X194500000Y-102395000D03*
D12*
X191460000Y-102895000D03*
X188920000Y-102895000D03*
X186380000Y-102895000D03*
X183840000Y-102895000D03*
X181300000Y-102895000D03*
D11*
X178260000Y-102395000D03*
X178260000Y-99855000D03*
X178260000Y-97315000D03*
X178260000Y-94775000D03*
X178260000Y-92235000D03*
X178260000Y-89695000D03*
X178260000Y-87155000D03*
X178260000Y-84615000D03*
X178260000Y-82075000D03*
%TD*%
D10*
%TO.C,D13*%
X132850000Y-101725000D03*
X129550000Y-101725000D03*
%TD*%
%TO.C,D16*%
X150850000Y-118725000D03*
X147550000Y-118725000D03*
%TD*%
%TO.C,D7*%
X114850000Y-84725000D03*
X111550000Y-84725000D03*
%TD*%
%TO.C,D8*%
X132850000Y-84725000D03*
X129550000Y-84725000D03*
%TD*%
%TO.C,D11*%
X96850000Y-101725000D03*
X93550000Y-101725000D03*
%TD*%
%TO.C,D18*%
X186850000Y-118725000D03*
X183550000Y-118725000D03*
%TD*%
D13*
%TO.C,H5*%
X179500000Y-109075000D03*
%TD*%
D10*
%TO.C,D5*%
X168850000Y-67725000D03*
X165550000Y-67725000D03*
%TD*%
%TO.C,D12*%
X114850000Y-101725000D03*
X111550000Y-101725000D03*
%TD*%
D13*
%TO.C,H4*%
X158200000Y-114975000D03*
%TD*%
D10*
%TO.C,D6*%
X96850000Y-84725000D03*
X93550000Y-84725000D03*
%TD*%
D13*
%TO.C,H6*%
X140200000Y-97975000D03*
%TD*%
%TO.C,H3*%
X158200000Y-80975000D03*
%TD*%
D10*
%TO.C,D4*%
X150850000Y-67725000D03*
X147550000Y-67725000D03*
%TD*%
%TO.C,D17*%
X168850000Y-118725000D03*
X165550000Y-118725000D03*
%TD*%
%TO.C,D10*%
X168700000Y-84725000D03*
X165400000Y-84725000D03*
%TD*%
%TO.C,D14*%
X150850000Y-101725000D03*
X147550000Y-101725000D03*
%TD*%
D13*
%TO.C,H2*%
X104200000Y-97975000D03*
%TD*%
D10*
%TO.C,D3*%
X132850000Y-67725000D03*
X129550000Y-67725000D03*
%TD*%
D13*
%TO.C,H1*%
X104200000Y-80975000D03*
%TD*%
D10*
%TO.C,D2*%
X114850000Y-67725000D03*
X111550000Y-67725000D03*
%TD*%
D14*
%TO.C,S18*%
X190700000Y-123475000D03*
D15*
X185200000Y-123475000D03*
D14*
X179700000Y-123475000D03*
D16*
X190200000Y-127275000D03*
X180200000Y-127275000D03*
X185200000Y-129375000D03*
%TD*%
D14*
%TO.C,S1*%
X100700000Y-72475000D03*
D15*
X95200000Y-72475000D03*
D14*
X89700000Y-72475000D03*
D16*
X100200000Y-76275000D03*
X90200000Y-76275000D03*
X95200000Y-78375000D03*
%TD*%
D14*
%TO.C,S13*%
X136700000Y-106475000D03*
D15*
X131200000Y-106475000D03*
D14*
X125700000Y-106475000D03*
D16*
X136200000Y-110275000D03*
X126200000Y-110275000D03*
X131200000Y-112375000D03*
%TD*%
D14*
%TO.C,S6*%
X100700000Y-89475000D03*
D15*
X95200000Y-89475000D03*
D14*
X89700000Y-89475000D03*
D16*
X100200000Y-93275000D03*
X90200000Y-93275000D03*
X95200000Y-95375000D03*
%TD*%
D17*
%TO.C,J1*%
X194770000Y-110087800D03*
X194770000Y-108262200D03*
X187770000Y-110087800D03*
X187770000Y-108262200D03*
D18*
X185970000Y-112187800D03*
X185970000Y-106162200D03*
X189970000Y-112187800D03*
X189970000Y-106162200D03*
X192970000Y-112187800D03*
X192970000Y-106162200D03*
X184470000Y-110362200D03*
X184470000Y-107987800D03*
%TD*%
D14*
%TO.C,S16*%
X154700000Y-123475000D03*
D15*
X149200000Y-123475000D03*
D14*
X143700000Y-123475000D03*
D16*
X154200000Y-127275000D03*
X144200000Y-127275000D03*
X149200000Y-129375000D03*
%TD*%
D14*
%TO.C,S8*%
X136700000Y-89475000D03*
D15*
X131200000Y-89475000D03*
D14*
X125700000Y-89475000D03*
D16*
X136200000Y-93275000D03*
X126200000Y-93275000D03*
X131200000Y-95375000D03*
%TD*%
D14*
%TO.C,S3*%
X136700000Y-72475000D03*
D15*
X131200000Y-72475000D03*
D14*
X125700000Y-72475000D03*
D16*
X136200000Y-76275000D03*
X126200000Y-76275000D03*
X131200000Y-78375000D03*
%TD*%
D14*
%TO.C,S2*%
X118700000Y-72475000D03*
D15*
X113200000Y-72475000D03*
D14*
X107700000Y-72475000D03*
D16*
X118200000Y-76275000D03*
X108200000Y-76275000D03*
X113200000Y-78375000D03*
%TD*%
D14*
%TO.C,S4*%
X154700000Y-72475000D03*
D15*
X149200000Y-72475000D03*
D14*
X143700000Y-72475000D03*
D16*
X154200000Y-76275000D03*
X144200000Y-76275000D03*
X149200000Y-78375000D03*
%TD*%
D14*
%TO.C,S11*%
X100700000Y-106475000D03*
D15*
X95200000Y-106475000D03*
D14*
X89700000Y-106475000D03*
D16*
X100200000Y-110275000D03*
X90200000Y-110275000D03*
X95200000Y-112375000D03*
%TD*%
D14*
%TO.C,S15*%
X172700000Y-106475000D03*
D15*
X167200000Y-106475000D03*
D14*
X161700000Y-106475000D03*
D16*
X172200000Y-110275000D03*
X162200000Y-110275000D03*
X167200000Y-112375000D03*
%TD*%
D14*
%TO.C,S14*%
X154700000Y-106475000D03*
D15*
X149200000Y-106475000D03*
D14*
X143700000Y-106475000D03*
D16*
X154200000Y-110275000D03*
X144200000Y-110275000D03*
X149200000Y-112375000D03*
%TD*%
D14*
%TO.C,S9*%
X154700000Y-89475000D03*
D15*
X149200000Y-89475000D03*
D14*
X143700000Y-89475000D03*
D16*
X154200000Y-93275000D03*
X144200000Y-93275000D03*
X149200000Y-95375000D03*
%TD*%
D14*
%TO.C,S10*%
X172700000Y-89475000D03*
D15*
X167200000Y-89475000D03*
D14*
X161700000Y-89475000D03*
D16*
X172200000Y-93275000D03*
X162200000Y-93275000D03*
X167200000Y-95375000D03*
%TD*%
D14*
%TO.C,S5*%
X172700000Y-72475000D03*
D15*
X167200000Y-72475000D03*
D14*
X161700000Y-72475000D03*
D16*
X172200000Y-76275000D03*
X162200000Y-76275000D03*
X167200000Y-78375000D03*
%TD*%
D14*
%TO.C,S12*%
X118700000Y-106475000D03*
D15*
X113200000Y-106475000D03*
D14*
X107700000Y-106475000D03*
D16*
X118200000Y-110275000D03*
X108200000Y-110275000D03*
X113200000Y-112375000D03*
%TD*%
D14*
%TO.C,S7*%
X118700000Y-89475000D03*
D15*
X113200000Y-89475000D03*
D14*
X107700000Y-89475000D03*
D16*
X118200000Y-93275000D03*
X108200000Y-93275000D03*
X113200000Y-95375000D03*
%TD*%
D14*
%TO.C,S17*%
X172700000Y-123475000D03*
D15*
X167200000Y-123475000D03*
D14*
X161700000Y-123475000D03*
D16*
X172200000Y-127275000D03*
X162200000Y-127275000D03*
X167200000Y-129375000D03*
%TD*%
M02*
